<svg width="250" height="250" viewBox="0 0 250 250" fill="none" xmlns="http://www.w3.org/2000/svg">
<g clip-path="url(#clip0_174_104)">
<path fill-rule="evenodd" clip-rule="evenodd" d="M0.38579 124.294C-2.75637 150.998 15.8514 189.662 73.9957 196.512C112.256 201.005 151.527 189.955 172.219 187.673C178.089 187.028 182.452 187.475 184.949 189.419C188.702 192.393 188.614 196.115 185.493 202.797C182.303 209.615 186.497 212.68 193.812 210.081C212.563 203.406 250.593 168.452 245.048 118.049C239.436 66.9101 193.086 33.6409 122.985 38.6114C51.7026 43.6522 5.43448 81.3605 0.38579 124.294Z" fill="#6F2B90"/>
<path fill-rule="evenodd" clip-rule="evenodd" d="M211.259 131.911C211.259 139.751 204.859 146.125 196.988 146.125H166.904C164.325 146.125 162.243 144.04 162.243 141.473C162.243 138.905 164.325 136.828 166.904 136.828H196.988C199.708 136.828 201.924 134.616 201.924 131.911C201.924 129.203 199.708 126.998 196.988 126.998H175.231C167.353 126.998 160.961 120.625 160.961 112.781C160.961 104.951 167.353 98.577 175.231 98.577H205.201C207.78 98.577 209.874 100.652 209.874 103.216C209.874 105.787 207.78 107.868 205.201 107.868H175.231C172.504 107.868 170.295 110.069 170.295 112.781C170.295 115.492 172.504 117.7 175.231 117.7H196.988C204.859 117.7 211.259 124.081 211.259 131.911ZM151.672 98.5557C149.088 98.5557 146.999 100.63 146.999 103.194V141.473C146.999 144.04 149.088 146.125 151.672 146.125C154.252 146.125 156.333 144.04 156.333 141.473V103.194C156.333 100.63 154.252 98.5557 151.672 98.5557ZM125.503 122.294L141.379 106.487C143.211 104.667 143.211 101.723 141.379 99.9077C139.552 98.0974 136.597 98.0974 134.776 99.9077L118.895 115.728L103.014 99.9077C101.193 98.0974 98.2394 98.0974 96.4187 99.9077C94.592 101.723 94.592 104.667 96.4187 106.481L112.301 122.294L96.4187 138.108C94.592 139.922 94.592 142.871 96.4187 144.687C97.3253 145.595 98.5211 146.046 99.7093 146.046C100.905 146.046 102.1 145.595 103.014 144.687L118.895 128.867L134.776 144.687C135.697 145.595 136.892 146.046 138.088 146.046C139.27 146.046 140.465 145.595 141.385 144.687C143.211 142.871 143.211 139.922 141.385 138.108L125.503 122.294ZM91.5167 139.158C92.7927 141.394 92.0207 144.222 89.7843 145.498C89.059 145.934 88.253 146.125 87.4673 146.125C85.8558 146.125 84.2777 145.289 83.4113 143.795L78.7041 135.636H52.2725L47.5577 143.795C46.2822 146.013 43.4216 146.782 41.1852 145.498C38.9494 144.222 38.1835 141.394 39.4661 139.158L45.4559 128.775L45.4833 128.74L61.4453 101.1C62.2645 99.6438 63.8227 98.7579 65.4881 98.7579C67.1534 98.7579 68.7045 99.6438 69.5242 101.1L85.4796 128.72L85.5268 128.795L91.5167 139.158ZM73.3452 126.335L65.4881 112.729L57.6309 126.335H73.3452Z" fill="white"/>
</g>
<defs>
<clipPath id="clip0_174_104">
<rect width="250" height="173" fill="white" transform="translate(0 38)"/>
</clipPath>
</defs>
</svg>
