<svg width="250" height="250" viewBox="0 0 250 250" fill="none" xmlns="http://www.w3.org/2000/svg">
<path d="M138.307 25C138.921 25.3618 139.239 25.987 139.642 26.0473C156.604 28.5867 171.768 35.2629 185.267 45.7892C196.645 54.6608 205.639 65.4585 212.427 78.2451C217.904 88.5629 221.551 99.4566 222.973 110.921C224.414 122.537 224.67 134.327 221.548 145.78C219.459 153.442 217.194 161.151 213.991 168.39C210.545 176.176 205.676 183.237 200.03 189.761C193.457 197.358 186.077 203.944 177.625 209.304C166.975 216.059 155.488 220.79 143.029 223.05C141.406 223.344 139.825 223.87 138.394 224.478C128.914 224.667 119.264 224.667 109.512 224.471C109.04 224.048 108.692 223.671 108.3 223.616C97.4001 222.099 87.1937 218.602 77.4231 213.519C64.5014 206.796 53.6598 197.705 44.7532 186.235C34.2669 172.73 27.5725 157.593 25.0473 140.642C24.9873 140.239 24.3618 139.921 24 139.563C24 129.914 24 120.264 24.1907 110.527C24.611 110.069 25.0028 109.719 25.0464 109.329C26.2045 98.9722 29.5791 89.2578 34.193 80.0349C40.9654 66.497 50.388 55.0362 62.4191 45.7398C75.9573 35.2787 91.0793 28.5876 108.024 26.0474C108.427 25.9869 108.746 25.3618 109.104 25C118.753 25 128.402 25 138.307 25ZM102.085 162.897C104.108 162.384 106.167 161.981 108.149 161.34C118.244 158.074 128.269 154.577 138.415 151.48C152.434 147.202 166.278 146.514 179.459 154.507C181.817 155.936 182.02 154.159 182.023 152.444C182.05 134.355 182.074 116.265 182.082 98.1761C182.083 95.5516 181.055 93.4508 178.807 91.9568C173.331 88.3182 167.35 86.1749 160.8 85.4998C152.319 84.6256 144.401 87.0198 136.568 89.6713C125.831 93.3057 115.276 97.5025 104.462 100.878C92.3916 104.646 80.5997 103.82 69.654 96.79C68.8699 96.2865 67.8738 96.113 66.9762 95.786C66.6594 96.8537 66.0699 97.9205 66.0663 98.9892C66.0086 116.261 66.1542 133.534 65.9338 150.803C65.8792 155.073 67.4435 157.45 71.1192 159.347C80.8867 164.389 91.0812 164.93 102.085 162.897Z" fill="#008CEB"/>
<path d="M101.854 162.935C91.0804 164.93 80.886 164.389 71.1184 159.347C67.4427 157.45 65.8785 155.073 65.933 150.803C66.1535 133.534 66.0079 116.261 66.0656 98.9892C66.0692 97.9204 66.6586 96.8537 66.9755 95.786C67.873 96.1129 68.8691 96.2864 69.6532 96.79C80.599 103.82 92.3909 104.646 104.461 100.878C115.275 97.5025 125.83 93.3057 136.567 89.6712C144.401 87.0197 152.319 84.6256 160.799 85.4997C167.349 86.1749 173.331 88.3182 178.806 91.9568C181.054 93.4508 182.082 95.5516 182.081 98.1761C182.074 116.265 182.05 134.354 182.022 152.444C182.019 154.159 181.816 155.936 179.459 154.507C166.277 146.514 152.433 147.202 138.415 151.48C128.268 154.577 118.244 158.074 108.148 161.34C106.166 161.981 104.108 162.384 101.854 162.935Z" fill="#FDFEFE"/>
</svg>
