<svg width="250" height="250" viewBox="0 0 250 250" fill="none" xmlns="http://www.w3.org/2000/svg">
<g clip-path="url(#clip0_180_326)">
<path d="M13.8706 65.0447H68.9366C65.8211 68.8348 62.6858 72.62 59.5307 76.4002C58.8759 77.1145 58.2508 78.1414 57.1495 77.9777C47.8329 77.9777 38.5213 77.9777 29.2147 77.9777C28.566 77.9655 27.9222 78.0915 27.3261 78.3475C26.7299 78.6034 26.1951 78.9834 25.7573 79.4621C25.3194 79.9408 24.9885 80.5073 24.7866 81.1238C24.5846 81.7404 24.5163 82.3928 24.5862 83.0378C24.6742 83.5232 24.9055 83.9712 25.2503 84.3239C25.5951 84.6767 26.0377 84.9182 26.5209 85.0173C27.6511 85.0801 28.784 85.0801 29.9142 85.0173H62.9091C59.8432 88.9165 56.4947 92.5776 53.4437 96.4918C52.7889 97.1913 52.134 98.1884 51.0327 97.9801C40.7637 97.9801 30.4946 97.9801 20.2256 97.9801C19.4665 99.9594 19.2879 102.103 18.5885 104.112C17.889 106.121 17.6508 108.309 16.9811 110.348C16.0882 112.863 15.8352 115.556 14.7934 118.027H0C0.156606 116.543 0.476024 115.081 0.95249 113.666C1.60733 111.806 1.86033 109.856 2.44076 107.966C3.33372 105.243 3.72067 102.385 4.67316 99.6767C5.25358 96.7001 6.36978 93.7236 6.96508 90.747C7.24785 89.5713 7.7241 88.4551 8.03664 87.2794C8.45335 85.7911 8.63195 84.1094 9.18261 82.5914C9.95651 80.4929 10.1946 78.2307 10.909 76.1174C11.6234 74.0041 11.8168 72.114 12.4717 70.1643C13.067 68.4677 13.439 66.7413 13.8706 65.0447Z" fill="black"/>
<path d="M76.3937 66.3692C76.9146 65.8185 77.4058 64.8809 78.2838 65.0297C91.9908 65.0297 105.698 65.0297 119.405 65.0297C120.687 65.1571 121.874 65.7648 122.727 66.731C123.58 67.6972 124.036 68.9502 124.003 70.2387C124.028 72.1634 123.695 74.0761 123.021 75.8792C122.232 78.1563 121.979 80.5821 121.146 82.8443C120.473 86.0056 119.588 89.1182 118.497 92.1609C117.568 93.9261 116.196 95.4196 114.516 96.4945C112.835 97.5695 110.904 98.1891 108.912 98.2925C105.713 98.2925 102.498 98.2925 99.2982 98.2925C102.959 105.019 107.097 111.464 110.922 118.101C105.504 118.101 100.102 118.101 94.6994 118.101C93.2291 116.017 91.8872 113.845 90.6811 111.598C87.9129 107.133 85.368 102.489 82.5552 98.0246C75.4512 98.0941 68.3472 98.0941 61.2432 98.0246C61.4618 97.4946 61.7469 96.9945 62.0915 96.5364C65.2317 92.6818 68.3571 88.7974 71.5866 85.0172C81.5283 85.1065 91.4848 85.0172 101.441 85.0172C102.264 85.0424 103.081 84.8705 103.824 84.5158C104.567 84.1611 105.215 83.634 105.713 82.9782C106.042 82.4568 106.259 81.8729 106.351 81.2633C106.444 80.6537 106.408 80.0316 106.248 79.4362C106.05 79.0494 105.75 78.7242 105.38 78.496C105.01 78.2677 104.585 78.1451 104.15 78.1414C91.7526 78.0521 79.3554 78.2604 66.9432 78.1414C67.8883 76.6849 68.9483 75.3063 70.1132 74.0189C72.1522 71.4144 74.3548 68.9588 76.3937 66.3692Z" fill="black"/>
<path d="M132.784 65C151.119 65.0893 169.44 65 187.85 65C187.128 66.0243 186.332 66.9942 185.468 67.9021C182.968 70.8787 180.572 73.8552 178.027 76.8317C177.447 77.4717 176.836 78.32 175.839 78.1563C166.999 78.1563 158.159 78.1563 149.303 78.1563C148.107 78.0182 146.896 78.1556 145.761 78.5581C144.968 78.9363 144.312 79.5524 143.886 80.3206C143.459 81.0889 143.282 81.971 143.38 82.8443C143.38 84.3326 144.958 85.0767 146.223 85.047H171.092C169.885 86.7171 168.578 88.3124 167.177 89.8243C165.302 92.146 163.382 94.4231 161.507 96.7596C160.971 97.3698 160.436 98.2479 159.513 98.0693C153.828 98.0693 148.157 98.0693 142.472 98.0693C141.91 98.0428 141.348 98.1318 140.821 98.3309C140.294 98.5299 139.814 98.8348 139.409 99.2266C139.005 99.6185 138.685 100.089 138.47 100.609C138.254 101.129 138.147 101.688 138.156 102.251C138.156 103.085 138.26 104.216 139.138 104.603C140.563 105.014 142.051 105.16 143.529 105.034H177.194C176.97 108.175 175.705 111.092 175.05 114.157C174.79 115.524 174.35 116.85 173.741 118.101C155.405 118.101 137.055 118.101 118.675 118.101C119.359 114.336 120.58 110.66 121.428 106.969C122.455 103.799 123.065 100.51 124.047 97.3252C124.687 94.3486 125.744 91.5656 126.31 88.6039C126.622 86.9519 127.307 85.4042 127.619 83.7522C128.051 81.371 129.108 79.1237 129.495 76.7425C129.822 74.8077 130.685 73.0218 130.983 71.087C131.338 68.9933 131.942 66.9497 132.784 65Z" fill="black"/>
<path d="M194.532 65.0447C213.016 65.0447 231.515 65.0447 250 65.0447C246.934 68.3933 244.255 72.0544 241.249 75.4626C240.385 76.4002 239.76 77.7545 238.421 78.1266C236.045 78.3048 233.657 78.25 231.292 77.9628H210.531C209.674 77.9406 208.826 78.13 208.06 78.5142C207.294 78.8984 206.635 79.4656 206.14 80.1655C205.816 80.6861 205.605 81.2698 205.523 81.8779C205.441 82.486 205.489 83.1046 205.664 83.6927C205.923 84.1193 206.288 84.4713 206.723 84.714C207.159 84.9567 207.651 85.0817 208.15 85.0768C216.543 85.0768 224.937 85.0768 233.331 85.0768C231.143 87.9193 228.717 90.5536 226.47 93.3515C225.221 94.9792 223.864 96.5206 222.407 97.9652C221.745 98.0864 221.071 98.1314 220.398 98.0991C214.951 98.0991 209.519 98.0991 204.027 98.0991C203.378 98.1598 202.753 98.377 202.206 98.7321C201.659 99.0872 201.206 99.5696 200.887 100.138C200.379 100.725 200.099 101.475 200.099 102.251C200.099 103.028 200.379 103.778 200.887 104.365C201.704 104.891 202.671 105.137 203.64 105.064H234.894C236.468 105.005 238.044 105.055 239.612 105.213C238.406 108.026 238.004 111.062 237.052 113.949C236.645 115.312 236.322 116.699 236.084 118.101C217.675 118.101 199.25 118.101 180.825 118.101C180.751 116.211 181.822 114.544 182.09 112.699C182.551 110.005 183.578 107.46 184.084 104.781C186.317 96.5513 188.356 88.2617 190.618 80.0315C191.913 74.9863 193.698 70.1346 194.532 65.0447Z" fill="black"/>
<path d="M85.7084 120.736C87.3306 120.289 88.4617 118.831 90.1732 118.578C90.1732 122.03 90.1732 125.498 90.1732 128.996C88.9677 132.106 88.4766 135.425 87.4199 138.58C85.5001 146.021 83.5802 153.463 81.5561 160.8C81.3924 161.499 81.0799 162.482 81.9282 162.854C83.3421 163.017 84.7708 162.854 86.1847 162.928C86.1601 163.856 85.9421 164.768 85.5447 165.607C76.9872 165.607 68.4296 165.607 59.8721 165.607C60.1016 164.666 60.4676 163.763 60.9585 162.928C62.4468 162.928 63.8309 162.928 65.2745 162.928C66.2121 162.229 66.4949 160.934 67.5069 160.279C69.9179 158.523 72.2545 156.633 74.5911 154.772C74.5911 154.445 74.5911 154.103 74.5911 153.775C72.5174 153.775 70.4438 153.775 68.3701 153.775C68.3701 152.629 69.2631 151.915 70.037 151.245C72.0759 149.653 74.0999 148.03 76.1835 146.498C76.6746 146.215 76.7044 145.649 76.7788 145.158C74.7602 144.976 72.7327 144.912 70.7067 144.965C70.7067 143.476 72.195 142.866 73.1028 142.077C75.1268 140.589 77.2104 139.026 79.0559 137.3L79.1749 136.407C77.6866 136.407 76.1984 136.407 74.7101 136.407C73.9957 136.482 73.1474 135.782 73.5493 135.023C75.2072 130.841 77.745 127.065 80.9906 123.95C82.3227 122.563 83.9295 121.468 85.7084 120.736Z" fill="#FFB900"/>
<path d="M64.6065 171.173C64.7255 170.325 65.1571 169.179 66.2138 169.268C70.1577 169.268 74.1016 169.268 78.0455 169.268C78.0455 171.545 76.9888 173.733 76.6614 175.906C75.9917 178.049 75.4857 180.251 74.9202 182.439C74.7674 183.272 74.3283 184.026 73.6788 184.569C73.0293 185.113 72.2101 185.412 71.3632 185.416C67.8806 185.416 64.3832 185.416 60.9453 185.416C62.0764 180.594 63.3563 175.891 64.6065 171.173Z" fill="#FFB900"/>
<path d="M13.4242 133.282C13.573 132.746 13.8707 132.062 14.5553 132.225C29.6264 132.225 44.6976 132.225 59.7688 132.225C62.7454 132.305 65.7219 132.305 68.6984 132.225C68.114 133.332 67.3552 134.337 66.4511 135.202C64.5164 137.583 62.4775 139.86 60.6469 142.316C59.6051 143.417 58.8461 145.292 57.1197 145.292C47.5799 145.292 38.055 145.292 28.5152 145.292C25.8363 145.292 23.5444 148.849 25.241 151.156C25.881 152.079 27.1609 152.094 28.2175 152.123C39.7764 152.123 51.3403 152.123 62.9091 152.123C60.2748 155.636 57.2834 158.865 54.5748 162.318C53.8778 163.37 53.013 164.3 52.0149 165.071C45.1094 165.205 38.1889 165.071 31.2834 165.071C27.6818 165.071 24.0802 165.161 20.4934 165.071C19.407 167.601 19.1689 170.384 18.261 172.989C17.5615 175.013 17.2639 177.141 16.5644 179.15C15.8649 181.159 15.731 183.243 14.8827 185.103C9.94163 185.103 5.00058 185.103 0 185.103C0 183.094 0.99713 181.323 1.33943 179.388C1.68173 177.454 2.32169 175.772 2.8277 173.971C3.52719 170.563 4.67317 167.289 5.40242 163.881C6.42932 161.053 6.72697 158.032 7.72411 155.204C8.45336 152.034 9.4207 148.938 10.1053 145.768C11.2066 141.75 12.3973 137.538 13.4242 133.282Z" fill="black"/>
<path d="M108.048 132.314C121.219 132.166 134.376 132.389 147.532 132.314C148.275 132.275 149.018 132.39 149.714 132.653C150.41 132.915 151.044 133.32 151.576 133.84C152.107 134.361 152.525 134.986 152.803 135.676C153.08 136.367 153.211 137.107 153.187 137.851C153.241 138.857 153.115 139.865 152.815 140.827C152.116 142.807 151.773 144.905 151.208 146.929C149.913 150.769 149.124 154.743 147.934 158.597C147.341 160.065 146.43 161.383 145.267 162.456C144.104 163.529 142.717 164.331 141.207 164.803C138.885 165.741 136.355 165.443 133.914 165.473C132.084 165.473 130.253 165.473 128.422 165.473C129.15 167.048 129.996 168.565 130.952 170.012C133.929 175.147 136.995 180.177 140.031 185.252C134.926 185.252 129.821 185.252 124.732 185.252C124.3 185.252 123.779 185.252 123.496 184.91C122.807 183.969 122.195 182.973 121.666 181.933C118.525 176.575 115.251 171.307 112.185 165.905C111.977 165.622 111.813 165.131 111.382 165.19C104.625 165.19 97.8832 165.19 91.1264 165.19C91.1116 164.227 91.4566 163.293 92.0938 162.571C94.9513 159.103 97.7492 155.561 100.711 152.153C110.772 152.153 120.817 152.153 130.878 152.153C131.846 152.163 132.796 151.885 133.607 151.355C134.417 150.826 135.053 150.067 135.432 149.176C135.552 148.367 135.552 147.545 135.432 146.736C135.149 146.232 134.733 145.815 134.229 145.532C133.725 145.248 133.153 145.109 132.575 145.128H115.534C113.961 145.29 112.375 145.29 110.801 145.128C106.337 145.054 101.753 145.128 97.2283 145.128C97.2794 144.16 97.6046 143.226 98.166 142.435C99.5054 140.738 100.904 139.086 102.333 137.449C103.762 135.812 104.789 134.264 106.173 132.805C106.432 132.593 106.733 132.44 107.057 132.355C107.38 132.27 107.719 132.256 108.048 132.314Z" fill="black"/>
<path d="M161.908 132.27C180.124 132.359 198.341 132.27 216.557 132.27C215.704 133.679 214.707 134.996 213.58 136.199C211.184 139.175 208.595 142.152 206.228 145.128C203.892 145.128 201.555 145.515 199.219 145.396C192.194 144.95 185.154 145.277 178.13 145.158C177.248 145.081 176.36 145.204 175.533 145.518C174.706 145.832 173.96 146.33 173.352 146.974C172.963 147.504 172.696 148.114 172.57 148.76C172.444 149.406 172.462 150.071 172.623 150.709C172.995 152.034 174.558 152.287 175.734 152.287H200.216C198.727 154.415 196.793 156.231 195.23 158.24C193.667 160.249 192.134 161.961 190.661 163.88C190.14 164.491 189.649 165.369 188.697 165.22H171.328C170.293 165.296 169.313 165.715 168.542 166.41C167.772 167.106 167.254 168.038 167.072 169.06C167.037 169.457 167.085 169.857 167.214 170.235C167.342 170.612 167.548 170.958 167.819 171.251C168.089 171.544 168.418 171.777 168.784 171.936C169.15 172.094 169.546 172.174 169.944 172.17C182.074 172.245 194.203 172.17 206.318 172.17C206.238 173.575 205.947 174.96 205.454 176.278C204.8 178.227 204.591 180.281 203.966 182.231C203.629 183.203 203.361 184.198 203.163 185.207C184.648 185.207 166.12 185.207 147.605 185.207C148.417 182.925 149.083 180.594 149.6 178.227C150.344 175.98 150.746 173.629 151.52 171.381C152.294 169.134 152.413 167.095 153.172 165.026C153.931 162.958 154.079 160.562 154.898 158.419C155.717 156.275 155.746 154.177 156.505 152.138C157.264 150.099 157.383 148.358 157.994 146.497C158.535 144.807 158.982 143.088 159.333 141.348C159.616 139.696 160.345 138.178 160.672 136.541C160.87 135.064 161.287 133.624 161.908 132.27Z" fill="black"/>
</g>
<defs>
<clipPath id="clip0_180_326">
<rect width="250" height="250" fill="white"/>
</clipPath>
</defs>
</svg>
