<svg width="250" height="250" viewBox="0 0 250 250" fill="none" xmlns="http://www.w3.org/2000/svg">
<g clip-path="url(#clip0_183_409)">
<path d="M100.332 220.137C100.136 220.137 99.9412 220.137 99.7263 220.117C99.3357 220.098 98.9841 220.059 98.6326 220C51.8162 219.609 24.9998 199.629 24.9998 165C24.9998 122.383 53.1052 99.5704 110.801 95.6251C103.906 92.5196 96.2107 89.9219 89.6287 90.0001C80.449 90.0001 69.4334 94.961 60.5662 98.9649L58.7302 99.8047C47.1677 105 35.2927 105.332 25.156 105C20.9373 104.863 12.9685 102.617 7.42164 99.2774C5.66383 98.2227 4.72633 96.211 5.05836 94.1797C5.39039 92.168 6.93336 90.5469 8.94508 90.1172C26.5427 86.3282 32.6951 78.8477 41.2107 68.4961C49.3748 58.5938 59.5115 46.2696 82.8904 35.4688C85.1365 34.4532 87.7537 35.1758 89.1404 37.2071C90.5076 39.2383 90.2146 41.9532 88.4177 43.6524C85.8201 46.1133 83.3201 48.7696 81.074 51.3868C105.801 40.1954 125.625 36.0547 144.922 32.0313C147.929 31.4063 150.918 30.7618 153.926 30.1172C156.445 29.5704 158.965 31.0352 159.746 33.4961C160.527 35.9376 159.316 38.5938 156.953 39.6094C139.277 47.1094 125.664 53.7696 112.558 61.504C119.804 60.6641 127.754 60.0001 135 60.0001C154.746 60.0001 167.969 69.5704 179.609 78.0079C188.496 84.4532 196.172 90.0001 205 90.0001C212.656 90.0001 227.91 84.1602 234.433 81.6602C239.16 79.8633 240.566 79.3165 242.832 80.879C244.179 81.7969 245 83.3594 245 85.0001C245 86.2305 244.551 87.4219 243.73 88.3399L242.578 89.6485C235.957 97.2266 220.488 115 185 115C176.933 115 163.008 111.816 150.722 109.023C142.148 107.051 133.261 105.039 129.98 105C129.844 105 129.707 105 129.551 105C122.383 105.078 95.4099 108.477 78.8279 124.922C69.6482 134.023 64.9998 145.82 64.9998 160C64.9998 204.023 96.8748 209.531 100.312 210C144.844 209.883 150 181.426 150 160C150 152.852 146.972 145.723 141.894 140.918C137.597 136.856 135.644 135 125 135C124.804 135 105 135.41 105 150C105 151.348 105.918 152.383 108.144 154.609C111.035 157.461 115 161.387 115 168.262C115 177.813 107.265 185 97.0115 185C86.3474 185 75.0193 176.641 75.0193 161.152C75.0193 156.543 75.9373 151.758 77.5584 148.008C79.8826 142.617 90.1951 125 125 125C150.254 125 161.601 129.141 169.902 132.168C173.164 133.359 175.742 134.297 178.398 134.648C188.261 135.898 198.906 133.906 208.301 132.168C214.531 130.996 219.902 130 224.492 130C226.855 130 228.906 131.66 229.394 133.984C229.863 136.309 228.652 138.633 226.484 139.59C221.855 141.582 217.676 147.07 213.242 152.891C206.484 161.777 198.203 172.617 184.609 174.668C183.242 183.32 178.359 191.699 173.437 198.106C175.371 197.598 177.226 197.051 179.004 196.523C180.644 196.016 182.226 195.566 183.73 195.156C186.035 194.551 188.476 195.684 189.511 197.852C190.547 200.02 189.883 202.617 187.949 204.043C179.863 209.941 157.969 219.785 101.875 220C101.426 220.098 100.918 220.137 100.332 220.137Z" fill="black"/>
</g>
<defs>
<clipPath id="clip0_183_409">
<rect width="250" height="250" fill="white"/>
</clipPath>
</defs>
</svg>
