<svg width="250" height="250" viewBox="0 0 250 250" fill="none" xmlns="http://www.w3.org/2000/svg">
<path d="M75.3113 43.7709C86.2688 37.8644 97.6712 33.7821 109.775 32.0931C127.614 29.6039 145.058 31.2983 161.974 37.8728C175.597 43.1678 187.543 50.9608 197.62 61.4786C210.904 75.3443 219.535 91.6511 223.178 110.649C224.864 119.444 225.421 128.283 224.676 137.061C223.259 153.778 217.82 169.262 208.246 183.166C199.972 195.181 189.621 204.996 177.043 212.417C174.433 213.957 171.769 215.426 169.043 216.75C156.986 222.605 140.362 216.859 137.77 200.965C136.35 192.263 139.22 183.65 148.243 178.894C159.171 173.132 168.293 165.575 174.293 154.624C177.46 148.844 179.419 142.677 180.387 136.115C182.114 124.413 179.953 113.452 174.364 103.193C167.099 89.8559 155.89 81.1623 141.524 76.5074C134.923 74.3686 128.07 73.5439 121.182 74.1449C109.562 75.1588 99.0401 79.0691 89.8384 86.4963C79.851 94.5575 73.1456 104.675 70.4747 117.174C67.9191 129.133 69.0122 140.802 74.4995 151.985C80.525 164.265 89.9143 172.798 102.038 178.908C110.948 183.398 114.938 194.598 111.595 204.442C107.28 217.146 91.7016 222.284 80.2033 216.382C69.1804 210.725 59.2591 203.746 50.9328 194.662C38.3034 180.883 29.928 164.822 26.7529 146.307C25.7298 140.34 24.8749 134.224 25.0151 128.202C25.4365 110.105 30.0249 93.1439 39.8749 77.7084C48.5841 64.0605 59.78 53.1042 73.7368 44.9353C74.2373 44.6424 74.6433 44.1879 75.3113 43.7709Z" fill="#00AA13"/>
<path d="M90.0925 132.351C88.7594 126.783 90.173 121.714 92.0032 116.912C96.8243 104.263 106.166 97.0148 119.536 94.7885C132.02 92.7096 142.62 96.5579 151.239 105.37C156.43 110.679 159.311 117.417 160.212 125.001C162.178 141.563 152.101 155.254 139.146 160.767C125.954 166.381 110.013 163.675 99.4637 152.642C94.0309 146.96 90.8796 140.391 90.0925 132.351Z" fill="#00AA13"/>
</svg>
