<svg width="250" height="250" viewBox="0 0 250 250" fill="none" xmlns="http://www.w3.org/2000/svg">
<ellipse cx="122.585" cy="124.719" rx="83.1527" ry="83.3151" fill="white"/>
<path d="M25 118.083C25.16 116.77 25.3776 115.575 25.4703 114.369C25.8934 108.867 26.9672 103.476 28.4147 98.1715C31.2883 87.6405 35.7342 77.8082 41.7992 68.7174C46.5703 61.5659 52.1327 55.0965 58.537 49.3774C65.9838 42.7274 74.2491 37.2943 83.327 33.1229C90.5503 29.8037 98.0376 27.2814 105.875 25.9102C109.371 25.2986 112.899 24.8025 116.432 24.4855C120.001 24.1654 123.602 23.9078 127.175 24.0317C131.323 24.1756 135.463 24.698 139.593 25.1752C146.485 25.9716 153.119 27.8402 159.614 30.2325C168.61 33.5459 177.002 38.0219 184.564 43.9017C188.815 47.2079 192.919 50.7731 196.695 54.6104C204.541 62.5843 210.745 71.7461 215.492 81.9151C218.765 88.9271 221.192 96.2036 222.822 103.742C223.53 107.019 223.998 110.367 224.3 113.708C224.695 118.074 225.1 122.473 224.978 126.844C224.844 131.635 224.245 136.428 223.614 141.189C222.59 148.927 220.309 156.337 217.369 163.556C214.343 170.987 210.434 177.919 205.739 184.409C202.123 189.407 198.067 194.028 193.591 198.271C187.526 204.021 180.857 208.95 173.565 213.039C167.309 216.547 160.76 219.353 153.893 221.423C148.832 222.948 143.69 224.043 138.45 224.78C132.584 225.605 126.695 225.935 120.799 225.666C112.574 225.292 104.48 223.98 96.5692 221.612C86.7497 218.673 77.5991 214.336 69.1143 208.587C63.0707 204.492 57.5092 199.813 52.5047 194.501C44.842 186.368 38.6431 177.217 34.0082 167.041C30.7945 159.985 28.2763 152.676 26.9484 145.018C26.1919 140.656 25.7359 136.241 25.0723 131.779C25 127.204 25 122.7 25 118.083ZM114.918 99.6805C108.579 99.6801 102.239 99.6914 95.9 99.6731C93.5302 99.6662 91.7642 98.0184 91.6559 95.7953C91.5403 93.4234 93.047 91.6218 95.428 91.3166C95.9027 91.2557 96.3889 91.2733 96.8698 91.2732C117.333 91.2714 137.796 91.2716 158.26 91.2716C158.728 91.2716 159.197 91.2716 159.972 91.2716C159.475 89.1256 159.249 87.1051 158.54 85.2714C155.893 78.4262 151.06 73.9863 143.746 72.5691C141.492 72.1323 139.191 71.9254 136.903 71.6849C133.55 71.3323 130.191 71.0206 126.831 70.7383C125.124 70.595 123.408 70.4654 121.698 70.4832C115.98 70.5428 110.259 70.5923 104.545 70.808C101.744 70.9138 98.9521 71.3443 96.1637 71.6891C93.7294 71.9902 91.262 72.1955 88.8872 72.7674C85.0356 73.6949 81.5512 75.4736 78.4552 77.9954C73.5705 81.974 70.458 87.1169 69.1384 93.1863C68.2107 97.4533 67.842 101.853 67.4017 106.212C67.0206 109.983 66.6878 113.78 66.6925 117.565C66.7016 124.729 66.8272 131.899 67.1772 139.053C67.4103 143.817 67.9474 148.582 68.6451 153.303C70.1559 163.527 75.7232 170.835 85.0481 175.236C88.326 176.784 91.8346 177.461 95.4461 177.748C99.4423 178.066 103.421 178.607 107.417 178.92C110.835 179.187 114.267 179.402 117.692 179.405C125.344 179.411 132.997 179.281 140.649 179.181C142.123 179.162 143.599 179.063 145.069 178.933C148.428 178.636 151.786 178.314 155.14 177.967C157.316 177.742 159.541 177.684 161.647 177.158C171.221 174.765 177.433 168.753 179.99 159.208C180.817 156.12 181.098 152.876 181.504 149.688C181.971 146.018 182.329 142.333 182.675 138.65C182.835 136.944 182.915 135.225 182.923 133.512C182.946 128.76 183.442 123.935 182.793 119.272C181.229 108.033 171.61 99.7351 159.937 99.6864C145.012 99.6241 130.085 99.6772 114.918 99.6805Z" fill="#00AED6"/>
<path d="M158.758 143.744C155.799 143.757 154.038 141.989 154.036 139.113C154.036 138.631 154.014 138.148 154.041 137.668C154.103 136.567 153.885 135.653 153.157 134.696C151.569 132.607 151.462 130.269 152.855 127.993C154.267 125.686 156.392 124.631 159.065 124.971C161.636 125.298 163.465 126.766 164.18 129.27C164.816 131.494 164.46 133.622 162.852 135.453C162.509 135.843 162.316 136.446 162.249 136.976C162.149 137.766 162.217 138.578 162.224 139.381C162.246 141.901 161.365 143.044 158.758 143.744Z" fill="#02AED6"/>
</svg>
