<svg width="250" height="250" viewBox="0 0 250 250" fill="none" xmlns="http://www.w3.org/2000/svg">
<path d="M118.401 120.402L25.8291 217.388C26.8686 221.072 28.7366 224.47 31.2904 227.322C33.8443 230.173 37.0163 232.403 40.564 233.841C44.1117 235.278 47.9412 235.886 51.7597 235.617C55.5782 235.348 59.2846 234.209 62.5956 232.288L166.756 172.965L118.401 120.402Z" fill="#EA4335"/>
<path d="M212.009 103.915L166.965 78.116L116.265 122.608L167.172 172.826L211.871 147.303C215.831 145.23 219.148 142.112 221.463 138.288C223.777 134.464 225.001 130.079 225.001 125.609C225.001 121.139 223.777 116.754 221.463 112.93C219.148 109.106 215.831 105.988 211.871 103.915H212.009Z" fill="#FBBC04"/>
<path d="M25.828 33.348C25.2685 35.4167 24.99 37.5512 25.0003 39.6942V211.041C25.0059 213.183 25.284 215.316 25.828 217.387L121.573 122.884L25.828 33.348Z" fill="#4285F4"/>
<path d="M119.09 125.368L166.963 78.1167L62.9405 18.5178C59.0271 16.2259 54.5763 15.012 50.0412 14.9998C44.564 14.989 39.2335 16.7693 34.8623 20.0696C30.491 23.3698 27.3188 28.0089 25.8291 33.2796L119.09 125.368Z" fill="#34A853"/>
</svg>
