<svg width="250" height="250" viewBox="0 0 250 250" fill="none" xmlns="http://www.w3.org/2000/svg">
<g clip-path="url(#clip0_188_317)">
<path d="M37.5785 168.888C27.4584 167.986 18.6013 163.968 11.8729 157.226C5.519 150.86 1.62026 142.779 0.295301 133.23C-0.0303217 130.884 -0.102866 125.371 0.159304 122.895C1.01006 114.863 3.92774 107.685 8.85567 101.502C10.1837 99.8356 12.9433 97.0103 14.5321 95.6901C22.9543 88.6922 33.5852 85.2832 45.0921 85.8903C50.521 86.1767 54.2482 86.8448 58.4193 88.2792C61.3141 89.2747 65.4745 91.3807 66.7579 92.5003L67.0821 92.7831L67.0454 95.9475L67.0086 99.1119L65.6352 98.2646C59.3346 94.3777 51.3424 92.3205 42.5626 92.3257C35.1212 92.3301 28.2531 94.3284 22.4056 98.1906C16.389 102.164 11.8557 107.774 9.20184 114.529C5.60911 123.675 6.16501 134.849 10.6614 143.87C15.7872 154.153 25.2304 160.77 36.9462 162.286C40.3936 162.732 45.4776 162.529 49.0889 161.801C60.906 159.418 68.3213 151.317 69.9008 139.065C70.0656 137.786 70.1239 136.246 70.1342 132.903L70.1479 128.445L56.1849 128.411L42.2219 128.378V125.232V122.086H59.2914H76.3609L76.3597 127.757C76.3584 134.151 76.2192 137.497 75.8431 140.173C74.7075 148.255 71.705 154.688 66.7514 159.653C61.7311 164.685 55.3063 167.638 47.0615 168.7C45.1373 168.948 39.5065 169.06 37.5785 168.888Z" fill="#00B14F"/>
<path d="M196.828 93.7825V80H200.033H203.237V91.6488V103.298L202.683 103.547C201.538 104.062 199.914 105.173 196.992 107.438C196.861 107.54 196.828 104.789 196.828 93.7825Z" fill="#00B14F"/>
<path d="M187.149 98.7748V80H190.354H193.559V95.0265V110.053L192.557 111.12C191.531 112.213 189.687 114.386 188.202 116.252C187.742 116.829 187.318 117.357 187.258 117.425C187.198 117.494 187.149 109.101 187.149 98.7748Z" fill="#00B14F"/>
<path d="M39.2789 159.111C31.2305 158.476 24.4532 155.362 19.1177 149.848C17.5507 148.228 16.6474 147.103 15.443 145.271C10.9801 138.484 9.24461 129.619 10.765 121.376C12.7142 110.807 19.9908 102.034 30.1827 97.9641C32.7744 96.9292 35.9723 96.1658 39.0111 95.8567C40.9829 95.6561 46.2784 95.7684 48.3695 96.055C55.1024 96.978 61.113 99.063 65.9289 102.146L67.0728 102.879L67.0735 105.988C67.074 108.821 67.0537 109.108 66.844 109.22C66.6639 109.317 66.2585 109.118 64.9801 108.306C59.9356 105.101 54.5653 103.229 48.2387 102.469C45.8278 102.18 40.6189 102.143 38.8211 102.402C27.2603 104.069 19.0249 112.405 17.5607 123.922C17.1622 127.056 17.4333 131.477 18.212 134.541C19.9512 141.386 24.1539 146.951 29.7805 149.861C33.5985 151.836 36.9556 152.634 41.4371 152.634C47.712 152.634 52.759 150.846 56.2208 147.396C58.4648 145.159 59.7759 142.447 60.0743 139.425L60.1682 138.475H51.195H42.2219V135.131V131.788H54.5172H66.8125V134.462C66.8125 138.586 66.4838 141.037 65.5594 143.807C63.6862 149.419 59.7139 153.874 54.2556 156.485C50.7056 158.183 46.9274 159.009 42.2412 159.112C40.9716 159.139 39.6386 159.139 39.2789 159.11V159.111Z" fill="#00B14F"/>
<path d="M217.324 159.182C212.239 158.73 207.762 156.481 203.941 152.46C201.201 149.578 199.259 146.138 198.414 142.67C197.925 140.661 197.771 141.053 200.564 137.194C201.927 135.311 203.08 133.766 203.127 133.762C203.174 133.758 203.251 134.389 203.298 135.164C203.416 137.126 203.592 138.327 203.985 139.851C205.73 146.622 210.636 151.514 216.754 152.586C218.378 152.871 221.169 152.767 222.727 152.364C228.361 150.909 232.108 146.641 233.538 140.048C233.883 138.456 233.885 133.779 233.542 132.212C232.841 129.016 231.474 126.32 229.496 124.233C226.671 121.251 222.964 119.726 218.542 119.726C212.866 119.726 208.738 122.034 203.293 128.25C197.969 134.328 189.128 145.592 184.682 151.959L183.095 154.233V148.943V143.654L185.355 140.572C186.599 138.878 188.777 135.987 190.197 134.148C191.616 132.309 193.586 129.743 194.574 128.446C199.113 122.483 202.042 119.492 205.762 117.017C213.438 111.912 223.538 111.784 230.863 116.698C238.338 121.712 241.93 131.519 239.926 141.442C238.309 149.446 233.195 155.622 226.12 158.115C224.589 158.654 222.83 159.018 220.961 159.181C219.237 159.332 219.008 159.332 217.324 159.182L217.324 159.182Z" fill="#00B14F"/>
<path d="M163.736 150.652C163.736 136.392 163.708 133.928 163.533 132.747C162.893 128.426 160.902 124.825 157.907 122.572C155.965 121.111 153.786 120.203 151.199 119.776C149.345 119.471 146.577 119.59 144.835 120.051C139.019 121.59 134.837 126.338 133.575 132.837C133.214 134.691 133.245 138.19 133.639 140.048C134.933 146.165 138.804 150.582 144.246 152.152C149.037 153.535 155.639 152.499 159.716 149.726L160.47 149.213L160.435 152.592L160.4 155.972L159.092 156.657C155.783 158.392 150.596 159.499 146.928 159.253C139.905 158.783 134.254 155.587 130.493 149.961C126.49 143.971 125.466 135.278 127.901 127.946C131.118 118.26 140.138 112.344 150.427 113.172C156.005 113.621 160.195 115.497 163.871 119.192C167.27 122.608 169.092 126.296 169.967 131.526C170.176 132.78 170.201 134.426 170.242 150.045L170.287 167.188H167.012H163.736V150.652Z" fill="#00B14F"/>
<path d="M90.3584 150.242C90.3604 132.862 90.4152 130.532 90.876 128.266C92.0596 122.444 95.5049 117.814 100.542 115.276C101.734 114.675 104.212 113.882 105.66 113.638C110.026 112.902 114.564 113.567 117.787 115.415L118.468 115.806L117.928 116.684C117.632 117.168 116.983 118.404 116.486 119.431C115.989 120.459 115.572 121.299 115.559 121.299C115.546 121.299 114.976 121.099 114.293 120.855C111.369 119.809 108.696 119.64 105.964 120.327C103.405 120.97 101.075 122.485 99.5656 124.485C98.7237 125.602 97.7503 127.66 97.3213 129.232L96.9633 130.543L96.9264 148.865L96.8895 167.188H93.623H90.3564L90.3584 150.242Z" fill="#00B14F"/>
<path d="M80.8087 149.127C80.8088 131.079 80.8398 129.62 81.2798 126.937C82.6358 118.668 86.9531 111.921 93.3969 108C99.5224 104.272 107.649 102.997 115.471 104.535C118.257 105.083 121.72 106.434 123.854 107.805L124.717 108.359L123.187 109.88C122.345 110.716 121.391 111.715 121.066 112.1L120.476 112.799L119.706 112.41C117.136 111.11 112.788 110.155 109.442 110.155C98.9195 110.155 90.7129 116.279 88.1421 126.049C87.2589 129.405 87.2998 128.364 87.2514 148.734L87.2076 167.188H84.0081H80.8086L80.8087 149.127Z" fill="#00B14F"/>
<path d="M216.318 168.942C206.5 168.045 198.366 163.321 193.368 155.613C192.579 154.397 191.208 151.632 190.938 150.712L190.777 150.166L193.051 147.066L195.325 143.966L195.44 144.4C196.911 149.941 200.138 154.655 204.687 157.908C206.102 158.919 208.672 160.288 210.375 160.936C214.649 162.563 219.386 162.955 224 162.063C227.001 161.482 230.565 159.953 233.061 158.176C234.595 157.082 237.441 154.251 238.477 152.788C241.009 149.208 242.675 144.954 243.346 140.356C243.654 138.249 243.656 133.998 243.352 131.912C242.288 124.632 238.982 118.775 233.649 114.721C229.161 111.309 222.838 109.539 216.807 110.006C207.674 110.712 201.381 114.875 192.328 126.201C191.399 127.363 188.963 130.556 186.914 133.296C184.865 136.036 183.168 138.303 183.142 138.333C183.116 138.363 183.095 136.237 183.095 133.61V128.832L185.288 125.754C189.937 119.229 191.949 116.736 195.124 113.564C198.431 110.26 201.077 108.303 204.611 106.548C207.581 105.072 210.436 104.185 213.964 103.642C216.08 103.315 221.265 103.315 223.381 103.642C230.592 104.753 236.329 107.682 241.17 112.724C245.911 117.661 248.75 123.787 249.823 131.395C250.059 133.066 250.06 139.157 249.825 140.835C249.061 146.276 247.301 151.157 244.648 155.191C239.724 162.678 232.551 167.305 223.709 168.697C222.444 168.897 217.582 169.057 216.318 168.942H216.318Z" fill="#00B14F"/>
<path d="M145.293 168.873C131.118 167.572 120.176 157.585 117.445 143.457C116.927 140.781 116.844 139.777 116.844 136.246C116.844 131.921 117.135 129.688 118.159 126.148C120.84 116.881 127.65 109.2 136.333 105.651C140.481 103.955 144.081 103.273 148.825 103.284C153.425 103.295 156.814 103.893 160.662 105.372C164.769 106.95 168.086 109.142 171.202 112.338C175.734 116.986 178.432 122.581 179.599 129.747C179.873 131.426 179.879 131.82 179.922 149.324L179.966 167.188H176.69H173.415L173.414 150.766C173.412 140.571 173.361 133.748 173.277 132.771C172.72 126.289 170.084 120.574 165.76 116.473C160.909 111.871 153.802 109.443 146.83 110.006C134.851 110.973 125.948 119.206 123.843 131.264C123.255 134.629 123.358 139.117 124.108 142.838C124.649 145.522 126.018 149.056 127.368 151.255C130.191 155.851 134.347 159.207 139.449 161.01C143.82 162.555 148.824 162.946 153.084 162.075C155.518 161.578 158.415 160.46 159.868 159.459L160.466 159.046V162.302V165.558L159.714 166.055C157.573 167.471 154.425 168.507 151.114 168.886C149.746 169.043 147.075 169.037 145.293 168.873Z" fill="#00B14F"/>
</g>
<defs>
<clipPath id="clip0_188_317">
<rect width="250" height="89" fill="white" transform="translate(0 80)"/>
</clipPath>
</defs>
</svg>
