<svg width="250" height="250" viewBox="0 0 250 250" fill="none" xmlns="http://www.w3.org/2000/svg">
<path d="M185.472 64.273C200.896 79.7201 209.824 100.484 210.426 122.304C220.221 111.144 225.419 96.6857 224.974 81.8439C224.528 67.0021 218.471 52.8813 208.025 42.3292C197.588 31.7852 183.531 25.6051 168.706 25.0421C153.881 24.4791 139.396 29.5753 128.189 39.2974C149.755 40.0676 170.222 48.9879 185.472 64.273Z" fill="#FFCB05"/>
<path d="M64.3111 185.594C49.062 170.312 40.1617 149.825 39.3984 128.249C29.6346 139.474 24.5013 153.989 25.0382 168.857C25.5752 183.724 31.7421 197.831 42.2902 208.322C52.8284 218.803 66.9646 224.874 81.8211 225.299C96.6776 225.725 111.138 220.472 122.259 210.612C100.455 209.996 79.7104 201.042 64.3111 185.594Z" fill="#32BCAD"/>
<path d="M42.2181 125.112C41.1958 126.142 40.3276 127.241 39.3193 128.34C41.0698 173.327 77.2694 209.282 122.2 210.668C123.167 209.814 124.091 208.995 125.064 208.063C132.334 200.776 137.561 191.705 140.22 181.761C142.879 171.817 142.878 161.348 140.216 151.404C137.56 141.463 132.333 132.396 125.062 125.115C117.791 117.834 108.731 112.595 98.7932 109.925C88.8596 107.262 78.3995 107.264 68.4671 109.932C58.5347 112.599 49.4809 117.831 42.2181 125.112Z" fill="#C6168D"/>
<path d="M53.6122 172.501C52.947 171.521 52.3799 170.47 51.7217 169.448C52.3799 170.47 52.947 171.514 53.6122 172.501ZM58.5905 179.258C57.9674 178.481 57.4212 177.661 56.833 176.884C57.4212 177.661 57.9674 178.474 58.5905 179.258ZM104.033 208.063C102.534 207.685 101.022 207.328 99.5444 206.852C101.015 207.328 102.534 207.692 104.026 208.063H104.033ZM120.004 210.493C118.414 210.493 116.825 210.304 115.229 210.136C116.825 210.304 118.414 210.402 120.004 210.493ZM88.3625 202.448C87.0951 201.839 85.8068 201.293 84.5744 200.557C85.8068 201.293 87.0951 201.839 88.3554 202.448H88.3625ZM80.7444 198.366C79.6452 197.708 78.5248 197.098 77.4676 196.475C78.5248 197.098 79.6802 197.687 80.7444 198.366ZM73.2035 193.247C72.3632 192.596 71.5229 192.029 70.7037 191.35C71.5159 191.994 72.3702 192.603 73.2035 193.247Z" fill="#ED1C24"/>
<path d="M125.158 125.112C130.594 130.559 137.051 134.881 144.159 137.829C151.267 140.777 158.886 142.295 166.582 142.295C174.277 142.295 181.896 140.777 189.004 137.829C196.112 134.881 202.569 130.559 208.005 125.112C208.894 124.202 209.762 123.222 210.595 122.326C209.244 77.2337 173.24 40.908 128.232 39.2206C127.141 40.156 126.085 41.1323 125.067 42.1474C114.095 53.172 107.943 68.0981 107.96 83.6522C107.977 99.2064 114.162 114.112 125.158 125.112Z" fill="#EC008C"/>
<path d="M125.157 42.0703C126.165 41.0621 127.188 40.1728 128.231 39.2206C116.437 38.7313 104.67 40.6981 93.676 44.9963C82.6822 49.2945 72.7014 55.8303 64.3668 64.1892C56.024 72.5559 49.5065 82.5615 45.2258 93.5742C40.945 104.587 38.9941 116.368 39.4961 128.172C40.4064 127.108 41.3866 126.044 42.3179 125.042C47.7526 119.595 54.2086 115.273 61.316 112.324C68.4234 109.375 76.0426 107.857 83.7374 107.857C91.4323 107.857 99.0516 109.375 106.159 112.324C113.266 115.273 119.722 119.595 125.157 125.042C114.173 114.03 108.004 99.1106 108.004 83.5564C108.004 68.0022 114.173 53.0829 125.157 42.0703ZM210.426 122.382C209.613 123.313 208.78 124.279 207.905 125.112C202.469 130.558 196.013 134.879 188.906 137.826C181.799 140.774 174.18 142.292 166.486 142.292C158.791 142.292 151.172 140.774 144.065 137.826C136.958 134.879 130.502 130.558 125.066 125.112C136.049 136.121 142.217 151.037 142.217 166.588C142.217 182.139 136.049 197.055 125.066 208.064C124.177 208.974 123.175 209.772 122.265 210.612C145.861 211.396 168.73 202.35 185.436 185.637C193.704 177.361 200.189 167.479 204.488 156.599C208.787 145.719 210.811 134.074 210.433 122.382H210.426Z" fill="#ED1C24"/>
</svg>
