<svg width="250" height="250" viewBox="0 0 250 250" fill="none" xmlns="http://www.w3.org/2000/svg">
<g clip-path="url(#clip0_180_170)">
<path d="M25.0088 47.3752C25.0088 48.7365 24.9877 50.0989 25.0109 51.4591C25.5143 80.2152 25.9321 108.971 26.6086 137.723C26.7405 143.342 27.9456 148.843 30.8666 153.936C33.9163 159.256 38.3073 163.322 42.5505 167.502C54.3157 179.096 66.1832 190.591 78.2059 201.917C84.5016 207.85 91.1615 213.401 97.7474 219.018C101.35 222.091 105.762 223.914 110.259 224.86C114.545 225.76 119.074 225.662 123.5 225.72C141.161 225.951 158.821 226.107 176.483 226.222C187.202 226.291 197.923 226.235 209.174 226.235C207.9 224.995 206.754 223.921 205.653 222.8C199.426 216.471 193.191 210.15 186.994 203.792C180.063 196.683 173.179 189.526 166.248 182.418C164.962 181.098 164.398 179.682 164.384 177.768C164.218 155.633 163.956 133.498 163.71 111.361C163.702 110.632 163.594 109.904 163.485 108.616C162.518 109.474 161.953 109.952 161.413 110.456C150.1 121.048 138.784 131.638 127.486 142.248C126.572 143.105 125.739 143.316 124.764 142.412C124.125 141.819 123.43 141.284 122.809 140.675C113.166 131.218 103.538 121.748 93.8893 112.298C91.8759 110.326 89.7959 108.421 87.7466 106.486L86.9594 106.84C86.9646 133.51 88.0874 160.177 88.1223 186.897C87.2876 186.606 86.7842 186.286 86.3642 185.88C83.4232 183.031 80.4768 180.187 77.5749 177.298C71.3973 171.147 65.224 164.992 59.1203 158.771C58.4661 158.102 57.969 156.986 57.9353 156.057C57.7527 151.1 57.7379 146.139 57.6693 141.178C57.3855 120.442 57.0805 99.706 56.8599 78.9678C56.842 77.2446 56.3397 76.0236 55.1103 74.8618C46.3146 66.541 37.5644 58.1706 28.794 49.8213C27.7683 48.8452 26.7057 47.907 25.6599 46.9531C25.4425 47.0934 25.2262 47.2338 25.0088 47.3752Z" fill="url(#paint0_linear_180_170)"/>
<path d="M135.099 24.0014C106.64 24.1776 78.1817 24.1037 49.7221 24.1417C49.0837 24.1428 48.4453 24.2926 47.2676 24.4404C72.7491 50.954 98.9652 75.9702 124.937 101.085C138.07 88.1216 151.036 75.3233 164.049 62.4786C164.683 62.7614 164.977 62.8078 165.147 62.9788C174.186 72.0467 183.228 81.1114 192.212 90.2332C192.82 90.8505 193.216 91.891 193.297 92.7721C193.526 95.2826 193.605 97.8121 193.629 100.335C193.843 122.558 194.045 144.782 194.207 167.005C194.22 168.722 194.534 170.083 196.263 170.839C196.808 171.075 197.288 171.51 197.724 171.932C204.898 178.865 212.047 185.825 219.235 192.743C220.997 194.437 222.88 196.005 224.997 197.89C224.997 196.672 225.004 195.58 224.996 194.487C224.863 177.578 224.765 160.668 224.58 143.76C224.443 131.219 224.281 118.676 223.955 106.138C223.784 99.5713 220.804 94.0933 216.282 89.485C212.199 85.322 207.91 81.3605 203.758 77.2639C189.372 63.0737 175.011 48.8572 160.631 34.6596C153.62 27.7381 145.382 24.0003 135.35 24.0003C135.265 24.0003 135.183 24.0003 135.099 24.0014Z" fill="url(#paint1_linear_180_170)"/>
<path d="M27.3828 181.021C27.8007 195.787 28.2186 210.553 28.647 225.68C29.7012 225.862 30.7639 226.204 31.8287 226.207C43.6835 226.247 55.5395 226.237 67.3954 226.226C68.0856 226.226 68.7757 226.061 69.4658 226.072C70.6182 226.092 71.7695 226.188 72.9208 226.262C73.3619 226.291 73.7998 226.351 74.2388 226.397C74.3254 226.239 74.413 226.08 74.4995 225.921C59.0029 210.828 43.5073 195.735 28.0128 180.642C27.8018 180.767 27.5928 180.895 27.3828 181.021Z" fill="url(#paint2_linear_180_170)"/>
<path d="M179.096 24.1212C178.933 24.403 178.767 24.6847 178.604 24.9654C193.504 39.6621 208.405 54.3568 223.411 69.158C224.326 66.295 224.051 25.7611 223.222 24.1212H179.096Z" fill="url(#paint3_linear_180_170)"/>
</g>
<defs>
<linearGradient id="paint0_linear_180_170" x1="17.112" y1="217.576" x2="209.526" y2="62.1288" gradientUnits="userSpaceOnUse">
<stop stop-color="#BA9258"/>
<stop offset="0.987437" stop-color="#E4C482"/>
<stop offset="1" stop-color="#E4C482"/>
</linearGradient>
<linearGradient id="paint1_linear_180_170" x1="12.0977" y1="211.37" x2="204.511" y2="55.9224" gradientUnits="userSpaceOnUse">
<stop stop-color="#BA9258"/>
<stop offset="0.987437" stop-color="#E4C482"/>
<stop offset="1" stop-color="#E4C482"/>
</linearGradient>
<linearGradient id="paint2_linear_180_170" x1="23.642" y1="225.658" x2="216.056" y2="70.2107" gradientUnits="userSpaceOnUse">
<stop stop-color="#BA9258"/>
<stop offset="0.987437" stop-color="#E4C482"/>
<stop offset="1" stop-color="#E4C482"/>
</linearGradient>
<linearGradient id="paint3_linear_180_170" x1="6.26307" y1="204.169" x2="198.677" y2="48.7217" gradientUnits="userSpaceOnUse">
<stop stop-color="#BA9258"/>
<stop offset="0.987437" stop-color="#E4C482"/>
<stop offset="1" stop-color="#E4C482"/>
</linearGradient>
<clipPath id="clip0_180_170">
<rect width="250" height="250" fill="white"/>
</clipPath>
</defs>
</svg>
