<svg width="250" height="250" viewBox="0 0 250 250" fill="none" xmlns="http://www.w3.org/2000/svg">
<g clip-path="url(#clip0_187_53)">
<path fill-rule="evenodd" clip-rule="evenodd" d="M68.7984 151.78C61.1002 159.105 50.8473 163.129 40.227 162.993C29.5539 163.154 19.2412 159.13 11.4932 151.78C7.84767 148.241 4.94926 144.006 2.96994 139.325C0.990616 134.643 -0.0292969 129.612 -0.0292969 124.529C-0.0292969 119.446 0.990616 114.414 2.96994 109.733C4.94926 105.052 7.84767 100.816 11.4932 97.2775C19.2314 89.8844 29.5636 85.8337 40.2595 86C50.8797 85.864 61.1327 89.8877 68.8309 97.2125C72.4805 100.749 75.3825 104.984 77.3644 109.665C79.3463 114.347 80.3676 119.379 80.3676 124.464C80.3676 129.548 79.3463 134.581 77.3644 139.262C75.3825 143.944 72.4805 148.179 68.8309 151.715M40.2595 98.545C36.8695 98.5122 33.508 99.1673 30.3778 100.471C27.2477 101.774 24.4138 103.699 22.0471 106.128C19.6804 108.558 17.8301 111.443 16.6077 114.608C15.3853 117.773 14.8162 121.154 14.9348 124.545C14.9348 127.866 15.5881 131.153 16.8576 134.221C18.127 137.289 19.9876 140.076 22.3332 142.424C24.6788 144.772 27.4634 146.635 30.528 147.905C33.5927 149.176 36.8774 149.83 40.1945 149.83C43.5117 149.83 46.7964 149.176 49.861 147.905C52.9257 146.635 55.7103 144.772 58.0559 142.424C60.4014 140.076 62.2621 137.289 63.5315 134.221C64.8009 131.153 65.4543 127.866 65.4543 124.545C65.5723 121.165 65.0072 117.795 63.7928 114.639C62.5784 111.482 60.7396 108.603 58.3869 106.176C56.0341 103.748 53.2158 101.82 50.1009 100.509C46.9859 99.1979 43.6386 98.5298 40.2595 98.545ZM163.636 95.0675L132.759 164L131.006 163.675C122.175 162.083 120.389 159.873 116.266 150.903L93.1166 100.43H84.4153V88.1775H117.305V100.43H109.448L128.052 142.193L146.104 100.43H136.363V88.1775H163.636V95.0675ZM238.311 151.78C230.514 158.989 220.289 162.992 209.675 162.992C199.061 162.992 188.836 158.989 181.039 151.78C177.393 148.241 174.495 144.006 172.515 139.325C170.536 134.643 169.516 129.612 169.516 124.529C169.516 119.446 170.536 114.414 172.515 109.733C174.495 105.052 177.393 100.816 181.039 97.2775C188.836 90.069 199.061 86.0659 209.675 86.0659C220.289 86.0659 230.514 90.069 238.311 97.2775C241.969 100.809 244.878 105.043 246.865 109.725C248.853 114.407 249.877 119.442 249.877 124.529C249.877 129.616 248.853 134.651 246.865 139.333C244.878 144.015 241.969 148.248 238.311 151.78ZM209.902 98.545C206.511 98.5124 203.148 99.1673 200.016 100.47C196.884 101.773 194.048 103.697 191.679 106.127C189.31 108.556 187.456 111.44 186.23 114.606C185.004 117.771 184.431 121.152 184.545 124.545C184.545 127.866 185.199 131.153 186.468 134.221C187.737 137.289 189.598 140.076 191.944 142.424C194.289 144.772 197.074 146.635 200.138 147.905C203.203 149.176 206.488 149.83 209.805 149.83C213.122 149.83 216.407 149.176 219.471 147.905C222.536 146.635 225.321 144.772 227.666 142.424C230.012 140.076 231.872 137.289 233.142 134.221C234.411 131.153 235.065 127.866 235.065 124.545C235.187 121.166 234.626 117.797 233.415 114.641C232.205 111.485 230.369 108.606 228.019 106.177C225.669 103.749 222.852 101.821 219.739 100.509C216.626 99.1978 213.28 98.5297 209.902 98.545Z" fill="#4B2489"/>
</g>
<defs>
<clipPath id="clip0_187_53">
<rect width="250" height="78" fill="white" transform="translate(0 86)"/>
</clipPath>
</defs>
</svg>
