<svg width="250" height="250" viewBox="0 0 250 250" fill="none" xmlns="http://www.w3.org/2000/svg">
<g clip-path="url(#clip0_181_361)">
<path d="M11.3514 40.069C11.7948 35.7708 11.9654 35.3956 12.3406 34.9521C13.2276 33.6899 14.5921 32.8712 16.1271 32.6324C18.0033 32.2572 19.9137 31.9161 21.8581 32.0184C26.7021 32.1207 31.4778 32.0184 36.3218 32.0184C36.9359 31.9843 37.5499 32.0525 38.1298 32.2913C38.6756 32.5642 39.2897 33.0077 39.9378 32.3936C40.1084 32.2231 40.6542 32.2913 40.8247 32.496C41.2682 32.8371 41.7117 32.6665 42.1892 32.6665C42.4621 32.6665 42.735 32.2913 43.0762 32.6665C43.1785 32.7689 43.6902 32.3936 44.0654 32.3936C44.4748 32.3595 44.9182 32.3595 45.3276 32.3936H47.4767C47.9202 32.3936 48.3636 32.5642 48.8412 32.5642C49.2506 32.5642 49.694 32.496 50.1034 32.3936H52.9688C53.2759 32.4619 53.5829 32.5301 53.8558 32.6665C53.8558 32.6665 54.0263 32.496 54.1287 32.496H62.3839C62.4863 32.496 62.6568 32.6665 62.7251 32.7689C63.9531 32.3254 65.2835 32.3254 66.5116 32.7689C66.6821 32.6665 66.955 32.496 67.1256 32.4278L67.5008 32.7689C68.3195 32.2231 69.2065 32.5983 70.0934 32.496C70.9121 32.3936 71.6967 32.6665 72.6177 32.2231L73.7093 32.7689C74.8692 32.4278 76.0631 32.1548 77.1206 32.6665C77.4276 32.5301 77.7687 32.4619 78.1099 32.3936H81.1459C81.3847 32.3595 81.6576 32.4277 81.8623 32.5642C82.5445 32.9053 83.3291 32.9394 84.0114 32.6665C84.8301 32.3936 85.6147 32.2913 86.2628 32.5642C86.8086 32.8371 87.0815 32.0184 87.4226 32.4619C87.7638 32.9053 88.3096 32.7348 88.753 32.7348C89.1965 32.7348 89.7423 32.9053 90.0152 32.4619C90.8339 32.5642 91.7208 32.189 92.4372 32.7348C92.8807 33.11 93.4265 32.2913 93.8699 32.7348C94.1428 32.3936 94.4839 32.4619 94.8592 32.4619H106.73C107.106 32.496 107.447 32.5301 107.822 32.6324C107.822 32.6324 107.924 32.4619 107.993 32.4619C109.084 32.5642 110.142 32.189 111.233 32.7348C111.677 33.0077 112.325 32.6324 112.837 32.6324C113.724 32.5301 116.794 32.3595 117.612 32.5301C117.715 32.5301 117.783 32.7007 117.885 32.7007C118.602 32.4277 120.034 32.3595 120.853 32.3595C122.456 32.4619 123.991 32.3595 125.629 32.3595C126.004 32.3595 126.345 32.5301 126.72 32.5301C127.027 32.5301 127.334 32.4619 127.607 32.3595C127.744 32.2913 127.88 32.2231 128.051 32.189C128.358 32.2913 128.631 32.3595 128.938 32.3595C130.302 32.3595 131.53 32.4619 132.895 32.3595C133.509 32.3595 134.055 32.7007 134.703 32.4619C135.249 32.2913 135.965 32.4619 136.579 32.4619H146.54C146.881 32.4619 147.427 32.6324 147.7 32.189C148.314 32.5301 148.962 32.9053 149.781 33.4511H151.486L153.294 32.5642C154.181 32.6665 155.273 32.2913 156.262 32.8371C156.364 32.9394 156.637 32.7348 156.808 32.7348C157.729 32.3595 158.786 32.3936 159.673 32.8371C159.98 32.7348 160.253 32.6324 160.56 32.5642C160.935 32.3936 161.277 33.0077 161.72 32.6665C161.993 32.3936 162.607 32.5642 163.153 32.5642H169.088C169.634 32.4619 170.18 32.7348 170.692 32.2913C170.862 32.1207 171.51 32.4619 171.954 32.5642C172.397 32.5642 172.841 31.9502 173.216 32.3936C173.659 32.7348 173.932 31.9502 174.376 32.496C174.546 32.6665 175.195 32.5983 175.536 32.6665C175.979 32.7689 176.423 32.3936 176.798 32.3936C178.469 32.2913 180.141 32.2913 181.812 32.3936H182.802C183.347 32.3936 183.961 32.1207 184.405 32.6665C184.507 32.7689 184.951 32.6665 185.224 32.496C185.531 32.2572 186.008 32.2913 186.247 32.5983C186.247 32.6324 186.281 32.6324 186.281 32.6665C186.554 32.5642 186.725 32.3936 186.998 32.3936H192.763C193.206 32.3936 193.581 32.8371 194.127 32.496C194.468 32.2231 195.116 32.3936 195.662 32.496C196.003 32.496 196.276 32.6665 196.822 32.7689C196.924 32.7689 197.095 32.5983 197.368 32.496C197.538 32.5983 197.641 32.7689 197.811 32.7689C198.596 32.4278 199.517 32.3936 200.336 32.6665C201.052 32.9394 201.939 32.9394 202.928 33.0077C203.303 32.8371 203.644 32.6665 204.02 32.4619C204.907 32.9053 205.896 32.803 206.885 32.6324C207.124 32.5301 207.363 32.4619 207.602 32.4619C209.751 32.4619 211.832 32.2913 213.981 32.5642C214.97 32.6665 215.857 32.8371 216.846 32.8371C217.221 33.3829 217.665 32.6665 217.835 32.8371C218.279 33.2123 218.722 33.11 219.2 33.11C219.643 33.2123 220.189 32.7348 220.291 32.8371C220.837 33.2806 221.178 32.5642 221.656 32.8371L222.748 33.3829L223.02 33.11L223.362 33.4852C223.566 33.3488 223.771 33.2123 223.976 33.11H224.146C224.59 33.3147 225.033 33.5194 225.511 33.6558C226.125 33.8264 226.773 34.4745 227.489 33.7581H231.617C231.787 33.7581 231.89 34.031 232.06 34.0993C232.265 33.9628 232.436 33.8264 232.606 33.6558C233.595 34.031 234.414 34.7474 235.199 35.3614C236.052 35.9072 236.666 36.7259 237.007 37.6811C237.007 37.7834 236.904 37.8517 236.734 38.1246C236.904 38.3634 237.143 38.568 237.348 38.7386C237.348 38.8409 237.45 38.9092 237.45 39.0115C237.348 39.762 237.45 40.5466 237.791 41.2629C238.132 42.0816 238.167 43.0027 237.894 43.8555C237.621 44.5719 237.723 45.3906 237.791 46.1752C237.894 46.8915 237.518 47.6079 238.064 48.3243C238.235 48.4948 237.962 48.9383 237.962 49.4841C238.132 49.8593 238.132 49.8593 238.132 50.8145L238.678 51.3603C238.508 51.7355 238.337 52.0766 238.132 52.4519C238.269 52.8271 238.337 53.2365 238.405 53.6117C238.508 54.0552 238.303 54.601 238.405 55.0445C238.576 55.4879 237.86 55.6585 238.235 56.1361C238.508 56.5113 238.337 57.023 238.337 57.5006V58.6604C238.951 59.4791 239.872 59.5473 240.657 59.4791C241.475 58.6604 242.465 58.4898 243.522 58.5922C243.659 58.7286 243.761 58.8651 243.863 59.0356C244.477 59.4791 244.955 58.6604 245.398 59.138C245.74 58.8651 246.217 58.4898 246.661 58.1487C246.763 58.4898 246.763 58.7627 246.831 59.138C247.206 59.0356 247.445 58.5922 247.82 59.138C248.059 59.0356 248.298 58.8992 248.537 58.7627C248.707 59.138 248.912 59.752 249.151 59.752C249.969 59.752 249.424 60.366 249.697 60.6389C250.14 61.0824 249.97 61.5259 249.799 62.0717C249.628 62.6516 249.628 63.2997 249.799 63.8796C249.97 64.4254 250.072 64.7666 249.799 65.3124C249.56 65.5512 249.594 65.9605 249.833 66.1652C249.901 66.2334 249.97 66.2675 250.072 66.3016C249.97 66.8474 249.526 67.1203 249.901 67.7344C250.345 68.6213 250.072 69.7129 250.004 70.8727L250.174 71.0433C249.731 71.3162 249.355 71.5891 248.81 71.9302C248.912 72.3055 248.98 72.6466 249.083 73.0218C246.831 73.1242 244.511 73.8405 242.158 73.1242C241.066 73.7382 239.736 73.1242 238.474 73.4653C238.201 75.0686 238.746 76.706 238.03 78.3093C238.269 78.514 238.508 78.6845 238.746 78.8551C238.576 79.4691 238.917 80.1173 238.371 80.5607L238.985 81.1748C238.815 82.7098 239.429 84.4155 238.439 85.9505C238.542 86.2234 238.61 86.4963 238.61 86.7692V89.4641C238.61 90.0099 238.508 90.5557 238.883 91.0674C239.156 91.5109 239.053 92.2273 238.712 92.8754C238.439 93.3871 238.474 94.0011 238.815 94.4787C238.712 95.0245 238.542 95.5703 238.644 96.0138C239.019 98.0605 239.019 98.2652 238.644 100.244C238.474 101.062 238.644 102.052 238.746 102.836V103.28C238.678 103.86 238.644 104.405 238.644 104.985C238.644 105.531 238.474 106.077 238.644 106.589C238.815 107.1 238.542 107.476 238.644 107.919V110.989C238.712 111.433 238.815 111.876 238.917 112.354C238.917 112.354 238.644 112.524 238.644 112.627C238.815 113.889 238.303 115.219 238.917 116.481C238.746 117.471 239.088 118.528 238.746 119.552C238.439 120.473 238.508 121.462 238.917 122.349C238.405 123.236 238.439 124.361 239.019 125.214C238.201 126.033 238.917 126.647 239.36 127.363L238.644 128.796C238.815 129.512 239.019 130.604 239.258 131.866C239.053 131.934 238.883 132.037 238.712 132.139V135.653C239.702 136.642 241.032 135.55 242.021 136.369C244.341 135.653 246.695 136.369 249.014 136.471C248.912 136.813 248.844 137.188 248.741 137.563C249.185 137.904 249.628 138.177 250.106 138.45L249.833 138.723C250.208 139.439 249.935 140.156 250.106 140.872C250.277 141.588 249.219 142.305 250.106 143.021C250.004 143.464 249.492 143.84 249.935 144.454C250.106 144.829 250.106 145.238 249.935 145.614C249.662 146.262 249.662 147.012 249.935 147.694C250.208 148.411 249.935 149.059 249.219 149.844C248.946 150.151 248.741 150.526 248.605 150.935C248.4 150.799 248.196 150.696 247.991 150.56C247.718 150.833 247.377 151.003 247.002 150.389C246.899 150.73 246.899 151.003 246.831 151.379H246.695C246.524 151.276 246.354 151.208 246.149 151.208C245.876 151.106 245.876 150.321 245.262 150.833C245.16 150.935 244.648 150.662 244.375 150.492C244.136 150.696 243.932 150.935 243.761 151.208H242.396C241.851 150.935 241.305 150.662 240.691 150.321H239.429C239.326 150.969 239.258 151.583 239.088 152.402C239.19 152.573 239.702 153.016 238.985 153.562C239.156 153.937 239.36 154.312 239.599 154.653C239.224 155.199 238.985 155.813 239.599 156.53C238.985 157.348 239.429 158.338 239.224 159.225C238.951 160.111 240.111 160.93 239.326 161.817C240.316 162.806 238.439 164.069 239.667 165.058C239.224 165.877 239.122 166.593 239.565 167.207C239.463 167.65 239.36 168.094 239.292 168.537C239.36 169.765 239.122 170.993 238.678 172.119C238.508 172.46 238.303 172.801 238.064 173.108C237.894 173.381 237.723 173.722 237.45 174.2C236.734 174.78 235.983 175.326 235.199 175.803C234.312 176.247 233.391 176.417 232.401 176.793C232.299 176.69 232.129 176.622 232.06 176.451C231.958 176.554 231.89 176.724 231.719 176.724C230.559 176.895 229.4 176.451 228.206 176.997C227.489 176.179 226.841 177.27 226.057 177.1C225.306 176.963 224.556 176.963 223.805 177.1C223.362 177.1 222.816 177.543 222.543 177.372C222.099 177.031 221.656 177.1 221.178 177.1H216.198C215.754 176.827 215.311 176.656 215.106 176.554C214.288 176.656 213.674 176.724 213.06 176.827C211.797 176.929 210.467 176.656 209.205 177.1C208.932 177.202 208.659 176.997 208.318 176.929C207.602 176.758 206.885 176.656 206.271 177.1C205.555 176.724 204.702 176.69 203.952 176.997C203.337 177.168 202.689 177.27 202.075 176.827C201.905 176.929 201.802 176.997 201.632 177.1C201.052 176.963 200.438 176.861 199.824 176.827H188.635C188.294 176.827 187.816 176.997 187.475 176.554C186.929 177.168 186.213 176.827 185.497 176.827C184.814 176.861 184.132 176.861 183.416 176.827C182.802 176.827 182.051 176.656 181.437 176.997C181.232 176.895 181.028 176.793 180.823 176.724C180.618 176.622 180.414 176.588 180.209 176.554C179.868 176.656 179.493 176.724 179.117 176.724H174.546C174.273 176.724 174.001 176.895 173.83 176.895C172.943 176.793 172.227 176.622 171.237 176.52C169.429 176.895 167.553 176.861 165.745 176.417L165.472 176.69C164.756 175.872 164.108 176.963 163.323 176.69C162.607 176.52 161.788 176.963 161.072 176.417C160.458 176.861 159.707 176.588 159.025 176.69H156.705C155.989 176.69 155.17 176.793 154.283 176.52C154.283 176.622 154.113 176.793 153.942 177.065C152.68 176.963 151.418 177.236 150.156 176.793C149.781 176.895 149.371 176.997 148.996 177.065H139.308C138.967 177.065 138.592 177.168 138.319 176.793C138.182 176.69 138.012 176.69 137.875 176.793C136.988 177.407 136.17 176.895 135.283 176.793C134.566 176.69 133.952 176.963 133.236 177.065C132.11 177.1 131.019 177.031 129.927 176.793C128.835 176.622 127.778 177.065 126.686 176.52C126.141 176.895 125.526 176.793 124.981 176.793C124.605 176.793 124.333 176.622 123.821 176.52C123.684 176.656 123.548 176.758 123.377 176.895L122.661 176.52C122.32 177.065 121.842 176.417 121.297 176.622C120.478 176.895 119.591 176.793 118.704 176.793C118.363 176.724 118.022 176.622 117.715 176.52C117.612 176.622 117.544 176.895 117.374 176.793C116.282 176.69 115.224 177.168 114.133 176.52C113.894 176.451 113.621 176.486 113.416 176.622C112.53 176.895 112.427 176.895 111.54 176.52C110.483 176.929 109.323 176.997 108.231 176.69C107.958 176.588 107.686 176.52 107.515 176.588C105.434 177.031 105.161 177.031 103.217 176.588C102.944 176.554 102.671 176.554 102.398 176.588C102.33 176.827 102.193 177.1 102.023 177.304C101.716 177.1 101.409 176.861 101.136 176.588C101.034 176.69 100.897 176.793 100.795 176.861C100.624 176.69 100.454 176.52 100.351 176.315C99.942 176.383 99.5667 176.486 99.1915 176.656C99.0892 176.758 99.0892 176.929 99.0209 177.1C98.3046 176.827 97.5882 176.383 96.7695 176.554C95.9849 176.69 95.2003 176.895 94.4498 177.168C94.3475 176.997 94.2452 176.827 94.1769 176.622C93.6311 176.724 93.29 176.793 92.8124 176.895C92.8124 176.554 92.7101 176.281 92.7101 175.906C91.4479 175.906 90.4587 176.52 89.2988 177.168C87.8661 177.611 86.2287 176.349 84.6254 177.065C84.5231 177.065 84.4548 176.895 84.3525 176.793C84.2502 176.895 84.0796 176.963 83.9773 177.134C83.8067 177.031 83.5338 176.793 83.3632 176.793C82.7492 176.895 82.1011 176.622 81.5553 176.963C81.3847 177.134 80.8389 176.861 80.2931 176.793C79.4744 177.134 75.2444 177.236 74.3575 176.69C73.7434 177.065 73.7435 177.065 73.0271 176.793L71.9355 177.338C71.5943 177.27 71.2532 177.134 70.9462 176.963C70.571 176.793 70.2298 177.407 69.7864 177.065C69.5135 176.793 68.8994 177.065 68.3536 177.065H66.9209C66.5798 177.065 66.1022 176.895 65.7611 177.338C65.6588 177.441 65.3858 177.441 65.3176 177.441C64.7718 176.895 64.226 177.714 63.5097 177.27C62.8615 176.895 62.0087 176.963 61.4629 177.441C61.1559 177.304 60.8148 177.202 60.4736 177.168C59.2115 177.168 58.0516 176.997 56.7895 177.168C56.039 177.304 55.2885 177.407 54.538 177.441C54.2651 177.441 53.924 177.168 53.7193 177.27C53.3441 177.645 53.003 177.441 52.6277 177.441C52.3548 177.441 52.0819 177.168 51.809 177.168C51.4338 177.168 50.9903 176.997 50.6492 177.338C50.3763 177.509 50.0351 177.543 49.7622 177.441C49.4893 177.338 49.2164 177.168 48.8753 177.441C48.6024 177.611 48.3295 176.827 48.0566 177.441C47.5449 177.236 46.9991 177.134 46.4533 177.1C46.0099 177.1 45.464 177.27 44.9182 176.929C44.6453 176.758 44.3042 176.724 44.0313 176.827C42.4962 177.372 40.9612 176.656 39.3579 176.724C37.7205 176.861 36.0489 176.861 34.4115 176.724H32.8765C32.2624 176.724 31.6143 176.827 30.8979 176.451C30.3862 176.315 29.8746 176.315 29.3629 176.451C28.9194 176.451 28.5442 176.622 28.1007 176.622C27.5549 176.622 27.0091 176.349 26.5656 176.52C25.6787 176.861 24.7577 176.69 23.8707 176.793C23.2567 176.895 22.7109 176.417 21.9945 176.622C21.4487 176.724 20.7324 176.52 20.1183 176.451C19.5043 176.383 18.7538 176.724 18.1398 176.179C17.0482 176.895 16.2636 175.462 15.2743 175.735C14.4556 175.121 13.671 174.575 12.8523 173.927C12.2724 173.45 11.8631 172.767 11.6925 172.051C11.4196 171.164 10.8738 170.345 10.8738 169.356C10.8738 169.254 10.7715 169.083 10.8738 169.015C11.3173 168.469 10.7715 168.128 10.7032 167.582C10.8056 167.48 10.8738 167.309 10.9761 167.241L10.635 166.866C10.7373 166.593 10.9079 166.32 10.9761 166.047C10.9079 165.842 10.7715 165.672 10.635 165.501C10.8056 165.501 10.9079 165.399 11.1808 165.399C11.0102 164.683 10.9079 163.966 10.7373 163.045V162.943C11.2831 162.397 10.7373 161.578 11.0785 160.964C11.4537 160.418 11.3514 159.873 11.0785 159.259C10.9079 158.713 10.9761 157.996 10.9761 157.382C10.9761 157.007 11.249 156.734 11.249 156.393C11.249 156.052 10.9761 155.779 10.9761 155.404C10.9761 155.233 11.1467 155.063 11.1467 154.858C11.249 154.585 11.2831 154.278 11.249 153.971C11.0444 153.528 10.942 153.016 10.9761 152.538V150.833C10.2598 150.833 9.44106 150.56 8.7247 151.003C8.62236 151.003 8.55413 150.901 8.34946 150.901C7.83777 150.867 7.32608 150.867 6.81439 150.901C5.92746 151.242 4.93819 151.003 4.01715 151.072C3.57368 150.526 2.92554 150.901 2.48208 150.799C2.20918 150.423 1.93628 150.082 1.76571 149.809C1.4587 149.946 1.15168 150.082 0.878784 150.253C0.0600794 148.445 -0.281049 145.955 0.332979 144.795C-0.281049 143.703 0.16242 142.543 0.0600815 141.452C0.0600815 141.008 -0.0422596 140.463 0.435318 140.121C-0.212823 139.235 -0.00814594 138.245 0.537657 137.256C1.08346 137.085 1.62926 136.983 2.07273 136.813C2.61853 136.369 3.06199 135.994 3.40312 135.653C4.11949 136.198 4.73351 135.994 5.55222 135.755C6.16625 136.642 7.15552 135.312 8.07656 135.857C8.96349 136.301 9.88453 135.414 11.0444 135.857C10.8738 135.653 10.7373 135.448 10.6009 135.209C10.7715 134.391 11.2149 133.504 10.6009 132.685V132.617C10.7373 132.207 10.8056 131.798 10.8738 131.354C10.8738 130.911 10.4303 130.638 10.7032 130.092C10.8738 129.819 10.6009 129.274 10.6009 128.932V123.713C10.6009 123.372 10.4986 122.997 10.8738 122.724C10.5668 122.485 10.4644 122.076 10.6009 121.735C10.7032 121.189 10.6009 120.643 10.8738 120.131C11.1467 119.552 11.1467 118.903 10.8738 118.323C10.6009 117.778 10.4986 117.061 10.7032 116.72C11.1467 116.004 10.8056 115.185 11.249 114.571C11.5902 113.957 11.0785 113.241 10.7032 112.593C11.249 111.603 11.0444 110.546 10.9761 109.454C10.7032 107.919 10.635 107.919 10.9761 106.657C11.0444 106.35 11.0785 106.043 11.0785 105.77C10.7373 103.894 10.7373 103.894 11.0785 102.188V102.018C11.1808 100.414 11.249 98.7769 11.4537 97.2418C11.4537 96.9007 10.9079 96.6278 11.3514 96.1502C11.4537 96.0479 11.1808 95.5362 11.1808 95.2633C11.1808 94.9904 11.4537 94.6151 11.3514 94.5469C11.0785 94.2058 11.1808 93.8306 11.1808 93.4553V92.466C11.1126 92.1249 11.0102 91.8179 10.9079 91.4768C11.0444 91.1015 11.1467 90.7263 11.1808 90.317V86.8034C11.1808 86.4622 11.249 86.1211 11.3514 85.8141C11.249 85.2683 11.1808 84.7566 11.1808 84.2108V73.7723C10.1915 73.67 9.30461 73.6017 8.38357 73.6017C8.28123 73.6017 8.21301 73.5335 8.21301 73.4312C5.96157 74.1475 3.71014 73.5335 1.39047 73.3288C1.52692 73.0218 1.66337 72.6807 1.7316 72.3396C1.28814 71.9643 0.844671 71.7255 0.367093 71.3503C0.639995 70.0881 0.0941921 68.7577 0.70822 67.4956C-0.00814586 66.7792 0.810557 65.8923 0.435318 64.9712C0.264754 64.5278 0.162417 63.8114 0.70822 63.3679C0.162417 62.9245 0.435318 62.2763 0.435318 61.7646C0.435318 61.1506 0.708221 60.6048 0.810559 60.059C0.981123 60.059 1.15168 59.9567 1.35636 59.9567C1.35636 59.6838 1.4587 59.4109 1.4587 59.0697C1.83394 59.1721 2.17506 59.1721 2.72087 59.2403C2.99377 59.0697 3.3349 58.7968 3.81248 58.5239C4.11949 58.831 4.35828 59.1721 4.63118 59.5132C4.90408 59.3426 5.07464 59.3426 5.34755 59.138C5.62045 59.2403 5.96157 59.3085 6.33681 59.4109C6.40504 59.2062 6.50738 58.9674 6.60971 58.7627C7.49664 58.6604 8.41768 58.6604 9.20227 59.3085C9.57751 59.5814 10.1915 59.5814 10.7373 59.752L11.2831 59.2062C11.1808 58.3193 11.4537 57.3982 10.942 56.5113C10.8397 56.3066 10.8397 56.0678 10.942 55.8973C11.1126 55.4538 11.5561 55.0103 11.0444 54.5669C11.3855 54.1234 11.3173 53.6799 11.3173 53.1341V49.7911C11.3173 49.2794 11.249 48.7677 11.1467 48.256C11.1467 48.1196 11.1808 47.9831 11.249 47.8808C11.5219 47.2668 11.4196 46.5163 10.9761 46.0046C11.0785 45.834 11.249 45.7317 11.3173 45.5611C11.3173 45.1177 10.7032 44.7424 11.1467 44.2307C11.4196 43.8555 11.3173 43.412 11.1467 42.8662C10.9761 42.4228 11.249 41.877 11.1467 41.3312C11.0444 40.7854 10.9761 40.4442 11.249 39.8984C11.5219 39.5573 11.3514 38.9092 11.3514 38.3634C11.3173 37.2717 11.3173 36.7259 11.3514 40.069C11.3173 43.6508 11.3173 43.6508 11.249 43.719C11.3514 43.8214 11.4196 43.8896 11.4196 43.9919L11.5219 43.8896C11.5219 43.7532 11.4537 43.6849 11.3514 40.069ZM89.0259 34.0652V33.7923H88.4801C88.3096 33.6899 88.1049 33.5535 87.9343 33.417C87.9343 33.7923 88.0367 33.9628 88.0367 34.1334C88.3778 34.1675 88.6848 34.031 88.9236 33.7923L89.0259 33.8946C89.1283 33.7923 89.1965 33.724 89.2988 33.724L89.1965 33.6217C89.1283 33.6217 89.1283 33.6899 89.0259 34.0652ZM137.739 161.408C138.387 161.749 139.137 161.783 139.786 161.51C140.058 161.408 140.4 161.34 140.502 161.408C141.116 161.954 141.866 161.681 142.48 161.681C142.924 161.681 143.47 161.408 143.845 161.578C144.561 161.919 145.005 161.476 145.551 161.476C146.096 161.476 146.71 161.919 147.359 161.749C147.529 161.749 147.631 161.578 147.7 161.578C148.587 161.408 149.508 161.305 150.395 161.681C151.009 161.135 151.759 161.408 152.373 161.681C152.817 161.578 153.26 161.34 153.465 161.51C154.011 161.954 154.625 161.783 155.273 161.783H158.684C159.23 161.783 159.844 161.442 160.219 161.612C160.833 161.885 161.379 161.783 161.925 161.783H172.704C173.318 161.783 173.966 162.056 174.512 161.51C174.717 161.408 174.956 161.408 175.126 161.51C175.57 161.885 175.945 161.954 176.388 161.51C176.491 161.408 176.934 161.34 177.002 161.408C177.548 162.022 178.094 161.51 178.606 161.305C178.776 161.476 178.879 161.578 178.981 161.578C179.254 161.476 179.425 161.408 179.697 161.305C180.141 161.203 180.618 161.135 181.062 161.135C181.505 161.135 181.881 161.237 182.324 161.237H199.926C200.336 161.203 200.711 161.135 201.086 160.964C201.427 161.067 201.7 161.135 201.973 161.237C202.416 161.34 202.962 161.067 203.508 161.51C203.849 161.681 204.259 161.681 204.6 161.51C205.418 161.067 206.203 161.237 207.022 161.237H212.548C212.991 161.237 213.435 161.067 213.81 161.067C214.151 161.169 214.526 161.237 214.902 161.237C216.71 161.237 218.484 161.237 220.189 161.851C220.462 161.954 220.735 161.954 221.008 161.851C221.451 161.305 221.997 161.578 222.441 161.578H224.317V149.434C224.112 149.059 223.873 148.752 223.6 148.445C223.873 148.343 224.044 148.274 224.317 148.172C224.18 147.285 224.078 146.364 224.044 145.477C224.044 144.488 223.771 143.499 224.317 142.612C223.771 141.725 224.146 140.804 224.044 139.814C224.044 138.825 223.771 137.836 224.317 137.017C224.214 136.778 224.112 136.54 224.044 136.301V125.692C224.044 125.317 224.317 125.146 224.214 124.6C223.942 123.713 224.044 122.724 223.942 121.53C223.976 121.428 224.044 121.359 224.112 121.257C223.976 120.848 223.873 120.438 223.839 119.995C223.942 118.903 223.566 117.744 224.112 116.686C224.214 116.584 224.01 116.311 224.01 116.14C223.907 115.867 223.839 115.56 223.839 115.253V103.416C223.839 102.973 224.01 102.598 223.942 102.052C223.771 100.79 223.6 99.4591 224.112 98.2652C224.01 98.1629 223.942 97.9923 223.839 97.9923C224.01 97.5488 224.18 97.1054 224.385 96.6278C224.078 95.8773 223.907 95.0927 223.839 94.3081V86.394C223.839 85.6776 223.669 84.8589 224.112 84.1426C224.283 83.8697 224.01 83.3239 223.942 82.7781C224.044 82.3346 224.112 81.8911 224.214 81.5159C223.976 81.2089 223.703 80.9019 223.396 80.629C224.112 79.3668 223.771 78.1046 223.771 76.9448C223.771 75.6826 224.044 74.4204 223.498 73.2606C224.214 72.8854 223.6 72.4419 223.6 72.2714C223.737 71.8279 223.805 71.3844 223.873 70.941V65.3806C223.873 64.7666 223.43 64.0502 223.6 63.5044C223.771 62.9927 223.873 62.4469 223.873 61.9011V59.3768C223.873 58.9333 224.044 58.4898 223.6 58.0464C223.498 57.944 223.703 57.5006 223.771 57.2277C223.839 56.9548 223.942 56.6136 223.873 56.5113C223.43 56.1702 223.6 55.6244 223.6 55.1809V52.4519C223.259 52.0084 222.884 51.6332 222.509 51.1897C222.713 51.0533 222.918 50.985 223.123 50.9168C223.293 50.4734 223.396 50.0981 223.498 49.8252C223.396 49.3817 223.123 48.8359 223.327 48.563C223.6 48.2219 223.157 47.8467 223.498 47.5738C223.293 47.5055 223.055 47.4032 222.884 47.3009C221.349 47.5738 219.814 47.6761 218.381 47.1985C217.562 47.642 216.3 47.5738 215.243 47.3009C214.356 47.028 213.367 46.4139 212.548 47.1303C211.388 46.7892 210.126 46.7551 208.966 47.028C208.147 47.1985 207.26 47.4032 206.442 46.8574C205.623 47.2327 205.009 47.3009 204.293 47.028C204.02 46.9256 203.747 46.7551 203.576 46.8574C202.86 47.4032 202.041 47.1303 201.325 47.1303C200.608 47.1303 199.79 46.9597 199.073 46.9597C198.357 46.8574 197.641 47.2326 196.822 47.2326C195.935 47.1303 194.946 47.4032 194.127 46.9597C193.82 46.8574 193.513 46.8574 193.24 46.9597C192.797 47.1303 192.353 47.5055 191.876 47.0621C191.535 46.6186 190.989 47.6079 190.511 47.0621C189.522 47.1644 188.464 46.7892 187.543 47.335C187.202 47.2326 186.827 47.1644 186.554 47.0621C185.735 46.7892 184.951 47.8808 184.132 47.1644C183.586 47.7102 182.87 47.2668 182.324 47.4373C181.71 47.7102 181.164 47.335 180.516 47.4373H176.764C176.457 47.4032 176.15 47.3009 175.877 47.1644C175.467 47.3009 175.058 47.3691 174.615 47.4373H172.738C172.193 47.4373 171.647 47.6079 171.135 47.1644C170.589 47.7102 169.975 47.4373 169.327 47.4373H155.512C154.795 47.4373 153.976 47.2668 153.26 47.7102C153.09 47.8126 152.646 47.5397 152.271 47.5397C151.725 47.5397 151.179 47.3691 150.838 47.5397C150.395 47.7102 149.951 47.8126 149.576 47.5397C148.962 47.0962 148.416 47.4373 148.041 47.642C147.495 47.5397 147.052 47.2668 146.881 47.4714C146.335 47.7443 145.994 47.9149 145.517 47.4714C144.63 47.5738 143.64 47.1985 142.822 47.8467C142.412 47.4714 141.798 47.4032 141.287 47.6761C140.98 47.8467 140.638 47.9149 140.297 47.8467C139.751 47.4032 139.137 47.5738 138.489 47.5738H131.36C130.541 47.5738 129.552 47.4032 128.835 47.7443C127.948 48.1878 127.403 47.3009 126.686 47.5738C126.141 47.8126 125.526 47.7102 125.083 47.3009C124.878 47.1985 124.64 47.1985 124.469 47.3009C124.128 47.642 123.582 47.6761 123.241 47.335C123.241 47.335 123.241 47.335 123.207 47.3009C123.036 47.1985 122.661 47.4032 122.388 47.4032C122.115 47.4032 121.842 47.5056 121.501 47.5056C121.228 47.5056 120.955 47.335 120.614 47.335H108.129C107.856 47.335 107.515 47.5056 107.242 47.5056C105.878 47.2326 104.547 47.0621 103.183 47.6079C103.046 47.7102 102.876 47.7102 102.739 47.6079C102.296 47.1985 101.682 47.0962 101.136 47.335C100.59 47.5056 100.147 47.335 99.6008 47.335C99.3621 47.3691 99.1574 47.4714 98.9868 47.6079C98.0999 47.0621 97.1106 47.1644 96.1214 47.4373C95.8826 47.5397 95.6438 47.5738 95.405 47.6079C95.0639 47.4373 94.6886 47.0621 94.4157 47.6079C94.1428 47.1644 93.6994 47.335 93.2559 47.335H87.525C87.0133 47.335 86.4675 47.4032 85.9899 47.6079C85.2735 47.8808 84.8983 47.2668 84.2843 47.335C82.9198 47.6079 81.487 47.1644 80.1566 47.7102C79.8837 47.8126 79.4403 47.5397 78.9968 47.4373C78.6898 47.5738 78.3487 47.6761 78.0075 47.7102C76.6771 47.8126 75.3126 47.5397 74.0505 48.0855C73.7776 48.1878 73.5047 48.1878 73.2318 48.0855C72.6177 47.642 71.799 47.8126 71.185 47.8126H69.3088C68.6607 47.8126 68.0466 47.7102 67.4326 48.0855C66.8186 47.3691 66.341 48.256 65.727 48.1878C64.4989 48.0855 63.2709 48.0855 62.0428 48.1878C60.883 48.2901 59.7231 47.5738 58.461 48.1878H58.1881C57.0965 47.642 55.9366 47.9149 54.7768 48.0172C54.231 48.0172 53.7875 48.3925 53.2417 48.1196C52.6959 47.949 51.9796 48.1196 51.4338 47.8467C51.0244 47.6079 50.5468 47.5397 50.1034 47.6761C49.2164 48.1196 48.2954 47.8467 47.3061 47.949C46.6921 48.0514 46.044 47.8467 45.3276 48.2219C44.9865 48.4948 44.1678 48.3925 43.7925 48.1196C43.3491 47.8467 42.9056 47.949 42.428 47.949C41.8822 47.949 41.3364 48.2219 40.8247 48.2219L36.5265 47.949C36.0831 47.4032 35.2644 47.949 34.9232 47.5738C34.3092 46.8574 33.7634 47.6761 33.2176 47.6761C32.5695 47.7102 31.9554 47.7443 31.3414 47.8467C31.0685 47.7443 30.7274 47.5055 30.3521 47.3009C30.1816 47.5738 30.011 47.7443 29.8063 48.0172C29.704 47.7443 29.6358 47.5738 29.5334 47.3009H27.9984C27.4526 47.3009 26.9067 47.335 26.3951 47.4032C26.668 48.2901 26.2245 49.0065 26.3951 49.8252C26.5656 50.6439 26.3951 51.5308 26.4974 52.3495C26.4974 53.1683 26.3268 53.9528 26.7703 54.7033C26.4974 55.1468 26.3268 55.5903 26.0539 56.0337L26.4974 56.4772C26.3951 56.6477 26.2245 56.8524 26.2245 56.9207C26.3268 57.2277 26.3951 57.5688 26.3951 57.9099C26.4633 58.251 26.5656 58.5922 26.7362 58.8992C26.1904 59.7179 25.6446 60.4343 25.474 61.3212C26.361 63.0268 27.282 64.6301 26.4633 66.711C26.2927 67.1545 26.1904 67.8708 26.6338 68.3143C26.7362 68.4166 26.5315 68.6895 26.5315 68.8601C26.6339 69.747 26.1904 70.5657 26.361 71.3844C26.4974 71.862 26.5997 72.3396 26.6338 72.8172V78.0364C26.5997 78.3775 26.4974 78.7186 26.361 79.0257H26.4633C26.4633 79.5032 26.4633 79.9808 26.5656 80.4584C26.4633 80.5607 26.2927 80.629 26.2245 80.7313C26.5656 80.8336 26.8385 80.9019 27.1114 81.0042C26.7703 82.6075 26.7703 82.6075 27.1114 83.5285C27.0091 83.6991 26.8385 83.8014 26.7703 83.972V87.1104C26.7703 87.6562 27.4867 88.0996 26.7703 88.6454C27.3161 89.1912 27.0432 89.6347 26.7703 90.0782C26.668 90.3169 26.668 90.5557 26.7703 90.7945C27.2138 91.238 27.0432 91.7838 27.0432 92.2273V100.141C27.0432 100.96 27.0432 101.847 26.5997 102.495C26.1563 103.212 26.4974 103.757 26.7021 104.201C26.5997 104.542 26.4292 104.747 26.4292 105.02C26.4292 106.111 26.3268 107.169 26.7021 108.26C26.8726 108.874 26.975 109.693 26.5315 110.307C26.8726 110.955 26.7021 111.671 26.7021 112.388C26.7021 112.558 26.4292 112.831 26.5315 113.002C26.975 114.264 26.6339 115.594 26.7021 116.857C26.668 117.198 26.5656 117.539 26.4292 117.846C26.5656 118.153 26.668 118.494 26.7021 118.835C26.8044 119.449 26.8044 120.097 26.7021 120.711C26.5997 121.325 26.8726 122.042 26.5315 122.69C26.1904 123.338 26.7021 123.85 26.7021 124.396C26.7021 124.498 26.7021 124.668 26.5997 124.668C25.9857 125.214 26.5997 125.658 26.7021 126.101C26.5997 126.272 26.3268 126.476 26.3268 126.647C26.3268 127.363 26.1563 128.25 26.4974 128.796C26.9409 129.615 25.9516 130.161 26.3268 130.877C26.4292 131.047 26.4292 131.32 26.4974 131.423C26.9409 131.969 26.3951 132.31 26.3951 132.787C26.7021 133.947 26.7362 135.175 26.4974 136.369C26.2927 137.017 26.2927 137.768 26.4974 138.416C26.6339 138.893 26.6339 139.371 26.4974 139.849C26.3268 140.394 26.1222 141.008 26.4974 141.452C26.9409 142.066 26.3268 142.339 26.3268 142.885C27.2138 143.772 26.2245 144.693 26.3268 145.682C26.4292 146.671 26.0539 147.66 26.7021 148.547C26.2245 149.264 26.1904 150.219 26.5997 150.969C26.4292 151.856 26.0539 152.573 26.2586 153.221C26.5315 154.381 26.3609 155.643 26.4292 156.803C26.4292 157.144 26.2586 157.689 26.4292 157.894C26.975 158.611 26.5997 159.327 26.7021 160.043C26.7021 160.316 26.4292 160.589 26.3268 160.862C26.4974 161.169 26.6338 161.51 26.7703 161.851C27.0432 161.954 27.3161 162.124 27.589 162.295C28.6465 161.851 29.8404 161.851 30.8979 162.295C31.4437 162.022 32.433 161.749 32.7741 162.022C34.0363 162.84 35.469 161.851 36.6289 162.636C37.7887 161.919 39.2214 162.806 40.313 161.919C40.5859 162.158 40.8247 162.431 41.0294 162.738C40.6883 162.909 40.4836 163.011 39.8696 163.386H41.0294L41.4729 162.943C41.3705 162.84 41.2682 162.738 41.2 162.602L41.6434 162.158H44.3383C44.3383 162.431 44.4407 162.704 44.4407 163.045H46.4192C46.965 162.226 47.579 163.045 48.2954 162.772C48.8412 162.602 49.5576 162.875 50.2739 162.943C50.4786 162.875 50.6492 162.772 50.8197 162.67C51.195 162.568 51.4338 163.113 51.809 162.67C52.0819 162.499 52.6277 162.772 52.9688 162.397C53.2076 162.295 53.4464 162.295 53.6852 162.397C54.0263 162.738 54.5039 162.67 54.845 162.67C55.8343 162.67 56.8236 162.84 57.7105 162.329C57.8128 162.431 57.9834 162.499 58.0857 162.67C58.1881 162.568 58.2904 162.465 58.4269 162.397C58.5292 162.499 58.6998 162.568 58.8021 162.67C59.1091 162.533 59.4502 162.465 59.7914 162.397C60.3372 162.295 60.9512 162.397 61.3947 162.226C62.0087 161.885 62.3839 162.602 62.998 162.397C63.305 162.295 63.6461 162.226 63.9872 162.226C64.2601 162.124 64.6354 162.056 64.7036 162.124C65.1471 162.67 65.7952 162.397 66.3069 162.397H88.0367C88.6507 162.431 89.2306 162.363 89.8105 162.124C90.3904 161.885 91.0727 161.954 91.6185 162.295C91.8573 162.397 92.0961 162.397 92.3349 162.295C93.0512 161.919 93.6994 162.022 94.4839 162.295C95.2003 162.533 95.9508 162.499 96.6331 162.192C96.9742 162.022 97.7247 161.919 97.9976 162.09C98.441 162.431 98.8845 162.261 99.3621 162.363C99.7032 162.465 100.181 162.533 100.522 162.636C100.727 162.499 100.931 162.363 101.17 162.295C101.341 162.465 101.443 162.636 101.511 162.636C102.057 162.568 102.569 162.363 103.012 162.09C103.66 161.749 104.001 162.533 104.615 162.363C104.991 162.261 105.264 162.192 105.605 162.09C106.423 162.533 107.413 162.602 108.3 162.261C108.914 162.09 109.562 161.885 109.903 162.09C110.892 162.533 111.95 162.261 112.973 162.363H115.224C115.497 162.363 115.668 162.533 115.77 162.533C116.214 162.431 116.589 162.431 116.93 162.363C117.271 162.295 117.612 162.192 117.919 162.09C118.295 162.226 118.704 162.295 119.079 162.363C119.966 162.363 120.887 162.465 121.774 162.363C122.32 162.261 122.661 162.704 123.309 162.465C123.753 162.192 124.469 162.465 125.117 162.124C125.424 162.056 125.731 162.09 126.004 162.226C126.618 162.602 127.164 162.329 127.71 162.056C128.392 162.465 129.211 162.533 129.961 162.226C130.302 162.124 130.848 162.056 131.121 162.226C131.837 162.602 132.554 162.499 133.27 162.397C135.249 162.056 135.351 162.056 137.125 162.397C136.852 161.681 137.193 161.51 137.739 161.408ZM2.27741 60.6389L2.0045 60.366C1.7316 60.5366 1.4587 60.6389 1.1858 60.8095L1.7316 61.3553C1.93628 61.1506 2.14095 60.9118 2.27741 60.6389ZM248.81 61.4576C248.844 61.3894 248.878 61.2871 248.912 61.1847C248.741 60.9118 248.639 60.7413 248.469 60.4684L248.366 60.5707C248.196 60.9459 248.469 61.1165 248.707 61.2871C248.639 61.3553 248.741 61.3553 248.81 61.4576ZM248.741 147.319C248.571 147.66 248.025 147.763 248.469 148.377C248.537 148.036 249.185 147.933 248.741 147.319ZM24.3824 151.617V152.709C24.553 152.709 24.7577 152.675 24.9282 152.607C24.7577 152.266 24.5871 151.959 24.3824 151.617ZM114.542 163.216H115.702C115.634 163.045 115.6 162.875 115.6 162.67C115.259 162.84 114.883 163.011 114.542 163.216ZM24.6553 140.77H24.4848V141.759H24.6553V140.77ZM102.33 174.712H102.057C102.057 174.985 102.159 175.257 102.159 175.53H102.33V174.712ZM219.37 175.872V175.599C219.098 175.599 218.825 175.701 218.552 175.701V175.872H219.37ZM88.4119 35.9414V35.7708H87.7979V35.9414H88.4119ZM24.6553 138.757H24.4848V139.405H24.6553V138.757ZM237.143 116.857V116.754H236.768V116.857H237.143ZM236.87 122.076V122.178H237.211V122.076H236.87ZM162.334 45.6294V45.7317H162.675V45.6294H162.334ZM161.242 32.9053H161.14V33.2806H161.242V32.9053ZM111.131 33.5194H111.029V33.8605H111.131V33.5194ZM116.18 163.216H116.282V162.875H116.18V163.216ZM173.114 172.29V172.187H172.773V172.29H173.114ZM102.159 174.336H102.262V173.961H102.159V174.336ZM112.052 33.8946H112.154V33.5535H112.052V33.8946ZM167.11 45.834V45.7317H166.769V45.834H167.11ZM237.962 81.3794H238.064V81.0383H237.962V81.3794ZM164.858 174.882V174.78H164.517V174.882H164.858ZM25.0988 64.596H25.2011V64.2208H25.0988V64.596ZM165.575 174.985H165.677V174.643H165.575V174.985Z" fill="black"/>
<path d="M49.6258 187.368C50.0693 188.459 50.6151 189.346 50.9903 190.335C51.3315 191.359 51.7408 192.348 52.2525 193.303C52.7983 194.19 53.0712 195.179 53.617 196.1C54.1628 197.09 54.504 198.079 55.1521 198.966C55.8002 199.853 55.6979 201.115 56.9601 201.763C57.0624 201.217 57.0624 200.876 57.1306 200.399C57.3012 200.296 57.5059 200.296 57.5741 200.228C57.7447 199.785 57.847 199.341 58.0176 198.864C58.8363 196.612 60.0643 194.565 60.6101 192.143C60.7125 191.598 61.1559 191.154 61.3265 190.711C61.5312 190.438 61.7017 190.131 61.77 189.824C61.6676 188.664 62.4863 187.947 63.2027 187.231H70.9121C71.5262 187.265 72.1061 187.368 72.7201 187.504C72.6178 188.118 72.6178 188.766 72.5496 189.38V199.375C72.5155 199.989 72.5155 200.637 72.5496 201.251C72.6519 201.865 72.2084 202.616 72.8225 203.23C72.2767 203.776 72.4472 204.492 72.5496 204.936C72.7201 205.55 73.0954 206.095 72.5496 206.744C72.6519 207.187 72.9248 207.733 72.8225 208.108C72.379 209.2 72.5496 210.257 72.5496 211.349V213.873C72.5496 214.589 72.379 215.408 72.8225 216.125C72.993 216.397 72.8225 216.943 72.8225 217.387H62.6569C62.9298 216.295 62.2816 215.135 62.998 214.078C62.384 213.361 62.7251 212.474 62.7251 211.656C62.7251 211.042 62.5546 210.394 62.998 209.848C63.1004 209.677 62.8957 209.234 62.7251 208.688C62.7251 208.586 62.8957 208.415 62.998 208.142C62.8957 207.972 62.7933 207.835 62.6569 207.699C63.2027 207.085 62.8275 206.334 62.6569 205.55C62.5546 205.72 62.4863 205.925 62.384 206.095C61.3947 207.972 60.5078 209.95 59.4162 211.826C58.8022 212.918 58.2564 213.975 57.7106 215.067C57.4376 215.681 56.8918 216.227 56.4484 216.773C56.2778 216.67 56.0049 216.67 56.0049 216.602C55.4591 215.51 54.6745 214.726 54.2993 213.464C53.9923 212.577 53.5488 211.758 52.9689 211.042C52.4231 210.223 52.082 209.336 51.5362 208.449C51.0927 207.665 50.5469 206.914 49.9329 206.3V212.44C49.9329 212.611 50.2058 212.781 50.2058 212.986C50.1716 213.396 50.1034 213.771 50.0352 214.146C50.4787 214.965 50.1375 216.022 50.3081 217.216H40.5178L39.8014 216.5C39.8014 216.397 39.9037 216.397 39.972 216.329C39.8696 216.056 39.8014 215.749 39.8014 215.442C39.8014 215.169 40.1766 214.896 39.6991 214.555C39.8014 214.385 39.972 214.112 40.0402 213.941C39.4944 213.225 39.6991 212.406 39.6991 211.622C39.6991 210.837 39.4262 209.916 39.972 209.2C39.5967 208.483 39.4262 207.767 39.8696 207.119C39.7673 206.573 39.5285 206.027 39.6991 205.584C39.8014 205.14 40.2449 204.697 39.6991 204.219L40.3131 203.605C40.1425 202.786 39.9378 202.002 39.7673 201.081C39.7673 200.978 39.9378 200.91 40.0402 200.808C39.7673 199.648 39.4262 198.488 40.0402 197.294C39.4944 197.124 40.0402 196.749 39.9378 196.476C39.8355 196.237 39.8014 195.93 39.8355 195.657C40.1084 194.565 40.1084 194.565 39.8355 193.235C39.8355 193.064 39.7332 192.962 39.8355 192.791C39.9379 192.177 40.279 191.529 40.1084 191.086C39.8355 190.54 39.9379 190.097 40.0061 189.551C40.1084 188.937 39.8355 188.186 39.7332 187.504C43.1444 187.368 46.3851 187.368 49.6258 187.368Z" fill="black"/>
<path d="M113.996 204.97C113.894 204.594 113.792 204.253 113.655 203.878H112.734C112.632 203.708 112.564 203.708 112.564 203.605V202.616C112.564 202.343 112.666 201.797 112.461 201.729C112.12 201.456 112.564 201.286 112.461 201.013C112.427 200.467 112.495 199.921 112.632 199.409C113.007 199.171 113.382 198.966 113.792 198.795C114.235 198.181 113.792 196.987 114.406 195.998C114.406 195.998 114.133 195.828 114.133 195.623C113.724 193.917 113.655 192.143 113.962 190.404C114.065 189.96 113.792 189.687 113.792 189.312C113.689 188.971 114.338 188.766 113.962 188.425C113.86 188.323 113.86 188.255 113.689 187.982C114.099 187.845 114.474 187.709 114.849 187.538C114.747 187.436 114.679 187.265 114.576 187.197H119.796C120.683 187.299 121.604 186.924 122.32 187.47C122.627 187.333 122.968 187.231 123.309 187.197H130.132C130.405 187.197 130.678 187.368 131.019 187.368H131.906C132.349 187.265 132.997 187.026 133.27 187.197C133.714 187.64 134.157 186.924 134.6 187.299C134.873 187.572 135.487 187.47 135.965 187.47C136.784 187.572 137.227 188.084 137.773 188.562V191.086C137.773 191.529 138.046 191.973 138.046 192.348C138.046 192.723 137.773 193.064 137.773 193.508C137.773 193.951 137.944 194.327 137.944 194.77C137.944 195.282 137.875 195.793 137.773 196.305V197.738C137.773 197.977 137.841 198.215 137.944 198.454C137.773 198.898 137.5 199.443 137.227 200.16C136.784 200.501 136.136 200.979 135.624 201.32C136.784 201.729 137.739 202.548 138.421 203.571V211.212C138.421 211.826 138.523 212.577 138.319 213.191C138.148 213.737 138.421 214.282 138.489 214.794C137.841 215.408 137.329 215.954 136.681 216.5C135.59 216.636 134.498 216.841 133.441 217.114C133.168 217.148 132.895 217.148 132.622 217.114H114.406C114.338 217.114 114.269 217.08 114.235 217.012C114.065 215.647 113.417 214.419 114.133 212.986C113.996 212.713 113.894 212.406 113.86 212.099V208.961C113.86 208.722 113.928 208.483 114.031 208.245C114.167 207.835 114.167 207.392 114.031 206.982C113.655 206.402 113.621 205.584 113.996 204.97ZM127.744 212.509C127.744 211.69 127.846 211.144 127.744 210.701C127.573 210.257 128.29 209.814 127.846 209.336C128.392 208.893 127.676 208.517 127.744 207.972C127.88 206.88 127.88 205.754 127.744 204.663C127.71 204.322 127.607 203.98 127.471 203.673C126.755 204.287 126.106 203.946 125.492 204.015C124.605 203.196 124.06 204.117 123.412 204.458C123.787 204.731 123.889 205.243 123.616 205.618C123.548 205.686 123.514 205.754 123.412 205.823C124.128 206.095 123.309 206.641 123.582 206.914C124.026 207.46 123.412 207.801 123.412 208.279C123.957 208.824 123.855 209.37 123.412 209.882C123.514 209.984 123.616 210.087 123.684 210.223C123.582 210.769 123.514 211.315 123.343 212.099C123.957 211.758 124.503 212.543 125.049 211.929C125.219 212.065 125.39 212.202 125.595 212.304C125.97 212.202 126.311 211.929 126.584 212.031C126.857 212.167 127.198 212.338 127.744 212.509ZM128.119 192.757H123.616C123.446 193.849 123.787 195.009 123.343 195.896C123.889 196.885 123.446 197.977 123.684 198.966C125.117 199.682 126.55 199.307 128.085 199.307V198.864C128.187 198.522 127.539 198.25 127.983 197.874C127.437 197.499 128.085 197.158 127.983 196.885C127.983 196.271 128.324 195.623 127.71 195.077C128.153 194.634 128.187 193.951 127.812 193.474C127.949 193.269 128.051 193.03 128.119 192.757Z" fill="black"/>
<path d="M105.467 215.579C104.308 216.943 102.67 217.557 100.692 217.557H85.9891C84.7952 217.523 83.6012 217.25 82.4755 216.738C81.2134 216.295 80.497 215.306 80.497 213.771C80.5993 210.359 80.497 207.016 80.497 203.605C80.497 202.991 80.7699 202.241 80.2241 201.627C80.1217 201.524 80.497 201.081 80.3946 201.013C79.8488 200.671 80.7358 200.467 80.497 200.126C80.3264 199.853 80.3264 199.58 80.1559 199.307C79.9853 198.966 80.7017 198.488 80.1559 198.147C80.3264 197.772 80.3264 197.362 80.1559 196.987C80.0535 196.578 80.0535 196.134 80.1559 195.725C80.2582 195.179 80.3264 194.633 80.4288 194.019C80.4288 193.917 80.2582 193.849 80.1559 193.747L80.497 193.371C79.6101 191.836 80.497 190.233 80.497 188.596C81.3839 188.323 81.9297 187.606 82.919 187.436C83.2942 187.333 83.7036 187.265 84.0788 187.265H102.329C103.216 187.265 104.137 187.606 105.024 187.811C105.365 188.254 105.57 188.63 105.911 189.175C106.081 189.892 105.638 190.779 106.184 191.597C106.081 191.7 105.979 191.802 105.911 191.939C106.013 192.484 106.627 193.098 106.013 193.747C106.457 194.361 106.184 195.009 106.013 195.725C105.911 195.998 106.286 196.339 106.286 196.714C106.286 197.158 106.116 197.601 106.116 198.147C106.15 198.488 106.15 198.795 106.116 199.136C105.945 200.296 105.945 201.115 106.286 201.934C106.15 202.172 106.047 202.445 106.013 202.752C105.979 203.162 105.979 203.605 106.013 204.014V205.447C106.013 205.891 106.184 206.539 105.74 206.88C106.081 207.085 106.184 207.528 105.979 207.869C105.945 207.937 105.877 208.006 105.843 208.04C105.945 208.176 106.013 208.347 106.116 208.483C106.218 208.927 106.457 209.472 106.286 209.745C106.013 210.189 106.116 210.632 106.116 211.11C105.843 212.509 106.116 214.044 105.467 215.579ZM90.2873 193.03V194.906C90.2532 195.52 90.2532 196.169 90.2873 196.783C90.3897 197.192 90.4238 197.601 90.3897 198.045C90.2191 198.556 90.2191 199.136 90.3897 199.648C90.492 200.091 90.2873 200.637 90.2191 201.183V211.792C91.5836 212.065 92.914 210.905 94.0738 211.894C94.2444 211.724 94.4149 211.622 94.6196 211.451C95.0972 211.86 95.7795 211.929 96.3253 211.622C96.2229 211.178 95.9841 210.803 95.9841 210.359C95.95 209.814 95.95 209.268 95.9841 208.756C95.9841 208.381 95.9841 208.04 96.0865 207.665C96.257 207.221 95.7453 206.948 95.9159 206.573C96.0524 206.3 96.1547 205.993 96.1888 205.686C96.0865 205.413 95.9841 205.106 95.9159 204.799V192.416C94.9266 192.518 94.0397 192.689 93.1187 192.689C92.3682 193.133 91.3789 193.03 90.2873 193.03Z" fill="black"/>
<path d="M210.295 199.409C209.75 200.501 209.75 200.944 210.193 201.934C209.92 202.548 209.579 203.093 210.193 203.742C209.204 204.287 208.214 204.287 207.123 204.287H199.243V212.099C199.516 212.236 199.789 212.372 200.062 212.543H209.75C210.022 212.816 210.193 213.088 210.568 213.43C210.466 214.419 210.739 215.579 210.295 216.739C210.398 216.977 210.5 217.182 210.671 217.353C210.5 217.455 210.398 217.523 210.295 217.523H190.612C190.067 217.489 189.521 217.387 189.009 217.25V215.442C188.975 214.828 188.975 214.18 189.009 213.566C189.111 213.02 188.395 212.474 188.907 211.963C188.361 211.246 189.18 210.803 189.18 210.257C188.634 208.279 189.521 206.129 188.566 204.049H187.849C187.576 203.503 187.406 202.957 187.133 202.445C187.747 201.627 187.303 200.637 187.474 199.58C187.883 199.443 188.259 199.307 188.634 199.136C188.975 198.591 188.293 198.147 188.634 197.533C188.907 197.09 188.463 196.373 188.907 195.998C188.361 195.111 188.804 194.122 188.634 193.201C188.463 192.382 188.907 191.597 188.634 190.779C188.463 189.892 188.804 188.903 188.19 187.982C189.862 187.504 191.602 187.368 193.307 187.606C193.58 187.709 193.921 187.504 194.194 187.504H202.108C202.415 187.504 202.688 187.606 202.927 187.777C203.098 187.879 203.541 187.675 204.019 187.675C204.564 188.016 205.178 187.947 205.895 187.777C205.997 187.777 206.065 187.606 206.168 187.606C206.611 187.606 207.055 187.436 207.43 187.606C208.419 188.22 209.75 187.436 210.739 188.425C210.671 188.766 210.534 189.107 210.398 189.414C210.227 189.687 211.012 189.96 210.398 190.301C210.943 190.915 210.671 191.461 210.398 192.109C210.295 192.28 210.398 192.655 210.398 192.996H199.857C199.413 192.996 199.038 192.996 198.765 193.44C199.584 194.258 198.595 195.043 198.663 195.964C198.731 196.885 198.663 197.84 198.663 198.829C198.833 199 199.004 199.205 199.106 199.273C200.641 198.863 202.245 198.863 203.78 199.273C205.042 198.795 206.406 198.829 207.635 199.375C207.737 199.273 207.907 199.205 207.976 199.102C208.863 198.966 209.511 199.136 210.295 199.409Z" fill="black"/>
<path d="M182.017 211.997V216.397C181.744 216.568 181.403 216.841 181.028 217.114C180.619 217.489 180.005 217.557 179.493 217.284C179.322 217.182 178.879 217.012 178.777 217.182C178.231 217.728 177.617 217.455 176.969 217.455H170.589C170.282 217.387 169.975 217.319 169.703 217.182L169.6 217.284H164.995L164.279 216.568V210.905C164.279 210.36 164.552 209.745 164.006 209.302C164.62 208.756 164.279 208.142 164.279 207.494C164.313 206.88 164.313 206.232 164.279 205.618V188.903C164.142 188.732 164.006 188.562 163.938 188.357L164.927 187.368C164.824 187.368 164.756 187.47 164.927 187.368H171.749C172.125 187.333 172.466 187.299 172.841 187.197C173.148 187.333 173.489 187.402 173.83 187.47C173.933 187.913 174.171 188.562 174.171 189.073C174.274 191.325 174.171 193.474 174.171 195.725C174.205 196.066 174.24 196.407 174.342 196.714C174.24 197.021 174.171 197.363 174.171 197.704C174.171 198.25 174.001 198.864 174.274 199.239C174.615 199.785 173.898 200.058 174.171 200.399C174.308 200.672 174.41 200.979 174.444 201.286C174.035 201.9 173.967 202.684 174.274 203.366C174.444 203.708 174.103 203.98 174.376 204.356C174.649 204.629 174.376 205.243 174.478 205.72C174.478 206.13 174.376 206.539 174.205 206.88C174.035 207.221 174.205 207.767 174.205 208.313V211.997H182.017Z" fill="black"/>
<path d="M156.228 187.743V194.224C156.228 194.327 156.057 194.395 156.057 194.497C156.501 194.77 156.33 195.214 156.33 195.657V213.907C156.33 214.453 156.501 214.999 156.057 215.511C155.887 215.681 156.228 216.227 156.33 216.67C156.194 216.943 156.057 217.216 155.887 217.489C155.17 218.035 154.283 216.602 153.635 217.387C153.021 217.387 152.373 217.114 151.93 217.284C150.838 217.728 149.849 217.387 148.859 217.455C148.689 217.455 148.416 217.182 148.245 217.114C148.109 217.25 147.972 217.353 147.802 217.455C147.358 217.284 146.983 217.182 146.437 217.012C146.199 216.432 146.028 215.818 145.994 215.204C145.994 214.862 145.38 214.385 146.096 214.112V209.78C146.062 209.336 145.96 208.859 145.823 208.415C145.994 208.074 146.062 207.699 146.096 207.324V202.207C146.096 201.49 146.267 200.774 146.267 200.058C146.267 199.341 146.199 198.625 146.096 197.908V195.589C146.096 195.248 146.267 194.77 146.267 194.429C146.267 194.054 146.199 193.713 146.096 193.337C145.994 193.064 145.926 192.792 145.823 192.519C146.369 191.086 145.926 189.653 146.096 188.118C146.642 187.572 147.393 187.265 148.177 187.299C150.326 187.299 152.407 187.402 154.556 187.299C155.238 187.299 155.682 187.538 156.228 187.743Z" fill="black"/>
<path d="M142.139 148.65C140.877 148.104 139.717 148.309 138.557 148.479C138.182 148.581 137.738 148.752 137.568 148.65C137.022 148.309 136.476 148.479 135.965 148.377C135.487 148.24 135.009 148.138 134.532 148.104C134.088 148.104 133.543 148.377 132.997 148.547C133.031 148.24 132.997 147.933 132.894 147.66C132.826 147.456 132.724 147.251 132.622 147.046V146.773C133.065 146.501 132.622 146.125 132.724 145.955C132.963 145.682 132.997 145.272 132.826 144.965C132.451 144.42 132.656 143.874 132.997 143.43C132.826 142.885 132.656 142.441 132.451 141.895C132.553 141.793 132.724 141.725 132.724 141.622V132.446C132.724 132.344 132.553 132.173 132.451 132.105C132.86 130.945 132.929 129.717 132.622 128.523C132.587 128.182 132.587 127.875 132.622 127.534C132.724 126.272 132.724 125.01 132.724 123.85C132.724 123.747 132.553 123.577 132.451 123.475C132.553 123.202 132.826 123.031 132.826 122.758C132.724 121.155 133.099 119.517 132.656 117.914C132.553 117.471 132.826 117.027 132.826 116.481C132.997 114.946 132.553 113.343 133.099 111.808C132.656 111.092 132.997 110.273 132.826 109.557C132.553 108.942 132.008 108.397 131.735 107.749C131.359 107.135 131.086 106.486 130.745 105.941C130.643 105.941 130.541 105.975 130.472 106.043V102.086C130.472 101.984 130.37 101.915 130.37 101.984C130.711 100.892 130.541 99.9026 130.541 99.0157V96.2185L131.189 95.5703C131.189 95.2974 131.291 95.0245 131.291 94.7516C131.905 95.1951 132.451 94.4105 132.997 94.7516C133.27 94.2058 133.44 93.7624 133.713 93.3189C133.372 92.8754 132.894 92.2273 132.553 91.7156C133.099 91.2721 132.826 90.624 132.894 90.1123C132.997 89.5665 132.724 88.8501 132.997 88.5772C133.543 87.9291 132.826 87.4174 132.997 87.0422C133.372 86.4964 132.656 86.1552 132.997 85.6777L133.543 85.4048C133.372 84.2449 132.997 83.1533 132.997 82.0958C132.894 78.514 132.997 74.8981 132.997 71.3162C132.997 70.6681 133.167 69.9517 132.724 69.44C133.167 68.8942 132.894 68.2802 132.997 67.6321C133.031 66.9498 133.031 66.2675 132.997 65.5512C132.997 65.3124 132.929 65.0395 132.826 64.8348C133.167 63.7773 133.133 62.6516 132.724 61.5941C132.894 61.1506 133.099 60.4343 133.27 59.7861H143.503C144.118 59.7861 144.868 60.4002 145.38 60.059C145.925 59.6156 146.471 60.059 146.915 59.7861C147.358 59.6156 148.075 59.6838 148.62 59.7861C148.859 59.8203 149.064 59.9226 149.234 60.059C149.439 59.9226 149.644 59.8544 149.848 59.7861H155.852C156.125 59.7861 156.398 59.9567 156.671 59.9567C157.285 59.9567 157.865 59.9567 158.479 59.8544C159.093 59.8544 159.843 59.5815 160.457 59.752C160.901 59.8544 161.344 60.2978 161.822 59.752C162.061 60.0249 162.47 60.1273 162.811 60.0249C163.459 60.4002 163.903 60.5707 164.346 60.8436C164.346 60.7413 164.449 60.7413 164.449 60.6731C165.165 61.4918 165.813 62.2764 166.53 63.1974C166.427 63.368 166.359 63.4703 166.257 63.6409C166.359 63.9138 166.427 64.2208 166.427 64.5278V77.8317C166.427 78.2752 166.052 78.6504 166.325 79.1621C166.598 79.5715 166.495 80.0832 166.154 80.4243C166.768 81.0383 166.325 81.6865 166.154 82.4028C165.984 83.051 165.779 83.665 165.609 84.3814C165.745 84.4155 165.916 84.4496 166.052 84.4837C166.052 84.5861 166.223 84.6543 166.154 84.7566C166.052 85.3706 166.052 86.1211 165.984 86.7352C165.984 86.8375 165.881 86.9057 165.984 86.9057C166.53 87.6221 166.154 88.3384 165.813 89.1572C166.973 90.6922 166.359 92.3979 166.53 94.2058C166.257 94.3764 166.086 94.547 165.813 94.7516C165.916 94.854 166.018 94.9904 166.086 95.1269C165.643 95.7409 165.916 96.4914 165.813 97.0031C165.472 97.7194 165.097 98.2652 164.722 98.8793L164.824 98.9816C164.449 99.5274 164.005 100.039 163.562 100.517H162.129C162.231 100.79 162.402 101.062 162.572 101.335C163.118 101.711 163.732 102.052 164.449 102.495C164.38 102.632 164.278 102.734 164.176 102.836C164.551 103.28 164.824 103.826 165.165 104.269C165.609 104.713 166.154 104.985 166.53 105.361C167.246 108.431 166.871 111.569 166.973 114.605C167.075 117.641 166.973 120.711 166.973 123.782V135.55C166.939 136.13 166.871 136.676 166.802 137.256C166.871 137.427 166.973 137.563 167.075 137.699C167.246 138.041 166.632 138.416 167.075 138.859C167.348 139.132 167.075 139.746 167.178 140.292C167.28 141.384 166.905 142.271 166.564 143.158C166.223 144.044 165.745 144.897 165.199 145.682C164.312 146.773 163.221 147.217 162.129 147.831C161.549 148.104 160.901 148.206 160.253 148.172C157.899 148.172 155.579 148.616 153.26 148.445C151.725 148.991 150.292 148.172 148.757 148.445C148.313 148.547 147.87 148.274 147.392 148.718C147.29 148.82 146.949 148.718 146.676 148.616C145.414 148.172 144.152 148.445 142.821 148.513C142.31 148.479 142.207 148.581 142.139 148.65ZM165.199 133.026C165.199 133.163 165.267 133.299 165.37 133.401L165.472 133.333L165.199 133.026C165.131 132.958 165.029 132.855 165.029 132.753L164.926 132.855C164.926 133.026 165.029 133.026 165.199 133.026ZM145.175 85.5412C145.175 85.4048 145.107 85.2683 145.004 85.2001L144.902 85.3024C145.004 85.4048 145.073 85.473 145.789 84.9613C145.618 85.3024 144.97 85.4048 145.175 85.9506C145.516 86.1211 145.789 86.394 146.062 86.4964C145.618 87.1104 145.891 87.6562 146.062 88.3043C146.233 88.8501 145.96 89.4642 145.891 90.1123C145.925 90.1464 145.96 90.2146 145.994 90.2829C146.096 91.8179 146.096 93.4212 146.164 94.7857C146.881 94.8881 147.597 95.1269 148.211 94.9563C148.313 95.2292 148.382 95.3998 148.484 95.6727C148.791 95.5703 149.098 95.468 149.371 95.3315C149.951 95.3657 150.531 95.468 151.077 95.6044C151.793 95.2292 152.236 94.9563 152.782 94.7175C152.236 93.5577 152.441 92.3979 152.441 91.2039C152.441 90.931 152.543 90.4875 152.339 90.317C151.998 89.9759 152.168 89.6006 152.066 89.3277C152.066 89.0548 151.963 88.6113 152.168 88.4408C152.714 87.9973 151.725 87.8268 152.066 87.5539C152.612 87.1104 152.339 86.5646 152.339 86.1211C152.509 84.7566 152.066 83.3239 152.612 81.9935C152.714 81.7206 152.509 81.3795 152.509 81.1066C152.236 80.015 152.168 78.8551 152.612 77.9682C151.895 76.092 152.714 74.3864 152.714 72.749C152.168 72.4761 151.725 72.2032 151.179 71.9303C150.735 72.0326 150.19 71.7597 149.644 72.2032C149.303 72.4761 148.757 71.9302 148.211 72.2032C147.768 72.3737 147.051 72.2032 146.403 72.2032C146.301 72.4761 146.13 72.749 146.028 73.0219C145.926 73.5677 145.926 74.1135 146.028 74.6252C146.437 78.1729 145.618 81.5841 145.175 85.5412ZM152.441 126.476V124.43C152.475 123.747 152.373 123.099 152.168 122.451C151.998 122.11 152.066 121.564 152.168 121.018C152.27 120.575 152.339 120.029 152.441 119.586C152.714 118.051 151.998 116.618 152.441 115.083C152.543 114.742 152.27 114.366 152.27 114.196C152.612 112.661 151.656 111.228 152.543 109.898C152.27 109.352 152.1 108.806 151.827 108.192C151.384 108.328 150.906 108.465 150.462 108.635C150.36 108.533 150.19 108.465 150.019 108.26C149.848 108.499 149.678 108.772 149.576 109.079C149.03 108.738 148.416 108.738 148.313 108.09C147.972 108.635 147.426 108.363 147.051 108.431L146.233 109.25C146.267 109.591 146.267 109.898 146.233 110.239C145.789 110.853 145.891 111.399 146.13 112.115C146.301 112.593 146.335 113.138 146.233 113.65C145.789 114.844 145.789 116.14 146.233 117.334C146.301 117.675 146.233 118.016 146.062 118.323C145.857 118.835 145.925 119.415 146.233 119.859C145.755 120.404 145.755 121.223 146.233 121.735C145.618 122.451 145.789 123.338 145.891 123.986C146.233 126.135 146.233 127.227 145.891 129.103C145.789 129.819 145.721 130.536 146.062 131.082C145.789 132.514 145.516 133.879 145.346 135.209L147.222 136.574C147.495 136.301 147.768 136.13 148.04 135.857C148.757 136.574 149.576 136.13 150.36 135.96C150.497 136.164 150.633 136.403 150.804 136.574H152.066C152.339 135.96 152.68 135.414 152.953 134.766C152.782 134.595 152.612 134.425 152.509 134.22V127.466C152.782 127.295 152.953 127.193 153.328 126.92C152.884 126.749 152.714 126.579 152.441 126.476ZM131.871 95.9456C131.53 96.1161 131.257 96.3208 130.779 96.5937H131.871V95.9456ZM133.508 118.494H133.781C133.781 118.323 133.679 118.153 133.679 117.948H133.508V118.494ZM133.508 90.931H133.679V90.317H133.508V90.931ZM153.533 77.2859H153.703V76.6719H153.533V77.2859ZM154.692 128.114V128.216H155.034V128.114H154.692Z" fill="black"/>
<path d="M96.9407 148.308C96.4973 148.411 95.9515 148.206 95.508 148.581C95.0645 148.786 94.5529 148.684 94.2458 148.308C93.9388 148.718 93.393 148.786 92.9837 148.479C92.5402 148.104 92.2673 148.752 91.8921 148.581C91.585 148.411 91.2439 148.308 90.9028 148.308C90.7322 148.308 90.5617 148.479 90.357 148.581C89.3677 147.865 88.3102 147.149 87.2869 146.432C86.8093 146.057 86.5023 145.511 86.3999 144.897C86.2976 144.351 86.2294 143.806 86.127 143.294C85.7518 142.168 85.5471 140.974 85.513 139.78V124.054C85.4789 123.509 85.6153 122.929 85.8541 122.451C86.0247 122.178 86.1952 121.905 86.127 121.632C86.0247 121.189 85.7859 120.745 85.8541 120.37C85.9224 119.995 86.1952 119.654 86.127 119.21C86.0247 118.494 86.2976 117.675 85.8541 116.959C85.7518 116.857 85.8541 116.788 85.8541 116.686C85.8541 116.14 85.7518 115.526 85.9565 115.151C86.3317 114.605 85.513 114.435 85.7859 113.889C86.0588 113.445 85.6836 112.9 85.9565 112.354C86.127 111.978 85.7859 111.467 85.7859 110.989C85.8882 109.829 85.513 108.635 86.0588 107.476C85.513 106.384 85.8882 105.224 85.7859 104.064C85.7859 103.621 85.6153 103.177 86.0588 102.7C86.1611 102.597 86.0588 102.256 85.9565 101.983C85.9565 101.813 85.7859 101.711 85.7859 101.608C85.6153 101.165 86.0588 100.721 85.8882 100.278C85.6836 99.8344 85.7518 99.3227 86.0588 98.9133C86.2294 98.6404 85.9565 98.0946 85.8882 97.5488L86.1611 97.2759C85.6153 96.9007 85.7177 96.1843 85.8882 95.8432C86.1611 95.2292 85.9906 94.6834 85.8882 94.1375C85.7859 93.1483 85.7859 92.159 85.8882 91.1697C85.9906 90.2828 85.5471 89.2935 86.1611 88.3725C86.2294 88.1337 86.1953 87.8608 86.0588 87.6561C85.7518 87.1103 85.7177 86.4281 85.9565 85.8482C86.127 85.4047 86.3317 85.0295 85.9565 84.586C85.6836 84.2449 86.2294 83.6991 86.0588 83.4944C85.7859 83.1533 85.8882 82.778 85.8882 82.4028C85.8882 81.9593 85.7859 81.3112 85.9906 81.243C86.5364 80.9701 85.5471 80.6289 86.0929 80.356C86.1952 80.049 86.1953 79.7761 86.1953 79.4691V78.3775C86.1611 78.0705 86.0247 77.7976 85.8541 77.5588C85.9565 77.4565 86.0247 77.2859 86.127 77.1835C86.0247 76.9789 85.9223 76.8083 85.7518 76.6377C85.8882 76.5013 86.0247 76.3648 86.127 76.1943C86.127 75.7508 85.4107 75.3074 86.0247 74.6592C86.2976 74.3863 86.1952 73.7723 86.2976 73.2265L85.7518 72.6807C85.8541 71.7937 85.5812 70.8727 86.0247 69.9858C86.1953 69.6446 86.0247 69.1671 85.9223 68.6554C85.6153 67.7343 85.6836 66.7451 86.0929 65.8581C85.9906 65.6194 85.8882 65.3806 85.82 65.1418C85.7177 64.8689 85.7177 64.5277 85.9223 64.4254C86.3658 64.1525 85.82 63.9819 85.9223 63.709C86.0247 63.6067 86.0929 63.4703 86.0929 63.3338C85.9565 62.788 85.8541 62.2763 85.82 61.7305C85.82 61.287 86.0929 60.8436 86.2635 60.1272L86.9116 59.5132C87.6621 59.6496 88.4126 59.752 89.163 59.7861C89.8794 59.8202 90.5617 59.9908 91.2098 60.2296C91.6533 60.1272 91.9262 59.1379 92.6425 59.6837C92.7449 59.9225 92.8472 60.1613 92.9154 60.4001C93.2225 60.1613 93.5295 59.8884 93.8024 59.5814C94.6211 59.5814 95.508 59.4791 96.3267 59.9566C96.7702 59.6837 97.1454 60.4001 97.6912 59.9566C97.9641 59.6837 98.5782 59.9566 99.124 59.9566C99.4992 60.2296 99.9427 60.5025 100.557 60.9459C100.25 61.0824 99.9085 61.1847 99.5674 61.287C99.8403 62.9927 100.181 64.6983 99.6698 66.5063C100.045 69.3035 100.045 71.0092 99.5674 71.7937C99.7039 72.2372 99.8062 72.6807 99.8403 73.1583V82.5051C99.8403 82.9486 99.738 83.3238 99.738 83.7673C99.738 84.2108 99.8062 84.6883 99.9085 85.1318C100.011 85.5753 99.738 86.1211 100.181 86.4963C99.4651 87.1444 100.284 87.6561 100.181 88.3043C100.147 88.9183 100.147 89.5664 100.181 90.1805C100.181 90.5216 100.352 90.8968 100.011 91.1697C99.9085 91.2721 99.8403 91.6132 99.9085 91.7155C100.454 92.5343 100.181 93.3188 100.181 94.1375V103.655C100.181 104.201 100.352 104.815 100.079 105.19C99.738 105.736 100.42 105.906 100.25 106.452C100.079 106.896 100.25 107.544 100.147 107.987C100.079 108.397 100.011 108.84 99.8744 109.249C99.9768 109.352 100.045 109.42 100.045 109.522C99.8744 109.966 99.7721 110.409 99.6015 110.887C99.7721 111.535 100.147 112.251 100.147 113.036V121.359C100.147 122.076 99.8744 122.895 99.8744 123.611C99.7721 124.327 100.045 125.146 99.7721 125.862C99.431 126.954 99.6015 127.841 99.7721 128.83C99.8744 129.274 99.6698 129.717 99.4992 130.263C100.318 130.979 99.2263 131.696 99.1581 132.514C99.2604 132.685 99.3286 132.958 99.4992 133.333C99.3969 133.469 99.2945 133.606 99.2263 133.776L99.4992 134.049C99.3969 134.152 99.2945 134.288 99.2263 134.391C99.8403 134.834 100.386 135.277 101.102 135.823C101.989 135.005 103.149 134.766 104.411 134.834C105.674 134.902 105.674 134.834 106.117 134.663C106.39 134.8 106.663 134.936 106.936 135.005C106.765 135.38 106.663 135.55 106.492 135.891V135.721C106.322 135.721 106.049 135.823 105.844 135.823V135.994C106.083 135.994 106.288 135.96 106.492 135.823C106.765 135.653 107.072 135.516 107.379 135.482C107.379 135.584 107.482 135.823 107.482 136.028L107.379 135.926C107.277 136.028 107.209 136.096 107.106 136.096L107.209 136.198C107.311 136.096 107.379 136.028 107.379 135.926C107.754 136.028 108.13 135.823 108.266 135.448C108.266 135.414 108.3 135.346 108.3 135.312C108.3 134.425 108.846 133.708 108.641 132.719C108.607 131.934 108.607 131.15 108.641 130.365C108.641 130.092 108.812 129.922 108.914 129.546C108.641 128.83 108.368 128.011 108.812 127.227C108.88 126.988 108.914 126.749 108.914 126.51V123.202C108.983 122.656 108.846 122.076 108.573 121.598C109.119 121.155 108.3 120.711 108.573 120.234C109.017 119.893 109.392 119.961 109.733 120.507C109.904 119.347 108.744 119.62 108.573 118.903V116.754L109.665 115.936C109.528 115.697 109.392 115.492 109.221 115.322C109.324 115.151 109.494 114.98 109.494 114.878C109.392 114.332 109.153 113.821 109.392 113.548C109.835 113.002 108.948 112.831 109.221 112.285C109.392 111.944 109.051 111.296 109.665 111.023C109.562 110.853 109.324 110.682 109.324 110.478C109.426 109.045 108.334 107.612 109.221 106.179C109.392 105.804 108.88 105.531 109.119 105.088C109.29 104.712 109.392 104.44 109.017 104.098C108.914 103.996 108.846 103.757 108.914 103.655C109.29 102.836 108.914 101.949 108.914 101.131C108.914 100.687 109.085 100.244 108.641 99.7661C108.471 99.5956 108.641 99.0498 108.744 98.7769C108.744 98.504 109.017 98.2311 108.914 98.0605C108.368 97.2418 108.641 96.5254 108.914 95.7067C109.017 95.5362 108.914 95.2633 108.914 95.0927V86.6328C108.914 86.2234 108.846 85.7799 108.744 85.3706C109.017 83.665 109.085 82.0275 108.641 80.4243C108.744 80.3219 108.812 80.1513 109.017 80.049C108.368 78.8892 108.573 77.5247 108.744 76.3648C108.846 75.3756 109.187 74.3863 108.914 73.4994C108.573 72.0666 108.744 70.7021 108.641 69.3717C108.641 68.9283 108.471 68.4848 108.914 68.0072C109.017 67.8026 109.017 67.5638 108.914 67.3932C108.368 66.4039 108.744 65.3123 108.744 64.2548C108.744 63.2656 109.29 62.2763 108.744 61.0141C109.017 61.0824 109.29 61.1506 109.562 61.1847L110.108 61.4576C110.142 61.287 110.211 61.0824 110.279 60.9118C110.04 60.8436 109.767 60.7071 109.562 60.5366C109.733 60.2637 109.904 59.9908 110.108 59.7179C111.541 60.6048 113.247 59.5473 114.782 60.4342C115.225 60.2637 115.669 59.7861 116.146 60.3319C116.59 59.9567 117.135 60.1613 117.579 60.059C118.125 59.8884 118.466 60.4342 119.114 60.1613C119.626 60.0249 120.137 60.0249 120.649 60.1613C121.127 60.2978 121.604 60.4342 122.082 60.6048C122.082 60.7754 122.184 60.8777 122.184 61.0483C122.457 61.1506 122.73 61.1506 123.071 61.2188C122.9 61.7646 122.798 62.2763 122.73 62.8221C122.969 62.9927 123.242 63.095 123.549 63.1974C122.832 64.3572 122.389 65.4488 123.446 66.6086C123.344 66.711 123.242 66.8474 123.173 66.9839C123.276 67.1544 123.446 67.325 123.617 67.5979C123.276 67.7684 123.003 67.939 122.798 68.0414C122.935 68.3143 123.071 68.5872 123.242 68.8601C123.037 68.9624 122.832 68.9965 122.593 69.0306C122.593 69.133 122.491 69.2012 122.491 69.3035C122.491 69.9175 122.389 70.5657 122.832 71.1115C123.549 71.9984 123.48 73.09 123.48 74.1816C123.48 74.5228 123.207 74.7957 123.207 75.1709C123.207 75.4438 123.48 75.8873 123.378 75.8873C122.935 76.2284 123.753 76.4331 123.48 76.7742C123.378 76.8765 123.48 77.0471 123.48 77.2177C123.378 77.6611 123.207 78.2069 123.378 78.3775C123.753 78.821 123.037 79.1962 123.48 79.7079C123.753 79.9808 123.48 80.5948 123.48 81.0383V87.2468C123.48 87.6903 123.31 88.2361 123.753 88.6795C123.856 88.9183 123.822 89.1912 123.651 89.3959C123.105 89.9417 123.651 90.2828 123.753 90.8286C123.651 90.9992 123.515 91.2039 123.378 91.3744C123.446 91.5109 123.549 91.6132 123.651 91.7155C123.549 92.6025 123.549 93.3188 123.48 93.967C123.31 94.6834 124.367 95.2974 123.48 95.9455C124.026 96.4913 123.822 97.1053 123.651 97.6512C123.48 97.9582 123.48 98.3334 123.651 98.6404C123.822 98.9474 123.89 99.2886 123.822 99.6297C123.378 100.073 124.094 100.448 123.822 100.79C123.549 101.165 123.48 101.608 123.549 102.052C123.515 102.529 123.515 103.007 123.549 103.484C123.992 104.747 123.822 105.906 123.822 107.169C123.822 107.51 123.992 107.885 123.549 108.158C123.446 108.26 123.446 108.601 123.446 108.772C123.89 109.966 123.89 111.262 123.446 112.456C123.412 112.797 123.412 113.104 123.446 113.445C123.344 113.889 123.617 114.435 123.173 114.98C123.003 115.151 123.071 115.697 123.276 115.97C123.549 116.618 123.549 117.368 123.276 118.051C123.207 118.426 123.276 118.801 123.446 119.142C123.344 119.483 123.276 119.961 123.173 120.302C123.003 120.745 123.515 121.018 123.344 121.564C123.173 122.008 123.242 122.451 123.173 122.895V125.589C123.071 126.579 123.276 127.466 122.9 128.455C122.662 129.103 122.73 129.819 123.071 130.433C123.139 130.502 123.173 130.604 123.173 130.706C123.173 131.32 122.559 131.866 123.071 132.685C123.446 133.128 123.173 134.049 123.173 134.663C123.173 135.38 123.344 136.198 123.173 136.915C122.798 138.348 123.003 139.78 122.9 141.213C122.798 142.271 122.252 143.192 121.809 144.078C121.468 144.897 120.444 145.511 119.66 146.159C118.432 147.046 116.931 147.49 115.43 147.422C114.884 147.422 114.27 147.251 113.724 147.694C113.622 147.524 113.451 147.353 113.451 147.251C112.36 146.705 111.643 147.524 110.756 147.353C109.938 147.251 109.051 147.626 108.505 147.183C107.891 147.285 107.243 147.456 106.799 147.285C106.254 147.012 105.605 146.944 104.991 147.115C103.729 147.558 102.399 147.285 101.137 147.387C100.864 147.387 100.693 147.558 100.42 147.66C99.6015 147.319 98.8852 147.319 97.7253 147.66C97.5889 148.65 97.1113 148.922 96.9407 148.308C97.0431 148.274 97.1113 148.172 97.2136 148.104L97.1113 148.001C97.1113 148.138 97.0431 148.206 96.9407 148.308ZM87.4233 73.8746C87.4233 73.7382 87.3551 73.6017 87.2527 73.4994L87.1504 73.6017C87.2527 73.7382 87.4574 73.7723 87.5939 73.7041C87.3892 73.977 87.1504 74.2157 86.8775 74.4204C87.1504 74.3522 87.4233 74.3181 87.6962 74.3181C87.7985 74.1134 87.7303 73.9428 87.4233 73.8746ZM120.376 62.0034C120.751 62.174 120.99 62.2763 121.536 62.5492C121.195 61.9352 121.093 61.6623 120.922 61.287C120.82 61.5599 120.615 61.7987 120.376 62.0034ZM97.9641 60.8436C98.0324 61.0483 98.0665 61.2529 98.0665 61.4576C98.2029 61.2188 98.3394 61.0141 98.5099 60.8436H97.9641ZM99.1922 61.1847H98.9534C98.9534 61.3553 99.0557 61.5599 99.0557 61.7305H99.2263V61.1847H99.1922ZM94.5187 61.4576H94.6211V61.1165H94.5187V61.4576ZM89.6065 74.4886H89.5042V74.8639H89.6065V74.4886Z" fill="black"/>
<path d="M194.399 135.994C195.014 136.164 195.832 135.721 196.378 136.267C196.617 135.926 196.89 135.653 197.197 135.38V134.288C197.299 133.845 197.367 133.401 197.47 132.924C197.299 132.821 197.129 132.821 196.924 132.753L196.822 132.651C196.685 131.866 196.685 131.082 196.719 130.297C196.821 129.581 197.06 128.933 196.549 128.25C196.446 128.012 196.48 127.739 196.651 127.534C196.924 127.193 197.026 126.818 196.651 126.442C196.207 125.999 197.094 125.453 196.549 125.01C196.89 124.293 196.378 123.475 196.549 122.758C196.719 121.939 196.378 121.053 196.822 120.166C196.89 119.859 196.856 119.552 196.719 119.279C196.446 118.733 196.378 118.085 196.549 117.471C196.89 115.765 196.89 115.663 196.549 114.332C196.378 113.616 196.276 112.9 196.822 112.251C196.003 110.887 196.992 109.181 196.105 107.749L195.559 108.021C195.116 107.032 193.854 107.203 193.308 105.941C193.308 105.668 194.127 105.224 193.41 104.678C193.751 103.86 192.967 102.973 193.513 102.154C193.581 102.018 193.615 101.847 193.615 101.711C193.717 100.994 193.001 100.346 193.513 99.5615C193.854 99.0157 193.342 98.1288 193.854 97.4807C193.854 96.1162 193.854 96.0479 194.297 94.7858C194.57 94.8881 194.911 94.8881 195.184 94.9563C196.276 94.854 197.333 94.6834 198.493 94.6152C198.664 94.7858 198.8 94.9563 198.936 95.161C199.312 94.9904 199.687 94.7858 200.028 94.5129C200.915 94.9563 201.904 94.9904 202.825 94.6152C203.269 95.161 203.917 94.8881 204.531 94.7858C204.838 94.6834 205.111 94.6152 205.418 94.6152C206.578 94.8881 206.578 94.8881 207.942 94.6152C208.454 94.5811 208.966 94.5811 209.477 94.6152C209.375 94.8881 209.307 95.161 209.204 95.4339C210.091 96.5937 210.808 97.9582 210.091 99.6639C210.228 99.8685 210.33 100.141 210.364 100.38C210.262 101.097 209.921 101.745 210.364 102.529C210.705 103.246 210.467 104.133 210.467 105.054V107.407C210.467 107.953 210.569 108.465 210.194 109.011C209.921 109.488 209.921 110.068 210.194 110.546C210.535 111.092 210.467 111.637 210.467 112.149V118.528C210.467 119.074 210.569 119.62 210.194 120.131C210.023 120.404 210.296 120.95 210.364 121.667C210.262 121.905 210.194 122.144 210.194 122.383C210.296 123.475 210.091 124.532 210.364 125.624C210.705 126.613 210.637 127.739 210.194 128.694C210.023 129.069 210.194 129.581 210.091 130.126C210.091 130.399 209.921 130.672 209.818 131.218C210.057 131.662 210.262 132.139 210.364 132.651C210.432 133.094 210.364 133.572 210.194 134.015C209.955 134.527 209.955 135.107 210.194 135.619C210.296 135.789 210.296 135.96 210.364 136.164C210.535 136.778 209.546 137.324 210.364 137.972C210.262 138.621 210.535 139.235 210.091 139.78C210.535 140.394 210.262 141.043 209.989 141.759C209.818 142.373 209.818 143.192 209.648 143.84C209.477 144.351 209.204 144.863 208.829 145.273C208.386 145.716 207.942 146.262 207.465 146.808V146.978C204.77 148.411 201.973 149.23 198.834 148.513C197.845 149.127 196.412 148.343 195.252 148.957C194.979 148.82 194.707 148.684 194.434 148.513C193.82 148.616 193.069 148.786 192.353 148.957L191.466 148.513L191.363 148.616C191.159 148.923 190.784 148.991 190.477 148.786C190.442 148.752 190.408 148.718 190.374 148.684C189.999 148.343 189.828 149.059 189.487 148.854C189.146 148.684 188.771 148.616 188.396 148.581C187.85 148.991 187.099 148.957 186.588 148.479C185.871 148.82 185.155 149.025 184.439 148.479C183.722 148.82 182.904 149.093 182.119 148.479C181.948 148.547 181.812 148.684 181.675 148.82C177.65 147.66 178.094 147.387 176.456 145.852C176.627 144.761 175.296 144.59 175.296 144.044C175.023 142.236 174.853 140.804 174.58 139.2C175.569 138.211 174.137 136.847 174.751 135.687C174.648 135.243 174.478 134.698 174.648 134.322C174.989 133.333 174.819 132.446 174.751 131.457C174.751 131.355 174.58 131.286 174.58 131.286C174.682 131.116 174.853 130.945 174.853 130.741C174.682 129.035 175.194 127.329 174.58 125.624C175.023 124.532 174.137 123.475 174.478 122.383C174.921 121.121 174.751 119.961 174.751 118.699C174.853 117.539 174.205 116.447 174.375 115.39C174.546 114.571 174.546 113.684 174.751 112.865C174.853 112.32 174.375 111.876 174.648 111.33C174.819 110.887 174.546 110.239 174.989 109.898C174.819 108.908 175.16 107.919 174.716 106.828C174.409 106.077 174.478 105.258 174.887 104.576C174.785 103.86 174.716 103.314 174.614 102.768C175.433 101.949 175.331 101.062 175.228 100.176C175.023 100.073 174.819 100.005 174.614 100.005C174.751 99.6298 174.853 99.2204 174.887 98.8452C174.887 98.504 175.058 98.0265 174.614 97.6853C175.228 97.4124 174.273 97.0713 174.785 96.5937C174.887 96.5937 174.955 96.5596 175.058 96.4914C175.058 96.4232 175.092 96.3549 175.16 96.3208C175.058 96.1503 174.887 96.0479 174.887 95.9797C175.058 94.4446 174.546 93.0119 174.546 91.4768V86.9057C174.546 86.6328 174.716 86.4623 174.819 86.1894C174.375 85.9165 174.648 85.3707 174.546 84.9272V83.4945C174.546 83.1533 174.205 82.5052 174.273 82.4029C174.887 81.857 174.102 81.5842 174.171 81.1407C174.273 81.0384 174.341 80.8678 174.512 80.6972C173.966 80.0832 174.341 79.1622 174.068 78.5481C173.727 77.7294 173.727 76.7743 174.068 75.9556C174.171 75.785 174.068 75.4098 174.068 75.1369V71.4527C174.102 69.9517 174.205 68.4508 174.444 66.9498C174.58 66.2676 174.648 65.5853 174.716 64.8689C174.887 63.8797 175.535 63.1633 176.149 62.4469C176.695 61.8329 177.309 61.2871 177.957 60.639C178.401 60.5707 178.81 60.4002 179.117 60.0932C179.936 59.3768 180.004 59.445 180.993 59.9226H181.164C181.368 59.6838 181.675 59.5474 181.982 59.5815H187.611L187.713 59.6838L187.986 59.9567C188.6 59.8544 189.078 59.3427 189.794 59.8544C190.067 60.0249 190.784 59.9567 191.227 59.752C191.841 59.5815 192.319 59.5815 192.762 59.9226C193.376 59.5815 194.024 59.3768 194.638 59.752C195.184 60.0249 195.525 60.1273 196.071 59.752C196.242 59.5815 196.685 59.6497 196.958 59.6497C197.504 59.752 198.118 59.3768 198.561 59.9226C199.005 59.5815 199.653 59.6497 200.165 59.6497H201.87C202.348 59.6497 202.791 59.752 203.235 59.9226C203.576 60.0932 204.326 59.8203 204.599 60.0249C205.043 60.2978 205.588 60.1273 205.861 60.2978C206.851 61.1165 208.113 61.56 208.556 62.8904C208.693 63.2998 208.897 63.6409 209.17 63.982C209.068 64.8689 209.341 65.8582 209 66.8475L209.17 67.018C209.341 67.4615 208.556 67.6321 209 68.1779C209.17 68.3484 208.829 68.8942 208.897 69.2695C209 70.2587 208.624 71.3503 209.17 72.3055C209.273 72.5784 209.273 72.8513 209.17 73.1242C209.034 73.4995 208.931 73.9088 208.897 74.284C208.897 74.7275 208.727 75.171 209.068 75.6144C209.239 75.785 208.897 76.3308 208.897 76.706C208.897 77.1495 209 77.593 209 78.0364C209 78.4799 208.829 78.9234 208.897 79.4009C209 80.2196 208.624 81.0042 208.454 81.9253C207.908 81.8229 207.294 81.7547 206.578 81.6524C205.759 82.0958 204.702 81.8229 203.712 81.8229C202.621 81.9253 201.461 81.7206 200.403 81.8229C199.312 81.9253 198.425 81.4818 197.333 81.4818C196.787 81.0384 196.617 80.5949 197.163 80.0491L196.822 79.6738C196.992 79.5715 197.163 79.5033 197.367 79.5033C197.367 79.4009 197.401 79.3327 197.47 79.2304C197.197 78.8551 197.197 78.514 197.129 78.0705C197.129 77.3542 197.299 76.5355 196.856 75.8191C196.753 75.7168 196.856 75.3756 196.958 75.2733C197.401 74.7275 197.231 74.3864 196.856 74.1135C197.026 73.5677 197.129 72.9878 197.197 72.4078H196.105C195.832 72.1349 195.559 71.9644 195.286 71.6915C195.184 71.7938 195.014 71.7938 194.945 71.862C194.4 72.2714 193.717 72.442 193.069 72.4078C192.08 72.3055 191.022 72.5102 189.999 72.1349C189.385 71.9644 188.634 72.3055 187.952 72.4078C187.679 73.5677 187.952 74.5569 188.293 75.5462C188.396 75.8873 188.464 76.2626 188.464 76.6378C188.089 78.6163 188.02 78.7187 188.464 80.4925V80.936C188.634 81.4818 187.748 81.9253 188.362 82.6416C188.634 83.0169 188.464 83.7333 188.464 84.3473V86.2235C188.464 86.5987 188.634 87.0422 188.191 87.3833C188.089 87.4856 188.02 87.8268 188.089 87.9291C188.634 88.5773 188.362 89.3618 188.362 90.01C188.464 91.2722 188.089 92.5343 188.703 93.6941V93.9671L188.43 95.8433C189.044 96.3891 188.703 97.1054 188.703 97.8218C188.805 98.7087 188.157 99.6298 188.362 100.517C188.532 101.233 188.191 101.949 188.634 102.563C188.805 102.836 188.737 103.28 188.634 103.655C188.498 103.962 188.396 104.303 188.362 104.644C188.362 104.985 188.634 105.258 188.634 105.634C188.634 106.179 188.191 106.896 188.362 107.237C188.703 107.783 188.532 108.328 188.634 108.84C188.634 109.011 188.464 109.181 188.464 109.386C188.464 109.727 188.566 110.102 188.566 110.75C188.225 111.092 188.225 111.672 188.566 112.013C188.6 112.047 188.634 112.047 188.634 112.081C188.089 113.172 188.191 114.162 188.532 115.39C188.259 115.936 187.986 116.652 188.634 117.471C188.293 117.88 188.191 118.46 188.362 119.006C188.634 119.824 188.703 123.236 188.464 124.123C188.464 124.225 188.396 124.293 188.293 124.293C188.839 124.839 188.634 125.453 188.464 125.999C188.191 126.511 188.191 127.125 188.464 127.602C188.737 128.114 188.634 128.694 188.293 129.137C188.634 129.854 188.839 130.57 188.293 131.286C188.43 131.423 188.532 131.559 188.634 131.73C188.464 132.003 188.191 132.276 188.089 132.446C188.191 132.992 188.259 133.538 188.362 133.981C188.02 134.527 187.372 134.8 187.372 135.414C187.713 135.789 187.645 135.141 187.713 135.243C188.6 135.414 189.146 135.96 190.033 135.687C190.477 135.516 191.125 135.857 191.568 136.062C191.909 135.789 192.182 135.482 192.489 135.175C192.66 135.312 192.83 135.448 193.035 135.516C193.171 135.38 193.308 135.277 193.478 135.175C194.297 135.55 194.399 135.687 194.399 135.994C194.229 135.994 194.229 136.062 194.127 136.164L194.229 136.267C194.229 136.199 194.297 136.096 194.399 135.994ZM198.971 129.512C198.425 129.615 198.152 129.615 197.606 129.683C197.811 129.99 198.05 130.297 198.322 130.57C198.595 130.263 198.8 129.922 198.971 129.512ZM194.741 138.245C195.014 137.699 195.73 137.631 195.457 136.881C195.286 137.358 194.502 137.427 194.741 138.245ZM198.152 132.412C198.254 132.412 198.254 132.514 198.322 132.514C198.459 132.276 198.595 132.003 198.664 131.696C198.493 131.525 198.391 131.355 198.322 131.252C198.22 131.355 198.152 131.423 198.152 131.525V132.412ZM207.703 66.8475C207.908 66.7793 208.113 66.7451 208.317 66.7451C208.079 66.6087 207.874 66.4722 207.703 66.3017V66.8475ZM208.42 143.908H208.59V143.294H208.42V143.908ZM207.806 136.915H207.908V136.574H207.806V136.915ZM205.725 96.3208H205.623V96.662H205.725V96.3208ZM206.612 62.0717H206.509V62.4469H206.612V62.0717ZM179.151 62.2764V62.174H178.81V62.2764H179.151Z" fill="black"/>
<path d="M55.0141 147.149C55.1847 147.694 55.287 147.967 55.3552 148.24C54.1613 148.684 52.9332 149.025 51.6711 149.23C51.3982 148.786 50.7841 149.059 50.3065 149.059H47.0658C46.5542 149.093 46.0425 149.025 45.5308 148.888C44.985 148.786 44.6438 149.161 44.1663 149.059C43.7228 148.888 43.2452 148.786 42.7676 148.684C42.563 148.172 42.3924 147.66 42.2219 147.149C42.0513 147.046 41.676 146.705 41.4031 146.535V134.322C41.369 133.776 41.3349 133.231 41.2326 132.719C41.3008 132.446 41.369 132.173 41.4031 131.9C41.4373 131.218 41.4373 130.536 41.4031 129.819C41.2326 127.397 41.676 124.975 41.676 122.553C41.6078 122.008 41.5396 121.462 41.4031 120.95C41.5055 120.848 41.6078 120.745 41.676 120.609C41.1302 120.166 41.5737 119.347 41.062 118.733C40.9597 118.596 40.9597 118.426 41.062 118.289C41.676 117.13 41.4031 115.936 41.062 114.776C41.3349 114.059 42.3242 113.889 42.0513 113.07C41.6078 112.797 41.2326 112.524 40.7891 112.251C40.5162 112.354 40.2433 112.524 39.9704 112.593C39.8681 112.422 39.7998 112.422 39.7998 112.32C39.254 109.181 39.5269 106.043 39.4587 102.973C39.4587 102.495 39.5269 101.983 39.7316 101.54C39.8681 101.062 40.0386 100.619 40.2774 100.176C40.5503 99.7321 40.448 99.0157 41.369 98.9134V96.2184C41.369 96.1161 41.1985 95.9455 41.1985 96.0479C41.3008 95.5021 41.369 94.9904 41.369 94.4446V84.893C41.4031 84.5178 41.4373 84.1767 41.5396 83.8014C41.5396 83.8014 41.369 83.6991 41.369 83.6309C41.2667 82.5393 40.9938 81.3794 41.1985 80.3219C41.5396 78.4457 41.0279 76.4672 41.5396 74.4887C41.4373 74.3181 41.3349 74.1475 41.2667 73.9429C41.3349 73.8064 41.4373 73.7041 41.5396 73.6017C41.4373 72.8854 41.369 72.169 41.369 71.4526C41.369 71.0774 41.2667 70.7363 41.5396 70.4634C41.6419 70.361 41.7102 70.0199 41.6419 69.9176C41.0279 68.9283 41.4714 67.7685 41.369 66.6769C41.2667 65.8582 41.6419 65.0736 41.0961 64.2549C40.9938 64.1184 40.9938 63.9479 41.0961 63.8114C41.7102 62.9245 41.2667 61.8329 41.4373 60.8436C41.7102 60.673 42.0513 60.4001 42.5971 60.0249C43.3134 60.1272 44.1322 60.2978 44.9509 60.4001C45.8378 60.4343 46.7588 60.4343 47.6458 60.4001C48.0892 60.4001 48.7374 60.673 49.0785 60.1272C49.2832 60.0249 49.522 60.0249 49.6925 60.1272C51.2276 60.5025 51.2276 60.5707 52.9332 60.1272C53.3767 60.0249 53.7519 60.7754 54.0931 60.2296C54.8094 60.673 55.6964 59.6838 56.4468 60.5025C56.5492 60.6048 56.7197 60.5025 56.8903 60.5025C57.1632 60.5025 57.5043 60.3319 57.7772 60.3319C58.1183 60.3319 58.4936 60.5025 58.8688 60.5025C59.6193 60.5025 60.3698 60.4001 61.1203 60.2296C62.3824 59.9567 63.7128 60.4001 64.975 60.8436C65.1456 60.7413 65.2479 60.5707 65.3502 60.5025C65.7937 60.6048 66.1689 60.7754 66.6124 60.8436C66.6806 60.6389 66.783 60.4343 66.8853 60.2296C66.9876 60.2296 67.0559 60.1272 67.1582 60.1272C67.8746 60.5025 68.4204 60.5025 69.3073 60.5025C70.0237 60.5025 70.8424 60.2296 71.5587 60.8436C71.7293 60.7413 71.8658 60.6389 72.0022 60.5025C73.6055 60.8436 75.1406 61.3212 76.2322 63.0268C76.2322 62.9245 76.1298 63.1974 76.2322 63.3679C76.9485 64.3572 76.8803 65.517 76.8803 66.6086V69.6447C76.9144 70.054 76.9827 70.4293 77.1532 70.8045C76.778 71.248 76.7098 71.8961 77.2556 72.6125C77.1191 72.9195 77.0168 73.2606 76.9827 73.6017V77.8999C76.9827 78.8892 76.7098 79.8785 76.8803 80.8677C76.9827 81.857 77.1532 82.7439 76.778 83.665C77.3238 84.0402 76.778 84.3814 76.778 84.5519C76.9144 84.9613 76.9827 85.3706 77.0509 85.8141V96.9348C77.0509 97.4806 76.6756 97.8217 76.9485 98.4699C77.2214 98.9133 76.8462 99.5615 76.6757 100.073C76.5733 100.244 76.5733 100.687 76.778 100.79C77.1532 101.131 77.0509 101.608 77.0509 101.949V107.51C77.0509 108.226 75.9593 111.092 75.5158 111.467C74.97 111.91 74.4242 112.286 73.8102 112.627C73.5373 112.524 73.2644 112.422 72.9915 112.354C72.855 112.661 72.6503 112.968 72.4457 113.241C71.934 113.275 71.4223 113.275 70.9106 113.241C70.4671 113.138 70.0919 113.786 69.7508 113.241C69.6143 113.275 69.512 113.343 69.3755 113.411C68.5568 113.684 68.3863 113.684 67.6699 113.309C67.1241 113.411 66.6124 113.479 66.0666 113.479H56.1057C55.8669 113.65 55.594 113.821 55.3893 114.025C55.5599 114.298 55.6964 114.537 55.8328 114.844C55.7305 115.015 55.6622 115.117 55.5599 115.287C55.7305 115.731 55.901 116.174 56.1057 116.55C56.0034 117.164 55.7305 117.914 55.9351 118.358C56.3786 119.79 56.208 121.325 56.0375 122.758C56.0375 123.031 56.208 123.372 56.208 123.645V126.34C56.208 126.613 56.3786 126.783 56.4809 127.056C56.3445 127.466 56.2422 127.875 56.208 128.318V131.389C56.208 132.48 56.3786 133.538 55.9351 134.629C55.6964 135.175 55.7646 135.789 56.1057 136.233C56.2763 136.437 56.3104 136.71 56.208 136.949C55.7646 137.768 56.7538 138.655 55.9351 139.371L56.1057 139.542V146.603C55.7305 146.432 55.3552 146.773 55.0141 147.149ZM53.8202 98.5381C53.8202 98.4017 53.7519 98.2652 53.6496 98.197L53.5473 98.2993C53.6496 98.4699 53.7519 98.4699 53.8202 98.5381C53.9225 98.6404 53.9907 98.7428 53.9907 98.811L54.0931 98.7087C54.0931 98.6404 54.0248 98.5381 53.8202 98.5381ZM56.0716 96.8325C55.4234 97.1736 55.2529 97.4465 55.0823 98.4358C55.7987 98.4358 55.901 99.2545 56.6174 99.5274C57.3338 99.7321 58.1184 99.8344 58.8688 99.8003C59.9604 99.8003 61.0179 99.6297 62.1778 99.5274C62.3483 99.6979 62.6212 99.8685 62.7918 100.073C62.5189 99.2545 62.3483 98.5381 62.7918 97.6512C62.9965 97.9582 63.2353 98.2311 63.5082 98.4699C63.6105 98.6404 63.7811 98.7428 64.2245 99.0157C64.054 97.9241 63.8493 97.0371 63.6787 96.2184L63.1329 97.583C62.9624 96.2184 61.5296 95.0586 62.5871 93.7282C62.4165 93.4553 62.3142 93.2848 62.1436 93.0119C62.3483 92.8754 62.5871 92.739 62.7577 92.5684C62.6553 92.2273 62.553 91.9203 62.4848 91.5791V88.0655C62.4848 87.7244 62.2119 87.3492 62.2119 86.9057C62.1095 86.4963 62.1095 86.0529 62.2119 85.6435C62.3824 84.9954 62.7577 84.4837 62.2119 83.8355C62.0413 82.1299 62.4848 80.3219 61.939 78.6163C62.5871 77.4565 62.0413 76.2625 62.3142 75.1027L62.7577 74.6592C62.4848 74.0452 62.3142 73.3971 62.0413 72.783L60.7109 73.0559C60.6086 72.8854 60.6086 72.6807 60.5404 72.5101C59.9945 72.9536 59.6534 72.3396 59.1076 72.5101C58.5618 72.5443 58.016 72.5443 57.5043 72.5101H56.0716C55.7987 73.1242 55.5258 73.7723 55.3552 74.3181L55.901 74.8639C55.901 75.3074 56.0716 75.8532 55.901 76.1943C55.6281 76.7401 56.0716 77.0812 55.901 77.5247C55.4576 78.7869 55.4576 80.1514 55.901 81.3794C56.0716 81.8229 55.7987 82.471 55.7305 83.0851C56.8221 83.9038 55.0141 85.0636 55.901 86.0529V93.2506C56.0375 94.4446 56.1057 95.6385 56.0716 96.8325ZM42.5971 83.6309C43.2452 83.1874 43.1429 82.6416 42.9723 81.9252C42.7335 82.1299 42.4947 82.3005 42.256 82.471C42.3242 82.8804 42.4265 83.2556 42.5971 83.6309ZM42.3583 119.927C42.5289 120.37 42.7335 120.814 43.3476 120.643C43.177 120.336 43.0064 119.995 42.9041 119.654C42.6994 119.824 42.5289 119.824 42.3583 119.927ZM57.0609 101.438C57.4361 101.335 57.709 101.335 58.1525 101.267C57.8113 101.097 57.4361 100.96 57.0609 100.824V101.438ZM42.4265 81.5841L42.5971 81.7547C42.7676 81.7547 42.87 81.6523 43.0406 81.6523C43.0064 81.3794 42.9382 81.1065 42.87 80.8336C42.6994 81.2089 42.5289 81.3794 42.4265 81.5841ZM58.9712 101.438C59.1758 101.369 59.3805 101.335 59.6193 101.335C59.3805 101.199 59.1758 101.062 58.9712 100.892V101.438ZM61.8366 101.165V101.267H62.1778V101.165H61.8366ZM52.5921 140.497V140.599H52.9673V140.497H52.5921ZM63.7128 95.775V95.8773H64.054V95.775H63.7128ZM40.8232 111.671V111.774H41.1644V111.671H40.8232ZM42.1877 114.162V114.264H42.5289V114.162H42.1877ZM42.6994 116.345H42.5971V116.686H42.6653L42.6994 116.345Z" fill="black"/>
</g>
<defs>
<clipPath id="clip0_181_361">
<rect width="250" height="250" fill="white"/>
</clipPath>
</defs>
</svg>
