<svg width="250" height="250" viewBox="0 0 250 250" fill="none" xmlns="http://www.w3.org/2000/svg">
<path d="M209.104 71.2571C215.787 72.8286 220.86 76.5075 223.987 83.3029C224.294 84.3383 224.647 84.7412 225 85.1441C225 85.1441 224.913 85.1362 224.701 85.4569C224.617 88.3766 224.851 90.9756 224.855 93.5748C224.9 129.318 224.913 165.061 224.934 200.804C222.96 209.847 217.205 214.832 207.634 216.035C206.174 215.627 205.313 215.476 204.452 215.476C150.872 215.461 97.2915 215.454 43.7112 215.488C42.6418 215.488 41.5727 215.974 40.5035 216.233C39.0043 215.756 37.505 215.278 35.6458 214.404C34.7213 213.656 34.1569 213.304 33.5925 212.952C33.5925 212.952 33.6552 212.932 33.5972 212.652C32.313 211.647 31.0868 210.921 29.8606 210.196C29.8606 210.196 29.5445 210.085 29.6268 209.632C28.1393 205.492 26.5697 201.806 25 198.12C25 197.734 25 197.347 25.2008 196.373C25.5568 194.363 25.847 192.941 25.8478 191.519C25.8725 149.47 25.8776 107.422 25.8325 65.3733C25.8309 63.8518 25.2897 62.3308 25 60.8096C25 59.8827 25 58.9557 25.2606 57.9456C28.9859 50.0889 34.5391 45.3849 43.4611 45.3975C46.7663 45.4021 50.0839 45.19 53.3743 44.8606C56.8944 44.5082 60.3756 43.7456 63.898 43.4401C69.668 42.9396 75.4687 42.7861 81.2361 42.2625C88.4884 41.6041 95.7081 40.5752 102.964 39.9699C112.491 39.1751 122.046 38.7248 131.576 37.9678C144.205 36.9647 156.825 35.8374 169.438 34.6536C170.293 34.5733 171.061 33.5726 171.87 33C175.945 33 180.02 33 184.5 33C185.202 33.561 185.359 34.3075 185.818 34.6528C188.685 36.8112 190.391 39.4103 190.17 43.2176C189.955 46.9344 190.393 50.7019 190.001 54.3897C189.827 56.0303 188.322 57.5298 186.673 59.0709C141.701 59.0507 97.4769 59.0437 53.2529 59.0888C51.4596 59.0906 49.6668 59.5849 47.8738 59.8497C45.298 64.099 46.2591 67.7115 51.2613 70.6611C52.8531 71.0647 53.855 71.2667 54.857 71.2669C106.273 71.2745 157.688 71.2649 209.104 71.2571ZM148.28 146.988C148.28 146.988 148.277 147.117 148.041 146.692C147.747 146.579 147.452 146.467 147.248 146.354C147.248 146.354 147.224 146.441 147.044 145.911C146.554 145.714 146.064 145.518 145.681 145.259C145.681 145.259 145.61 145.36 145.526 144.735C144.438 144.291 143.349 143.847 142.307 143.373C142.307 143.373 142.305 143.428 142.128 142.837C141.228 142.551 140.329 142.265 139.54 141.917C139.54 141.917 139.471 142.024 139.303 141.388C137.933 140.947 136.564 140.505 135.282 140.006C135.282 140.006 135.234 140.099 135.137 139.488C129.07 137.363 123.003 135.238 117.018 133.079C117.018 133.079 116.98 133.158 116.869 132.535C115.978 132.275 115.088 132.015 114.103 131.782C114.103 131.782 114.045 131.704 114.033 131.067C112.696 130.281 111.359 129.495 110.095 128.684C110.095 128.684 110.114 128.76 109.871 128.345C109.598 128.185 109.326 128.026 109.165 127.861C109.165 127.861 109.16 127.973 108.985 127.522C108.736 127.325 108.488 127.127 108.352 126.934C108.352 126.934 108.343 127.047 108.174 126.609C107.941 126.407 107.708 126.205 107.534 126.012C107.534 126.012 107.514 126.068 107.461 125.529C107.121 125.132 106.78 124.735 106.528 124.356C106.528 124.356 106.5 124.442 106.612 123.7C106.911 119.224 107.211 114.748 107.535 110.325C107.535 110.325 107.477 110.331 107.875 110.09C108.036 109.828 108.197 109.566 108.366 109.414C108.366 109.414 108.256 109.417 108.679 109.183C108.844 108.911 109.009 108.64 109.179 108.489C109.179 108.489 109.058 108.485 109.508 108.304C109.704 108.053 109.899 107.802 110.092 107.662C110.092 107.662 109.982 107.654 110.418 107.48C110.617 107.245 110.816 107.009 111.002 106.833C111.002 106.833 110.949 106.803 111.583 106.841C112.457 106.122 113.332 105.403 114.293 104.672C114.293 104.672 114.22 104.721 114.946 104.929C121.732 102.833 128.489 103.086 135.271 105.024C136.164 105.279 137.251 104.853 138.178 104.718C138.178 104.718 138.231 104.665 138.459 105.278C139.844 105.662 141.228 106.047 142.67 106.474C142.67 106.474 142.643 106.408 142.757 107.052C143.866 107.442 144.976 107.831 145.973 108.326C145.973 108.326 146.04 108.187 146.253 108.707C146.748 108.904 147.242 109.101 147.655 109.328C147.655 109.328 147.693 109.251 147.735 109.791C148.492 109.912 149.249 110.033 150.029 110.293C150.029 110.293 150.02 110.158 150.557 110.151C150.902 109.781 151.246 109.411 151.595 109.208C151.595 109.208 151.43 109.192 151.956 108.997C152.156 108.505 152.355 108.014 152.593 107.609C152.593 107.609 152.509 107.564 153.102 107.51C154.393 105.792 157.67 104.462 154.298 101.813C154.298 101.813 154.288 101.895 154.226 101.284C153.39 100.874 152.554 100.465 151.785 100.028C151.785 100.028 151.772 100.099 151.648 99.4808C150.543 99.0641 149.437 98.6474 148.385 98.1996C148.385 98.1996 148.375 98.2606 148.199 97.6542C147.054 97.3002 145.909 96.9462 144.836 96.5583C144.836 96.5583 144.813 96.6343 144.688 96.014C133.91 90.8418 122.854 89.5124 111.456 93.7533C110.63 94.0607 110.079 95.1083 109.413 95.7315C109.413 95.7315 109.491 95.7545 108.833 95.6667C107.578 96.5637 106.323 97.4608 105.049 98.2893C105.049 98.2893 105.118 98.3074 104.572 98.3479C104.231 98.7295 103.891 99.1111 103.595 99.4307C103.595 99.4307 103.568 99.5095 102.984 99.4197C102.553 99.9629 102.122 100.506 101.677 100.965C101.677 100.965 101.763 100.964 101.212 101.102C100.793 101.683 100.375 102.265 99.939 102.72C99.939 102.72 100.066 102.718 99.623 102.925C99.4853 103.211 99.3476 103.497 99.2011 103.677C99.2011 103.677 99.3059 103.691 98.7836 103.857C98.5483 104.321 98.313 104.785 98.0585 105.188C98.0585 105.188 98.1224 105.194 97.52 105.312C92.6147 110.186 92.7677 116.373 93.3519 122.517C93.5144 124.226 94.9577 125.814 95.676 127.651C95.676 127.651 95.7778 127.436 95.6102 128.058C96.149 128.803 96.6878 129.548 97.1662 130.305C97.1662 130.305 97.1837 130.245 97.24 130.788C97.5983 131.168 97.9566 131.548 98.1612 131.939C98.1612 131.939 98.1609 131.785 98.3465 132.256C98.6047 132.464 98.8629 132.672 99.4483 133.028C99.6411 133.196 99.7404 133.408 99.9385 134.094C100.181 134.286 100.423 134.479 100.609 134.677C100.609 134.677 100.615 134.621 100.832 135.029C101.081 135.205 101.33 135.38 101.938 135.673C102.166 135.817 102.302 136.021 102.574 136.708C102.836 136.884 103.097 137.06 103.257 137.245C103.257 137.245 103.252 137.143 103.512 137.547C103.793 137.691 104.073 137.836 104.272 137.977C104.272 137.977 104.289 137.897 104.35 138.511C105.185 138.927 106.019 139.343 106.786 139.785C106.786 139.785 106.803 139.714 106.89 140.332C109.191 141.302 111.491 142.272 113.726 143.272C113.726 143.272 113.738 143.201 113.926 143.86C115.202 144.182 116.478 144.504 117.897 144.753C117.897 144.753 117.989 144.885 118.18 145.527C119.626 145.906 121.072 146.285 122.418 146.724C122.418 146.724 122.482 146.627 122.589 147.243C127.18 148.817 131.771 150.391 136.298 151.992C136.298 151.992 136.31 151.924 136.424 152.533C137.843 153.22 139.261 153.907 140.624 154.622C140.624 154.622 140.602 154.564 140.873 154.954C141.15 155.099 141.427 155.244 141.62 155.379C141.62 155.379 141.642 155.297 141.639 155.923C143.101 157.187 144.562 158.45 145.929 159.783C145.929 159.783 145.985 159.679 145.908 160.39C146.492 164.904 147.077 169.417 147.638 173.857C147.638 173.857 147.713 173.84 147.267 174.153C147.097 174.652 146.928 175.152 146.731 175.578C146.731 175.578 146.807 175.554 146.428 175.853C146.322 176.152 146.215 176.45 146.109 176.636C146.109 176.636 146.22 176.656 145.685 176.835C145.43 177.311 145.176 177.787 144.815 178.62C144.671 178.848 144.465 178.973 143.645 179.092C143.328 179.51 143.01 179.927 142.592 180.252C142.592 180.252 142.724 180.29 142.24 180.337C142.016 180.559 141.792 180.781 141.585 180.912C141.585 180.912 141.673 180.941 141.108 180.943C140.741 181.32 140.373 181.697 139.714 181.894C139.714 181.894 140.021 182.049 139.319 181.851C132.08 183.703 124.827 185.262 117.329 183.311C114.035 182.454 110.719 181.679 107.494 180.834C107.494 180.834 107.52 180.918 107.191 180.476C106.682 180.316 106.174 180.157 105.743 179.973C105.743 179.973 105.761 180.053 105.482 179.671C105.186 179.587 104.89 179.502 104.627 179.472C104.627 179.472 104.564 179.47 104.491 178.841C103.44 178.351 102.389 177.86 101.403 177.342C101.403 177.342 101.39 177.411 101.317 176.779C100.147 176.128 98.9764 175.478 97.8806 174.799C97.8806 174.799 97.8551 174.875 97.7653 174.276C94.6061 172.491 93.5945 173.16 92.9304 177.371C92.9304 177.371 93.0152 177.346 92.6114 177.621C92.5069 177.921 92.4025 178.222 92.2943 178.43C92.2943 178.43 92.3842 178.451 91.8522 178.619C91.64 179.1 91.4278 179.581 91.1975 179.984C91.1975 179.984 91.2773 179.975 90.7923 180.148C90.8636 180.93 90.9349 181.713 91.0509 182.481C91.0509 182.481 91.0258 182.521 91.1267 183.106C92.0302 183.717 92.9337 184.329 93.77 184.959C93.77 184.959 93.7812 184.89 93.8724 185.493C94.7032 185.91 95.5341 186.327 96.3088 186.771C96.3088 186.771 96.2929 186.711 96.5028 187.118C96.7425 187.302 96.9822 187.486 97.1432 187.679C97.1432 187.679 97.1351 187.601 97.4952 188.006C98.0021 188.153 98.509 188.3 98.9505 188.463C98.9505 188.463 98.9621 188.396 99.0914 189.011C99.9881 189.301 100.885 189.59 101.524 189.894C101.524 189.894 101.781 189.856 101.895 190.486C104.743 191.416 107.591 192.346 110.475 193.258C110.475 193.258 110.515 193.259 110.724 193.901C113.457 194.426 116.189 194.952 118.869 195.501C118.869 195.501 118.86 195.444 119.359 195.886C126.83 199 133.974 196.574 141.005 194.311C143.347 193.558 145.284 191.542 147.431 190.182C147.431 190.182 147.357 190.143 148.012 190.208C148.954 189.292 149.896 188.377 150.861 187.555C150.861 187.555 150.766 187.569 151.215 187.372C151.398 187.108 151.58 186.843 151.767 186.707C151.767 186.707 151.638 186.703 152.086 186.506C152.269 186.242 152.452 185.979 152.622 185.817C152.622 185.817 152.521 185.795 153.118 185.718C153.419 185.079 153.721 184.441 154.114 183.859C154.114 183.859 154.008 183.871 154.544 183.722C154.768 183.248 154.993 182.774 155.244 182.389C155.244 182.389 155.152 182.408 155.546 182.125C155.635 181.822 155.724 181.519 155.794 181.315C155.794 181.315 155.744 181.228 156.381 181.156C161.034 176.078 160.83 169.884 160.115 163.713C159.898 161.837 158.57 160.09 157.843 158.24C157.843 158.24 157.788 158.326 157.891 157.651C157.018 156.38 156.146 155.108 155.333 153.824C155.333 153.824 155.312 153.881 155.233 153.345C154.827 153.04 154.422 152.735 154.115 152.319C154.115 152.319 154.003 152.438 154.144 151.8C152.972 150.896 151.799 149.992 150.985 148.968C150.985 148.968 150.62 149.065 150.513 148.531C150.064 148.283 149.616 148.036 149.228 147.764C149.228 147.764 149.249 147.826 148.985 147.43C148.707 147.285 148.428 147.14 148.28 146.988Z" fill="#ED4E2C"/>
<path d="M25 61.217C25.2897 62.331 25.8309 63.8519 25.8325 65.3734C25.8776 107.422 25.8725 149.47 25.8478 191.519C25.847 192.941 25.5568 194.363 25.2008 196.084C25 151.463 25 106.543 25 61.217Z" fill="#EE5636"/>
<path d="M25 198.506C26.5697 201.806 28.1393 205.492 29.5715 209.474C28.1018 208.016 26.7697 206.263 25.2188 204.791C25 203.012 25 200.952 25 198.506Z" fill="#EE5636"/>
<path d="M30.0068 210.413C31.0864 210.921 32.3126 211.647 33.5856 212.683C32.4728 212.206 31.3132 211.418 30.0068 210.413Z" fill="#EE5636"/>
<path d="M33.6963 213.193C34.157 213.304 34.7214 213.656 35.3709 214.259C34.904 214.151 34.352 213.793 33.6963 213.193Z" fill="#EE5636"/>
<path d="M224.941 84.8629C224.647 84.7413 224.294 84.3384 223.987 83.6104C224.317 83.7174 224.6 84.1496 224.941 84.8629Z" fill="#FFECE7"/>
<path d="M117.989 144.885C117.989 144.885 117.897 144.754 117.598 144.566C116.112 143.986 114.925 143.593 113.738 143.201C113.738 143.201 113.725 143.272 113.57 143.022C111.211 141.753 109.006 140.733 106.802 139.714C106.802 139.714 106.785 139.785 106.691 139.531C105.827 138.818 105.058 138.357 104.288 137.897C104.288 137.897 104.272 137.977 104.206 137.754C103.844 137.402 103.548 137.272 103.252 137.143C103.252 137.143 103.257 137.245 103.224 137.006C102.91 136.607 102.628 136.447 102.347 136.287C102.302 136.021 102.165 135.817 101.678 135.387C101.15 134.941 100.883 134.781 100.615 134.621C100.615 134.621 100.608 134.677 100.57 134.44C100.27 134.024 100.008 133.844 99.7457 133.664C99.74 133.408 99.6408 133.196 99.207 132.707C98.6976 132.185 98.4291 131.985 98.1606 131.785C98.1606 131.785 98.1609 131.939 98.1815 131.671C97.8626 131.017 97.5229 130.631 97.1833 130.245C97.1833 130.245 97.1658 130.305 97.1648 130.027C96.7016 128.978 96.2395 128.207 95.7774 127.436C95.7774 127.436 95.6757 127.651 95.6904 127.201C93.0841 119.181 94.3507 112.047 98.122 105.194C98.122 105.194 98.0581 105.188 98.2992 105.103C98.7954 104.575 99.0505 104.133 99.3055 103.691C99.3055 103.691 99.2007 103.677 99.4187 103.618C99.7797 103.278 99.9226 102.998 100.066 102.718C100.066 102.718 99.9386 102.72 100.199 102.682C100.893 102.084 101.328 101.524 101.762 100.964C101.762 100.964 101.677 100.965 101.924 100.935C102.637 100.44 103.102 99.9746 103.567 99.5095C103.567 99.5095 103.595 99.4308 103.821 99.39C104.404 99.0019 104.761 98.6546 105.118 98.3074C105.118 98.3074 105.049 98.2893 105.344 98.2629C106.923 97.4092 108.207 96.5818 109.491 95.7545C109.491 95.7545 109.412 95.7315 109.746 95.738C112.289 95.082 114.47 94.2964 116.712 93.7782C126.391 91.5418 135.633 93.8342 144.813 96.6344C144.813 96.6344 144.836 96.5584 144.987 96.7981C146.216 97.4454 147.295 97.853 148.374 98.2606C148.374 98.2606 148.385 98.1997 148.524 98.4483C149.7 99.1643 150.736 99.6318 151.772 100.099C151.772 100.099 151.785 100.028 151.888 100.275C152.756 100.98 153.522 101.437 154.288 101.895C154.288 101.895 154.297 101.813 154.308 102.123C153.716 104.144 153.112 105.854 152.509 107.564C152.509 107.564 152.593 107.609 152.345 107.696C151.875 108.253 151.652 108.722 151.429 109.192C151.429 109.192 151.595 109.208 151.363 109.215C150.761 109.535 150.391 109.846 150.02 110.158C150.02 110.158 150.028 110.293 149.804 110.095C148.951 109.682 148.322 109.466 147.692 109.251C147.692 109.251 147.655 109.328 147.569 109.079C147.001 108.615 146.52 108.401 146.039 108.187C146.039 108.187 145.973 108.326 145.84 108.064C144.686 107.337 143.664 106.873 142.642 106.408C142.642 106.408 142.67 106.474 142.42 106.256C140.857 105.581 139.543 105.123 138.23 104.665C138.23 104.665 138.178 104.718 137.958 104.531C129.861 102.073 121.996 100.621 114.22 104.721C114.22 104.721 114.293 104.672 113.97 104.741C112.747 105.474 111.848 106.139 110.949 106.803C110.949 106.803 111.002 106.833 110.763 106.847C110.343 107.125 110.162 107.389 109.981 107.654C109.981 107.654 110.092 107.662 109.848 107.668C109.421 107.944 109.24 108.214 109.058 108.485C109.058 108.485 109.178 108.489 108.938 108.515C108.55 108.834 108.403 109.125 108.256 109.417C108.256 109.417 108.365 109.414 108.128 109.444C107.753 109.76 107.615 110.045 107.476 110.331C107.476 110.331 107.535 110.325 107.254 110.476C104.372 115.148 103.391 119.725 106.5 124.442C106.5 124.442 106.527 124.357 106.509 124.621C106.832 125.279 107.173 125.674 107.514 126.068C107.514 126.068 107.534 126.012 107.548 126.251C107.822 126.676 108.082 126.861 108.342 127.047C108.342 127.047 108.352 126.934 108.356 127.176C108.627 127.603 108.893 127.788 109.159 127.973C109.159 127.973 109.164 127.861 109.202 128.096C109.531 128.474 109.822 128.617 110.114 128.76C110.114 128.76 110.095 128.685 110.177 128.959C111.521 130.057 112.783 130.88 114.045 131.704C114.045 131.704 114.103 131.782 114.337 131.958C115.374 132.474 116.177 132.816 116.979 133.158C116.979 133.158 117.017 133.079 117.172 133.337C123.296 135.763 129.265 137.931 135.234 140.099C135.234 140.099 135.282 140.006 135.439 140.256C136.887 141.012 138.179 141.518 139.471 142.024C139.471 142.024 139.539 141.917 139.659 142.161C140.621 142.746 141.463 143.087 142.305 143.428C142.305 143.428 142.306 143.373 142.454 143.613C143.604 144.356 144.607 144.858 145.609 145.36C145.609 145.36 145.681 145.259 145.759 145.513C146.299 145.992 146.761 146.217 147.224 146.441C147.224 146.441 147.247 146.354 147.324 146.561C147.693 146.885 147.985 147.001 148.277 147.117C148.277 147.117 148.279 146.988 148.313 147.223C148.647 147.581 148.948 147.704 149.249 147.826C149.249 147.826 149.228 147.764 149.294 148.009C149.779 148.525 150.199 148.795 150.62 149.065C150.62 149.065 150.985 148.968 150.944 149.257C151.936 150.51 152.97 151.474 154.003 152.438C154.003 152.438 154.114 152.319 154.154 152.613C154.566 153.232 154.939 153.557 155.312 153.881C155.312 153.881 155.333 153.824 155.356 154.117C156.182 155.716 156.985 157.021 157.788 158.326C157.788 158.326 157.842 158.24 157.827 158.622C159.868 166.667 159.261 174.082 155.744 181.228C155.744 181.228 155.794 181.315 155.61 181.41C155.335 181.806 155.244 182.107 155.152 182.408C155.152 182.408 155.243 182.389 154.998 182.46C154.505 182.977 154.256 183.424 154.007 183.871C154.007 183.871 154.114 183.859 153.82 183.938C153.192 184.61 152.856 185.203 152.521 185.795C152.521 185.795 152.622 185.817 152.387 185.844C151.981 186.148 151.81 186.425 151.638 186.703C151.638 186.703 151.766 186.707 151.523 186.72C151.108 187.011 150.937 187.29 150.766 187.569C150.766 187.569 150.861 187.555 150.584 187.597C149.324 188.474 148.34 189.309 147.357 190.143C147.357 190.143 147.431 190.182 147.109 190.209C144.707 191.166 142.703 192.614 140.534 192.932C133.342 193.989 126.089 194.638 118.86 195.444C118.86 195.444 118.869 195.501 118.691 195.223C115.847 194.383 113.18 193.821 110.514 193.259C110.514 193.259 110.475 193.258 110.215 193.091C107.23 191.901 104.505 190.878 101.781 189.856C101.781 189.856 101.524 189.894 101.469 189.688C100.597 189.12 99.7793 188.758 98.9617 188.396C98.9617 188.396 98.9502 188.463 98.8364 188.221C98.1934 187.853 97.664 187.727 97.1347 187.601C97.1347 187.601 97.1429 187.679 97.1134 187.439C96.8201 187.036 96.5563 186.874 96.2926 186.711C96.2926 186.711 96.3084 186.771 96.2095 186.516C95.334 185.804 94.5575 185.347 93.7809 184.89C93.7809 184.89 93.7696 184.959 93.6833 184.707C92.7397 183.81 91.8826 183.165 91.0254 182.521C91.0254 182.521 91.0506 182.481 91.0315 182.17C91.1006 181.232 91.1888 180.603 91.2769 179.975C91.2769 179.975 91.1971 179.984 91.4348 179.899C91.9096 179.36 92.1467 178.905 92.3838 178.451C92.3838 178.451 92.2939 178.43 92.502 178.343C92.8117 177.952 92.9133 177.649 93.0149 177.346C93.0149 177.346 92.9301 177.371 93.2032 177.257C94.9358 176.387 96.3953 175.631 97.8547 174.875C97.8547 174.875 97.8802 174.799 97.9762 175.063C99.178 176.022 100.284 176.716 101.39 177.411C101.39 177.411 101.403 177.342 101.506 177.605C102.594 178.402 103.579 178.936 104.564 179.47C104.564 179.47 104.627 179.472 104.744 179.643C105.16 179.894 105.46 179.973 105.76 180.053C105.76 180.053 105.743 179.973 105.858 180.213C106.488 180.607 107.004 180.763 107.52 180.918C107.52 180.918 107.493 180.834 107.643 181.096C118.435 186.267 129.143 188.099 140.02 182.049C140.02 182.049 139.714 181.894 140.122 181.932C140.911 181.628 141.292 181.284 141.673 180.941C141.673 180.941 141.585 180.912 141.814 180.923C142.27 180.719 142.497 180.504 142.724 180.29C142.724 180.29 142.591 180.252 142.885 180.199C143.518 179.762 143.857 179.379 144.196 178.996C144.465 178.973 144.671 178.848 145.113 178.326C145.681 177.573 145.95 177.115 146.219 176.656C146.219 176.656 146.109 176.636 146.321 176.561C146.623 176.175 146.715 175.864 146.806 175.554C146.806 175.554 146.731 175.578 146.981 175.475C147.392 174.861 147.553 174.351 147.713 173.84C147.713 173.84 147.638 173.857 147.889 173.66C149.868 168.486 149.559 163.827 145.984 159.679C145.984 159.679 145.929 159.783 145.899 159.468C144.461 157.867 143.051 156.582 141.642 155.297C141.642 155.297 141.62 155.379 141.564 155.151C141.206 154.803 140.904 154.684 140.602 154.564C140.602 154.564 140.624 154.622 140.505 154.358C139.027 153.371 137.669 152.647 136.31 151.924C136.31 151.924 136.298 151.992 136.143 151.731C131.487 149.856 126.984 148.242 122.482 146.627C122.482 146.627 122.418 146.724 122.258 146.47C120.728 145.772 119.358 145.329 117.989 144.885Z" fill="#FFF7F3"/>
<path d="M144.75 96.3242C135.633 93.8342 126.392 91.5417 116.713 93.7781C114.47 94.2963 112.289 95.0819 109.739 95.7781C110.078 95.1083 110.629 94.0607 111.456 93.7532C122.854 89.5124 133.91 90.8418 144.75 96.3242Z" fill="#D05E45"/>
<path d="M139.67 181.95C129.143 188.099 118.435 186.267 107.603 181.113C110.719 181.679 114.035 182.455 117.329 183.312C124.827 185.262 132.08 183.703 139.67 181.95Z" fill="#D05E45"/>
<path d="M119.109 195.665C126.089 194.639 133.342 193.989 140.534 192.932C142.703 192.614 144.707 191.166 147.096 190.169C145.283 191.542 143.347 193.558 141.004 194.312C133.974 196.574 126.829 199 119.109 195.665Z" fill="#D05E45"/>
<path d="M156.062 181.192C159.261 174.082 159.868 166.666 157.781 158.644C158.57 160.09 159.898 161.837 160.115 163.713C160.829 169.884 161.033 176.078 156.062 181.192Z" fill="#D05E45"/>
<path d="M97.8215 105.253C94.3514 112.047 93.0848 119.181 95.7598 127.104C94.9581 125.814 93.5148 124.226 93.3523 122.517C92.768 116.372 92.615 110.186 97.8215 105.253Z" fill="#D05E45"/>
<path d="M114.584 104.825C121.997 100.621 129.862 102.073 137.994 104.544C137.251 104.853 136.164 105.279 135.272 105.024C128.49 103.086 121.733 102.833 114.584 104.825Z" fill="#D05E45"/>
<path d="M135.185 139.794C129.265 137.931 123.296 135.763 117.132 133.354C123.003 135.238 129.07 137.363 135.185 139.794Z" fill="#D05E45"/>
<path d="M122.536 146.935C126.985 148.242 131.487 149.856 136.176 151.718C131.771 150.391 127.18 148.817 122.536 146.935Z" fill="#D05E45"/>
<path d="M145.946 160.035C149.559 163.827 149.869 168.486 147.901 173.697C147.077 169.417 146.492 164.904 145.946 160.035Z" fill="#D05E45"/>
<path d="M106.556 124.071C103.391 119.725 104.373 115.148 107.242 110.449C107.211 114.748 106.911 119.224 106.556 124.071Z" fill="#D05E45"/>
<path d="M101.838 190.171C104.506 190.878 107.23 191.901 110.197 193.099C107.591 192.346 104.743 191.416 101.838 190.171Z" fill="#D05E45"/>
<path d="M97.8104 174.575C96.3959 175.631 94.9364 176.387 93.2207 177.298C93.5947 173.16 94.6063 172.491 97.8104 174.575Z" fill="#D05E45"/>
<path d="M106.846 140.023C109.006 140.733 111.21 141.753 113.603 143.007C111.49 142.272 109.19 141.302 106.846 140.023Z" fill="#D05E45"/>
<path d="M110.619 193.58C113.18 193.821 115.847 194.383 118.717 195.211C116.189 194.952 113.456 194.426 110.619 193.58Z" fill="#D05E45"/>
<path d="M141.641 155.61C143.052 156.582 144.461 157.868 145.947 159.433C144.562 158.45 143.101 157.187 141.641 155.61Z" fill="#D05E45"/>
<path d="M152.806 107.537C153.113 105.854 153.716 104.144 154.267 102.125C157.67 104.462 154.393 105.792 152.806 107.537Z" fill="#D05E45"/>
<path d="M154.074 152.119C152.97 151.474 151.937 150.51 150.765 149.317C151.799 149.992 152.972 150.896 154.074 152.119Z" fill="#D05E45"/>
<path d="M114.038 131.385C112.782 130.88 111.52 130.057 110.14 128.971C111.358 129.495 112.695 130.281 114.038 131.385Z" fill="#D05E45"/>
<path d="M109.162 95.7107C108.207 96.5819 106.923 97.4092 105.354 98.2972C106.322 97.4609 107.577 96.5638 109.162 95.7107Z" fill="#D05E45"/>
<path d="M136.367 152.229C137.669 152.648 139.028 153.371 140.533 154.344C139.261 153.907 137.843 153.22 136.367 152.229Z" fill="#D05E45"/>
<path d="M157.839 157.989C156.985 157.021 156.182 155.716 155.326 154.124C156.146 155.108 157.018 156.38 157.839 157.989Z" fill="#D05E45"/>
<path d="M147.685 190.176C148.341 189.309 149.324 188.474 150.572 187.551C149.895 188.377 148.954 189.293 147.685 190.176Z" fill="#D05E45"/>
<path d="M101.354 177.095C100.284 176.716 99.1785 176.022 97.9395 175.077C98.9765 175.478 100.147 176.128 101.354 177.095Z" fill="#D05E45"/>
<path d="M118.084 145.206C119.358 145.328 120.728 145.772 122.307 146.439C121.071 146.285 119.625 145.906 118.084 145.206Z" fill="#D05E45"/>
<path d="M113.832 143.531C114.925 143.593 116.113 143.986 117.527 144.602C116.478 144.504 115.202 144.182 113.832 143.531Z" fill="#D05E45"/>
<path d="M138.345 104.971C139.544 105.123 140.857 105.581 142.392 106.235C141.228 106.047 139.844 105.662 138.345 104.971Z" fill="#D05E45"/>
<path d="M139.386 141.706C138.179 141.518 136.887 141.012 135.395 140.285C136.563 140.505 137.932 140.947 139.386 141.706Z" fill="#D05E45"/>
<path d="M148.287 97.9576C147.296 97.8531 146.217 97.4455 144.951 96.8151C145.909 96.9463 147.054 97.3003 148.287 97.9576Z" fill="#D05E45"/>
<path d="M104.527 179.155C103.579 178.936 102.594 178.402 101.474 177.619C102.389 177.86 103.439 178.351 104.527 179.155Z" fill="#D05E45"/>
<path d="M111.266 106.822C111.848 106.139 112.747 105.474 113.926 104.747C113.331 105.403 112.457 106.122 111.266 106.822Z" fill="#D05E45"/>
<path d="M151.711 99.79C150.736 99.6317 149.7 99.1643 148.498 98.4637C149.437 98.6474 150.543 99.0641 151.711 99.79Z" fill="#D05E45"/>
<path d="M145.569 145.047C144.608 144.858 143.605 144.356 142.432 143.628C143.35 143.847 144.438 144.291 145.569 145.047Z" fill="#D05E45"/>
<path d="M142.699 106.73C143.664 106.873 144.686 107.337 145.896 108.011C144.976 107.831 143.866 107.442 142.699 106.73Z" fill="#D05E45"/>
<path d="M142.216 143.133C141.463 143.087 140.621 142.746 139.604 142.192C140.328 142.265 141.228 142.551 142.216 143.133Z" fill="#D05E45"/>
<path d="M91.0343 180.062C91.1886 180.603 91.1005 181.232 91.009 182.177C90.9344 181.713 90.8631 180.93 91.0343 180.062Z" fill="#D05E45"/>
<path d="M104.319 138.204C105.058 138.357 105.828 138.818 106.726 139.518C106.019 139.343 105.185 138.927 104.319 138.204Z" fill="#D05E45"/>
<path d="M154.257 101.589C153.522 101.437 152.757 100.98 151.854 100.289C152.554 100.465 153.39 100.874 154.257 101.589Z" fill="#D05E45"/>
<path d="M91.0762 182.813C91.8829 183.165 92.7401 183.81 93.7172 184.698C92.9337 184.329 92.0302 183.718 91.0762 182.813Z" fill="#D05E45"/>
<path d="M116.924 132.846C116.177 132.816 115.374 132.474 114.384 131.944C115.087 132.015 115.978 132.275 116.924 132.846Z" fill="#D05E45"/>
<path d="M147.715 109.521C148.323 109.466 148.952 109.682 149.794 110.025C149.25 110.033 148.493 109.912 147.715 109.521Z" fill="#D05E45"/>
<path d="M99.0264 188.704C99.7793 188.758 100.597 189.12 101.598 189.681C100.885 189.59 99.9878 189.301 99.0264 188.704Z" fill="#D05E45"/>
<path d="M95.6934 127.747C96.2392 128.207 96.7014 128.978 97.1947 130.021C96.6872 129.548 96.1484 128.803 95.6934 127.747Z" fill="#D05E45"/>
<path d="M93.8262 185.192C94.5572 185.347 95.3338 185.804 96.2373 186.503C95.5334 186.327 94.7026 185.91 93.8262 185.192Z" fill="#D05E45"/>
<path d="M103.276 99.4646C103.102 99.9746 102.637 100.44 101.932 100.977C102.122 100.506 102.553 99.9629 103.276 99.4646Z" fill="#D05E45"/>
<path d="M152.819 185.757C152.857 185.203 153.192 184.61 153.775 183.91C153.721 184.441 153.419 185.079 152.819 185.757Z" fill="#D05E45"/>
<path d="M101.488 101.033C101.329 101.524 100.894 102.084 100.208 102.745C100.375 102.265 100.794 101.684 101.488 101.033Z" fill="#D05E45"/>
<path d="M107.356 180.697C107.005 180.763 106.489 180.607 105.819 180.224C106.174 180.156 106.683 180.316 107.356 180.697Z" fill="#D05E45"/>
<path d="M147.49 173.996C147.553 174.351 147.393 174.861 146.996 175.512C146.929 175.152 147.098 174.652 147.49 173.996Z" fill="#D05E45"/>
<path d="M97.3154 187.803C97.6647 187.727 98.194 187.853 98.8697 188.213C98.5093 188.3 98.0024 188.153 97.3154 187.803Z" fill="#D05E45"/>
<path d="M145.953 176.746C145.951 177.114 145.682 177.573 145.168 178.147C145.177 177.787 145.431 177.311 145.953 176.746Z" fill="#D05E45"/>
<path d="M92.1182 178.535C92.1471 178.905 91.9099 179.36 91.4442 179.938C91.4278 179.581 91.6401 179.1 92.1182 178.535Z" fill="#D05E45"/>
<path d="M143.921 179.044C143.858 179.379 143.519 179.762 142.937 180.245C143.011 179.927 143.328 179.51 143.921 179.044Z" fill="#D05E45"/>
<path d="M154.275 183.796C154.256 183.424 154.505 182.977 154.985 182.415C154.993 182.774 154.768 183.248 154.275 183.796Z" fill="#D05E45"/>
<path d="M104.845 98.3276C104.762 98.6546 104.405 99.0019 103.8 99.4209C103.892 99.1111 104.232 98.7295 104.845 98.3276Z" fill="#D05E45"/>
<path d="M141.391 180.942C141.293 181.284 140.912 181.628 140.269 182.023C140.374 181.698 140.741 181.32 141.391 180.942Z" fill="#D05E45"/>
<path d="M155.273 153.613C154.94 153.557 154.567 153.232 154.105 152.669C154.422 152.735 154.828 153.04 155.273 153.613Z" fill="#D05E45"/>
<path d="M150.567 148.798C150.2 148.795 149.78 148.525 149.264 148.022C149.616 148.036 150.065 148.283 150.567 148.798Z" fill="#D05E45"/>
<path d="M99.0451 103.774C99.0512 104.133 98.7962 104.575 98.3096 105.133C98.3134 104.785 98.5487 104.321 99.0451 103.774Z" fill="#D05E45"/>
<path d="M97.2119 130.517C97.5234 130.631 97.863 131.017 98.2588 131.666C97.9567 131.548 97.5984 131.168 97.2119 130.517Z" fill="#D05E45"/>
<path d="M151.693 109.095C151.653 108.722 151.876 108.253 152.327 107.652C152.355 108.014 152.156 108.505 151.693 109.095Z" fill="#D05E45"/>
<path d="M147.135 146.176C146.762 146.217 146.3 145.992 145.706 145.544C146.064 145.518 146.554 145.715 147.135 146.176Z" fill="#D05E45"/>
<path d="M146.146 108.447C146.521 108.401 147.002 108.615 147.609 109.064C147.242 109.101 146.748 108.904 146.146 108.447Z" fill="#D05E45"/>
<path d="M150.288 110.154C150.39 109.846 150.761 109.535 151.361 109.132C151.246 109.411 150.901 109.781 150.288 110.154Z" fill="#D05E45"/>
<path d="M107.487 125.798C107.172 125.674 106.832 125.279 106.465 124.611C106.779 124.735 107.12 125.132 107.487 125.798Z" fill="#D05E45"/>
<path d="M96.3984 186.915C96.5573 186.874 96.8211 187.036 97.1536 187.434C96.9827 187.486 96.7431 187.302 96.3984 186.915Z" fill="#D05E45"/>
<path d="M99.8444 102.821C99.923 102.998 99.78 103.278 99.4235 103.671C99.3476 103.497 99.4853 103.211 99.8444 102.821Z" fill="#D05E45"/>
<path d="M150.991 187.47C150.938 187.29 151.109 187.011 151.522 186.656C151.58 186.843 151.398 187.108 150.991 187.47Z" fill="#D05E45"/>
<path d="M108.258 126.828C108.082 126.861 107.822 126.676 107.519 126.247C107.708 126.205 107.941 126.407 108.258 126.828Z" fill="#D05E45"/>
<path d="M107.676 110.21C107.615 110.045 107.754 109.759 108.125 109.389C108.197 109.566 108.036 109.828 107.676 110.21Z" fill="#D05E45"/>
<path d="M108.468 109.3C108.404 109.125 108.551 108.834 108.936 108.455C109.009 108.64 108.844 108.911 108.468 109.3Z" fill="#D05E45"/>
<path d="M109.283 108.395C109.239 108.214 109.421 107.944 109.848 107.612C109.899 107.802 109.703 108.053 109.283 108.395Z" fill="#D05E45"/>
<path d="M110.2 107.567C110.163 107.389 110.344 107.125 110.77 106.817C110.816 107.009 110.617 107.245 110.2 107.567Z" fill="#D05E45"/>
<path d="M140.737 154.759C140.904 154.683 141.206 154.803 141.606 155.156C141.427 155.244 141.15 155.099 140.737 154.759Z" fill="#D05E45"/>
<path d="M151.863 186.604C151.81 186.425 151.982 186.148 152.394 185.793C152.452 185.979 152.269 186.242 151.863 186.604Z" fill="#D05E45"/>
<path d="M109.072 127.748C108.893 127.788 108.627 127.603 108.3 127.174C108.488 127.127 108.736 127.325 109.072 127.748Z" fill="#D05E45"/>
<path d="M109.993 128.553C109.823 128.617 109.531 128.474 109.146 128.098C109.326 128.026 109.598 128.186 109.993 128.553Z" fill="#D05E45"/>
<path d="M98.2539 132.02C98.4296 131.985 98.6981 132.185 99.0439 132.632C98.863 132.672 98.6049 132.464 98.2539 132.02Z" fill="#D05E45"/>
<path d="M155.349 182.266C155.244 182.107 155.335 181.806 155.62 181.36C155.724 181.519 155.635 181.822 155.349 182.266Z" fill="#D05E45"/>
<path d="M99.8418 133.879C100.008 133.844 100.27 134.024 100.598 134.438C100.422 134.479 100.18 134.287 99.8418 133.879Z" fill="#D05E45"/>
<path d="M100.724 134.825C100.883 134.781 101.15 134.94 101.498 135.328C101.33 135.38 101.081 135.205 100.724 134.825Z" fill="#D05E45"/>
<path d="M142.482 180.313C142.497 180.504 142.27 180.719 141.805 180.968C141.791 180.781 142.016 180.559 142.482 180.313Z" fill="#D05E45"/>
<path d="M102.46 136.498C102.628 136.447 102.91 136.607 103.275 137.001C103.097 137.06 102.835 136.884 102.46 136.498Z" fill="#D05E45"/>
<path d="M103.382 137.345C103.548 137.272 103.844 137.402 104.247 137.756C104.073 137.836 103.792 137.691 103.382 137.345Z" fill="#D05E45"/>
<path d="M105.621 179.862C105.461 179.973 105.161 179.893 104.728 179.616C104.89 179.502 105.186 179.587 105.621 179.862Z" fill="#D05E45"/>
<path d="M148.16 146.905C147.986 147.001 147.694 146.884 147.28 146.561C147.453 146.466 147.747 146.579 148.16 146.905Z" fill="#D05E45"/>
<path d="M149.117 147.628C148.948 147.704 148.647 147.581 148.248 147.227C148.428 147.14 148.706 147.285 149.117 147.628Z" fill="#D05E45"/>
<path d="M92.8136 177.483C92.9139 177.649 92.8123 177.952 92.5045 178.388C92.4028 178.222 92.5072 177.921 92.8136 177.483Z" fill="#D05E45"/>
<path d="M146.618 175.704C146.716 175.865 146.624 176.175 146.321 176.617C146.216 176.45 146.322 176.152 146.618 175.704Z" fill="#D05E45"/>
</svg>
